<svg width="41" height="41" viewBox="0 0 41 41" fill="none" xmlns="http://www.w3.org/2000/svg">
    <rect x="8" y="22.9999" width="14.9999" height="9.99996" fill="#D5342B"/>
    <rect x="6" y="25" width="3" height="6" fill="#D5342B"/>
    <rect x="22" y="23" width="2" height="7" fill="#D5342B"/>
    <rect x="23" y="25" width="2" height="3" fill="#D5342B"/>
    <rect x="25" y="24" width="0.999996" height="1.99999" fill="#D5342B"/>
    <rect x="25" y="28" width="0.999996" height="1.99999" fill="#D5342B"/>
    <rect x="26" y="26" width="0.999996" height="1.99999" fill="#D5342B"/>
    <rect x="7.00005" y="24" width="0.999996" height="0.999996" fill="#FF6158"/>
    <rect x="10" y="21" width="1" height="2" fill="#FF6158"/>
    <rect x="9.00005" y="22.0001" width="1.99999" height="0.999996" fill="#FF6158"/>
    <rect x="10" y="32" width="11" height="2" fill="#D5342B"/>
    <rect x="12" y="33" width="6" height="2" fill="#D5342B"/>
    <rect x="11" y="22.0001" width="3" height="2" fill="#D5342B"/>
    <rect x="18" y="22.0001" width="5" height="2" fill="#D5342B"/>
    <rect x="20" y="21" width="2" height="2" fill="#D5342B"/>
    <rect x="11" y="21" width="1" height="2" fill="#D5342B"/>
    <rect x="12" y="21" width="1.99999" height="0.999996" fill="#BD2E26"/>
    <rect x="10" y="20" width="1.99999" height="0.999996" fill="#BD2E26"/>
    <rect x="18" y="21" width="1.99999" height="0.999996" fill="#BD2E26"/>
    <rect x="20" y="20" width="1.99999" height="0.999996" fill="#BD2E26"/>
    <rect x="18" y="20" width="1.99999" height="0.999996" fill="#651814"/>
    <rect x="18" y="20" width="1.99999" height="0.999996" fill="#651814"/>
    <rect x="18" y="20" width="1.99999" height="0.999996" fill="#651814"/>
    <rect x="18" y="18.9999" width="1.99999" height="0.999996" fill="#1B7D2C"/>
    <rect x="17" y="18.9999" width="0.999996" height="1.99999" fill="#1B7D2C"/>
    <rect x="20" y="18" width="0.999996" height="1.99999" fill="#1B7D2C"/>
    <rect x="21" y="18" width="0.999996" height="0.999996" fill="#1B7D2C"/>
    <rect x="21" y="14.9999" width="0.999996" height="2.99999" fill="#2AC945"/>
    <rect x="20" y="16" width="0.999996" height="1.99999" fill="#2AC945"/>
    <rect x="17" y="17" width="2.99999" height="1.99999" fill="#2AC945"/>
    <rect x="18" y="16" width="0.999996" height="0.999996" fill="#2AC945"/>
    <rect x="19" y="16" width="0.999996" height="0.999996" fill="#7AE08C"/>
    <rect x="20" y="14.9999" width="0.999996" height="0.999996" fill="#7AE08C"/>
    <rect x="14" y="21" width="3.99998" height="0.999996" fill="#651814"/>
    <rect x="15" y="17" width="1.99999" height="3.99998" fill="#651814"/>
    <rect x="12" y="20" width="1.99999" height="0.999996" fill="#651814"/>
    <rect x="22" y="20" width="0.999996" height="0.999996" fill="#651814"/>
    <rect x="9.00005" y="20" width="0.999996" height="0.999996" fill="#651814"/>
    <rect x="7.00005" y="21" width="0.999996" height="0.999996" fill="#651814"/>
    <rect x="6" y="22.0001" width="0.999996" height="0.999996" fill="#651814"/>
    <rect x="24" y="21" width="0.999996" height="0.999996" fill="#651814"/>
    <rect x="25" y="22.0001" width="0.999996" height="0.999996" fill="#651814"/>
    <rect x="23" y="34.9999" width="0.999996" height="0.999996" fill="#651814"/>
    <rect x="8" y="34.9999" width="0.999996" height="0.999996" fill="#651814"/>
    <rect x="22" y="21" width="1.99999" height="0.999996" fill="#BD2E26"/>
    <rect x="23" y="22.0001" width="1.99999" height="0.999996" fill="#BD2E26"/>
    <rect x="24" y="22.9999" width="1.99999" height="0.999996" fill="#BD2E26"/>
    <rect x="24" y="24" width="0.999996" height="0.999996" fill="#BD2E26"/>
    <rect x="26" y="24" width="0.999996" height="1.99999" fill="#BD2E26"/>
    <rect x="25" y="26" width="0.999996" height="1.99999" fill="#BD2E26"/>
    <rect x="26" y="28" width="0.999996" height="3.99998" fill="#BD2E26"/>
    <rect x="24" y="30" width="1.99999" height="1.99999" fill="#BD2E26"/>
    <rect x="22" y="33" width="2.99999" height="1.99999" fill="#BD2E26"/>
    <rect x="21" y="33" width="0.999996" height="0.999996" fill="#BD2E26"/>
    <rect x="23" y="32" width="0.999996" height="0.999996" fill="#BD2E26"/>
    <rect x="25" y="32" width="0.999996" height="1.99999" fill="#BD2E26"/>
    <rect x="24" y="28" width="0.999996" height="1.99999" fill="#BD2E26"/>
    <rect width="0.999996" height="0.999996" transform="matrix(1 0 0 -1 23 30.9999)" fill="#BD2E26"/>
    <rect x="14" y="22.0001" width="3.99998" height="0.999996" fill="#BD2E26"/>
    <rect x="21" y="34.0001" width="0.999996" height="0.999996" fill="#D5342B"/>
    <rect x="9.00005" y="34.0001" width="0.999996" height="0.999996" fill="#D5342B"/>
    <rect x="7" y="32" width="2" height="2" fill="#D5342B"/>
    <rect x="7.00005" y="30.9999" width="2" height="2" fill="#D5342B"/>
    <rect x="8" y="21" width="1" height="3" fill="#D5342B"/>
    <rect x="8" y="21" width="2" height="1" fill="#D5342B"/>
    <rect x="7.00005" y="22.0001" width="2" height="2" fill="#D5342B"/>
    <rect x="6" y="22.9999" width="1" height="3" fill="#D5342B"/>
    <rect x="9.00005" y="34.9999" width="13.9999" height="0.999996" fill="#BD2E26"/>
    <rect x="10" y="34.0001" width="1.99999" height="0.999996" fill="#BD2E26"/>
    <rect x="7.00005" y="34.0001" width="1.99999" height="0.999996" fill="#BD2E26"/>
    <rect x="9.00005" y="33" width="0.999996" height="0.999996" fill="#BD2E26"/>
    <rect x="6" y="30.9999" width="0.999996" height="2.99999" fill="#BD2E26"/>
    <rect x="5.00003" y="24" width="0.999996" height="7.99997" fill="#BD2E26"/>
    <rect x="18" y="34.0001" width="2.99999" height="0.999996" fill="#BD2E26"/>
    <rect x="10" y="25" width="0.999996" height="1.99999" fill="black"/>
    <rect x="11" y="28" width="0.999996" height="0.999996" fill="black"/>
    <rect x="12" y="29" width="0.999996" height="0.999996" fill="black"/>
    <rect x="13" y="28" width="0.999996" height="0.999996" fill="black"/>
    <rect x="20" y="28" width="0.999996" height="0.999996" fill="black"/>
    <rect x="22" y="30" width="0.999996" height="0.999996" fill="black"/>
    <rect x="23" y="30.9999" width="0.999996" height="0.999996" fill="black"/>
    <rect x="24" y="32" width="0.999996" height="0.999996" fill="black"/>
    <rect x="21" y="29" width="0.999996" height="0.999996" fill="black"/>
    <rect x="15" y="25" width="0.999996" height="1.99999" fill="black"/>
    <rect x="17" y="36" width="0.999996" height="1.99999" fill="black"/>
    <rect x="15" y="37" width="3" height="1" fill="black"/>
    <rect x="15" y="37" width="1" height="4" fill="black"/>
    <rect x="13" y="36" width="1" height="2" fill="black"/>
    <rect x="11" y="37" width="3" height="1" fill="black"/>
    <rect x="11" y="37" width="1" height="4" fill="black"/>
    <rect x="4.00002" y="26.9999" width="0.999996" height="0.999996" fill="black"/>
    <rect x="3.00005" y="26" width="0.999996" height="0.999996" fill="black"/>
    <rect x="2" y="25" width="0.999996" height="0.999996" fill="black"/>
    <rect y="26.9999" width="1.99999" height="0.999996" fill="#342F2E"/>
    <rect x="1.00005" y="26" width="1.99999" height="0.999996" fill="#342F2E"/>
    <rect x="3.00005" y="24" width="0.999996" height="1.99999" fill="#342F2E"/>
    <rect x="4.00002" y="22.9999" width="0.999996" height="1.99999" fill="#342F2E"/>
    <rect x="5.00003" y="22.0001" width="0.999996" height="1.99999" fill="#342F2E"/>
    <rect x="8" y="18.9999" width="0.999996" height="1.99999" fill="#342F2E"/>
    <rect x="7.00005" y="20" width="0.999996" height="0.999996" fill="#342F2E"/>
    <rect x="6" y="21" width="0.999996" height="0.999996" fill="#342F2E"/>
    <rect x="17" y="12" width="0.999996" height="0.999996" fill="#342F2E"/>
    <rect x="9.00005" y="18" width="0.999996" height="1.99999" fill="#342F2E"/>
    <rect x="10" y="17" width="0.999996" height="1.99999" fill="#342F2E"/>
    <rect x="11" y="16" width="0.999996" height="1.99999" fill="#342F2E"/>
    <rect x="12" y="14.9999" width="0.999996" height="1.99999" fill="#342F2E"/>
    <rect x="13" y="14" width="0.999996" height="1.99999" fill="#342F2E"/>
    <rect x="14" y="13" width="0.999996" height="1.99999" fill="#342F2E"/>
    <rect x="15" y="12" width="0.999996" height="1.99999" fill="#342F2E"/>
    <rect x="16" y="10.9999" width="0.999996" height="1.99999" fill="#342F2E"/>
    <rect x="11" y="16" width="0.999996" height="1.99999" fill="#342F2E"/>
    <rect x="12" y="14.9999" width="0.999996" height="1.99999" fill="#342F2E"/>
    <rect x="13" y="14" width="0.999996" height="1.99999" fill="#342F2E"/>
    <rect x="18" y="5.00002" width="11" height="6.99997" fill="#E8810D"/>
    <rect x="17" y="10" width="0.999996" height="1.99999" fill="#E8810D"/>
    <rect x="21" y="12" width="0.999996" height="2.99999" fill="#E8810D"/>
    <rect x="20" y="12" width="0.999996" height="1.99999" fill="#E8810D"/>
    <rect x="19" y="3.99997" width="0.999996" height="8.99996" fill="#E8810D"/>
    <rect x="20" y="2.99994" width="0.999996" height="0.999996" fill="#E8810D"/>
    <rect x="22" y="2.99994" width="0.999996" height="0.999996" fill="#E8810D"/>
    <rect x="23" y="-3.05176e-05" width="0.999996" height="0.999996" fill="#E8810D"/>
    <rect x="33" y="10" width="0.999996" height="11" fill="#E8810D"/>
    <rect x="27" y="18.9999" width="0.999996" height="1.99999" fill="#E8810D"/>
    <rect x="34" y="10.9999" width="0.999996" height="11" fill="#E8810D"/>
    <rect x="31" y="22.0001" width="1.99999" height="0.999996" fill="#E8810D"/>
    <rect x="32" y="22.9999" width="1.99999" height="0.999996" fill="#E8810D"/>
    <rect x="36" y="13" width="0.999996" height="11" fill="#E8810D"/>
    <rect x="35" y="18.9999" width="0.999996" height="3.99998" fill="#E8810D"/>
    <rect x="37.0001" y="14" width="0.999996" height="3.99998" fill="#E8810D"/>
    <rect x="38" y="16" width="0.999996" height="2.99999" fill="#E8810D"/>
    <rect x="39" y="17" width="0.999996" height="2.99999" fill="#E8810D"/>
    <rect x="40" y="18" width="0.999996" height="3.99998" fill="#E8810D"/>
    <rect x="37.0001" y="20" width="0.999996" height="1.99999" fill="#E8810D"/>
    <rect x="38" y="21" width="0.999996" height="0.999996" fill="#E8810D"/>
    <rect x="25" y="12" width="11" height="6.99997" fill="#E8810D"/>
    <rect x="22" y="3.99997" width="2.99999" height="12" fill="#E8810D"/>
    <rect x="16" y="6.99994" width="2.99999" height="2.99999" fill="#E8810D"/>
    <rect x="15" y="7.99998" width="16.9999" height="0.999996" fill="#E8810D"/>
    <rect x="17" y="6.00006" width="12.9999" height="0.999996" fill="#E8810D"/>
    <rect x="21" y="3.99997" width="6.99997" height="0.999996" fill="#E8810D"/>
    <rect x="26" y="2.99994" width="0.999996" height="16.9999" fill="#E8810D"/>
    <rect x="24" y="2.00005" width="1.99999" height="15.9999" fill="#E8810D"/>
    <rect x="23" y="1.00002" width="1.99999" height="15.9999" fill="#E8810D"/>
    <rect x="29" y="6.99994" width="1.99999" height="4.99998" fill="#E8810D"/>
    <rect x="28" y="9" width="4.99998" height="12.9999" fill="#E8810D"/>
    <rect x="20" y="7.99998" width="1.99999" height="0.999996" fill="black"/>
    <rect x="20" y="9" width="4.99998" height="0.999996" fill="black"/>
    <rect x="21" y="6.99994" width="1.99999" height="0.999996" fill="black"/>
    <rect x="22" y="6.00006" width="1.99999" height="0.999996" fill="black"/>
    <rect x="24" y="5.00002" width="0.999996" height="0.999996" fill="black"/>
    <rect x="28" y="9" width="0.999996" height="0.999996" fill="black"/>
    <rect x="31" y="10.9999" width="0.999996" height="0.999996" fill="black"/>
    <rect x="27" y="14.9999" width="0.999996" height="0.999996" fill="black"/>
    <rect x="30" y="14.9999" width="0.999996" height="0.999996" fill="black"/>
    <rect x="31" y="18.9999" width="0.999996" height="0.999996" fill="black"/>
    <rect x="31" y="16" width="0.999996" height="0.999996" fill="black"/>
    <rect x="35" y="14.9999" width="0.999996" height="0.999996" fill="black"/>
    <rect x="29" y="22.0001" width="0.999996" height="0.999996" fill="black"/>
    <rect x="22" y="1.00002" width="0.999996" height="1.99999" fill="#FFB562"/>
    <rect x="21" y="2.00005" width="0.999996" height="1.99999" fill="#FFB562"/>
    <rect x="20" y="3.99997" width="0.999996" height="0.999996" fill="#FFB562"/>
    <rect x="30" y="22.0001" width="0.999996" height="1.99999" fill="#B1722C"/>
    <rect x="31" y="22.9999" width="0.999996" height="1.99999" fill="#B1722C"/>
    <rect x="35" y="25" width="0.999996" height="0.999996" fill="#B1722C"/>
    <rect x="36" y="25" width="0.999996" height="0.999996" fill="#82522D"/>
    <rect x="38" y="14.9999" width="0.999996" height="0.999996" fill="#B1722C"/>
    <rect x="39" y="16" width="0.999996" height="0.999996" fill="#B1722C"/>
    <rect x="40" y="17" width="0.999996" height="0.999996" fill="#B1722C"/>
    <rect x="33" y="26" width="1.99999" height="0.999996" fill="#82522D"/>
    <rect x="33" y="26" width="1.99999" height="0.999996" fill="#82522D"/>
    <rect x="32" y="24" width="2.99999" height="1.99999" fill="#B1722C"/>
    <rect x="30" y="12" width="0.999996" height="1.99999" fill="black"/>
    <rect x="29" y="13" width="0.999996" height="1.99999" fill="black"/>
    <rect x="28" y="14" width="0.999996" height="1.99999" fill="black"/>
    <rect x="33" y="16" width="1.99999" height="0.999996" fill="black"/>
    <rect x="32" y="17" width="1.99999" height="0.999996" fill="black"/>
    <rect x="31" y="18" width="1.99999" height="0.999996" fill="black"/>
    <rect x="24" y="10" width="0.999996" height="3.99998" fill="black"/>
    <rect x="25" y="12" width="0.999996" height="1.99999" fill="black"/>
    <rect x="26" y="10.9999" width="0.999996" height="1.99999" fill="black"/>
    <rect x="27" y="10" width="0.999996" height="1.99999" fill="black"/>
    </svg>
    