<svg width="50" height="56" viewBox="0 0 50 56" fill="none" xmlns="http://www.w3.org/2000/svg">
    <path d="M42.6568 7.63483C43.1929 6.98226 42.7287 6 41.8841 6H31.3333C31.0302 6 30.7435 6.13744 30.5537 6.3737L19.3065 20.3737C18.7808 21.0281 19.2466 22 20.0861 22H30.3813C30.6805 22 30.964 21.866 31.154 21.6348L42.6568 7.63483Z" fill="#B73F48"/>
    <path d="M5.34323 7.63483C4.80705 6.98226 5.27129 6 6.11588 6H16.6667C16.9698 6 17.2565 6.13744 17.4463 6.3737L28.6935 20.3737C29.2192 21.0281 28.7534 22 27.9139 22H17.6187C17.3195 22 17.036 21.866 16.846 21.6348L5.34323 7.63483Z" fill="#FB071A"/>
    <circle cx="24.5" cy="33.5" r="16.5" fill="#A47556"/>
    <circle cx="24.5" cy="33.5" r="11.5" fill="#A47556" stroke="#D5BAA8" stroke-width="2" stroke-linejoin="round"/>
    </svg>
    