<svg width="1719" height="1719" viewBox="0 0 1719 1719" fill="none" xmlns="http://www.w3.org/2000/svg">
    <rect width="1719" height="1719" fill="url(#paint0_linear_36_18)"/>
    <path d="M460.373 735.5C447.04 735.5 436.706 731.833 429.373 724.5C422.373 716.833 418.873 707.667 418.873 697C418.873 694.333 419.206 691.167 419.873 687.5C420.873 683.833 422.04 680.667 423.373 678C427.706 680 434.04 681.5 442.373 682.5C451.04 683.167 461.04 683.5 472.373 683.5C489.373 683.5 508.54 682.833 529.873 681.5C551.54 679.833 572.206 678.167 591.873 676.5C611.54 674.833 628.873 673.333 643.873 672C658.873 670.333 668.54 669.5 672.873 669.5C685.206 669.5 694.04 674.167 699.373 683.5C705.04 692.5 709.206 704.667 711.873 720C703.206 719.333 694.54 718.833 685.873 718.5C677.54 717.833 670.373 717.5 664.373 717.5C653.706 717.5 642.873 717.833 631.873 718.5C621.206 719.167 610.373 720.167 599.373 721.5C594.706 731.167 589.54 742.667 583.873 756C578.206 769 572.54 782.667 566.873 797C561.54 811.333 556.373 825.667 551.373 840C546.373 854 542.04 866.667 538.373 878C531.04 900 524.54 920.333 518.873 939C513.54 957.667 508.706 975.167 504.373 991.5C500.373 1007.5 496.873 1022.83 493.873 1037.5C490.873 1052.17 488.206 1066.5 485.873 1080.5C463.54 1077.17 444.873 1063.17 429.873 1038.5C432.54 1028.17 435.706 1017 439.373 1005C443.373 992.667 447.873 978.833 452.873 963.5C458.206 947.833 464.373 930.167 471.373 910.5C478.373 890.833 486.373 868.5 495.373 843.5C498.706 834.167 502.206 824.5 505.873 814.5C509.54 804.167 513.04 794 516.373 784C520.04 774 523.206 764.333 525.873 755C528.873 745.667 531.373 737.167 533.373 729.5C519.373 731.167 506.04 732.667 493.373 734C481.04 735 470.04 735.5 460.373 735.5ZM999.818 763C999.818 783.667 994.152 802.167 982.818 818.5C971.485 834.5 955.985 847.833 936.318 858.5C948.985 867.167 958.985 877.833 966.318 890.5C973.985 902.833 977.818 916.5 977.818 931.5C977.818 949.5 972.318 967.333 961.318 985C950.652 1002.33 936.318 1017.83 918.318 1031.5C900.318 1044.83 879.818 1055.67 856.818 1064C833.818 1072.33 810.318 1076.5 786.318 1076.5C760.318 1076.5 737.485 1071.5 717.818 1061.5C698.485 1051.83 683.318 1038 672.318 1020C675.652 1010 679.985 997.667 685.318 983C690.985 968 697.152 952.333 703.818 936C710.485 919.333 717.152 902.833 723.818 886.5C730.818 870.167 737.318 855.5 743.318 842.5C755.985 814.167 767.318 790.667 777.318 772C787.318 753.333 796.485 738.5 804.818 727.5C786.485 733.167 769.818 739.667 754.818 747C739.818 754 728.818 760.833 721.818 767.5C718.818 765.5 715.652 762.5 712.318 758.5C709.318 754.5 706.318 750.167 703.318 745.5C700.652 740.5 698.318 735.5 696.318 730.5C694.652 725.5 693.652 721 693.318 717C701.985 711 713.152 705.333 726.818 700C740.818 694.333 755.985 689.5 772.318 685.5C788.652 681.5 805.318 678.333 822.318 676C839.652 673.667 856.152 672.5 871.818 672.5C911.818 672.5 943.152 680.5 965.818 696.5C988.485 712.5 999.818 734.667 999.818 763ZM809.318 882.5C802.985 879.5 797.152 875 791.818 869C784.152 886 776.818 902.667 769.818 919C763.152 935.333 757.152 950.5 751.818 964.5C746.485 978.5 742.152 990.667 738.818 1001C735.485 1011.33 733.652 1018.83 733.318 1023.5C737.985 1026.17 743.485 1028.17 749.818 1029.5C756.485 1030.83 764.652 1031.5 774.318 1031.5C796.985 1031.5 818.652 1028.33 839.318 1022C859.985 1015.67 878.152 1007.17 893.818 996.5C909.485 985.5 921.985 973 931.318 959C940.652 945 945.318 930.333 945.318 915C945.318 893 935.818 877.167 916.818 867.5C890.818 878.167 861.485 883.5 828.818 883.5C824.152 883.5 820.485 883.5 817.818 883.5C815.485 883.5 812.652 883.167 809.318 882.5ZM906.318 709C899.318 709 891.818 709.5 883.818 710.5C876.152 711.167 867.985 712.333 859.318 714C860.652 715.333 861.652 716.833 862.318 718.5C863.318 719.833 864.152 721.333 864.818 723C861.818 727 858.152 732.833 853.818 740.5C849.485 748.167 844.652 757.167 839.318 767.5C833.985 777.5 828.318 788.667 822.318 801C816.652 813.333 810.818 826 804.818 839C810.485 837.667 817.318 836.667 825.318 836C833.652 835 841.818 834.5 849.818 834.5C854.152 834.5 858.318 834.667 862.318 835C866.652 835.333 870.818 835.833 874.818 836.5C890.818 833.833 905.152 830 917.818 825C930.818 819.667 941.985 813.667 951.318 807C960.652 800 967.818 792.333 972.818 784C977.818 775.667 980.318 766.833 980.318 757.5C980.318 741.5 973.985 729.5 961.318 721.5C948.652 713.167 930.318 709 906.318 709ZM1048.19 1012.5C1053.19 1001.5 1059.19 987.333 1066.19 970C1073.19 952.667 1080.53 934 1088.19 914C1095.86 893.667 1103.69 873 1111.69 852C1119.69 830.667 1127.19 810.5 1134.19 791.5C1141.19 772.5 1147.19 755.5 1152.19 740.5C1157.53 725.5 1161.36 714 1163.69 706C1142.69 714.667 1124.69 727.833 1109.69 745.5C1094.69 763.167 1083.36 785.333 1075.69 812C1068.03 809.333 1061.03 804.667 1054.69 798C1048.36 791 1044.19 782.333 1042.19 772C1045.53 756.667 1051.69 742.667 1060.69 730C1070.03 717.333 1081.69 706.5 1095.69 697.5C1109.69 688.5 1125.86 681.667 1144.19 677C1162.53 672 1182.19 669.5 1203.19 669.5C1229.86 669.5 1254.36 673.5 1276.69 681.5C1299.03 689.167 1318.19 700 1334.19 714C1350.19 728 1362.69 744.833 1371.69 764.5C1380.69 784.167 1385.19 806 1385.19 830C1385.19 862.667 1379.19 893.833 1367.19 923.5C1355.19 953.167 1338.86 979.333 1318.19 1002C1297.86 1024.67 1274.19 1042.67 1247.19 1056C1220.19 1069.67 1191.86 1076.5 1162.19 1076.5C1134.86 1076.5 1111.36 1071 1091.69 1060C1072.36 1049.33 1057.86 1033.5 1048.19 1012.5ZM1224.69 694.5C1208.03 694.5 1192.19 696.833 1177.19 701.5C1191.86 706.833 1204.03 712.5 1213.69 718.5C1223.36 724.167 1230.03 728.667 1233.69 732C1231.03 735.667 1227.03 742.167 1221.69 751.5C1216.69 760.833 1210.69 772.167 1203.69 785.5C1197.03 798.833 1189.86 813.5 1182.19 829.5C1174.53 845.167 1167.03 861.333 1159.69 878C1140.69 920.333 1126.86 953.667 1118.19 978C1109.86 1002.33 1105.69 1019.17 1105.69 1028.5C1110.36 1030.17 1116.03 1031.33 1122.69 1032C1129.36 1032.67 1136.53 1033 1144.19 1033C1171.19 1033 1196.69 1026.83 1220.69 1014.5C1245.03 1001.83 1266.19 985 1284.19 964C1302.53 943 1316.86 918.667 1327.19 891C1337.86 863 1343.19 833.667 1343.19 803C1343.19 768.667 1332.53 742 1311.19 723C1289.86 704 1261.03 694.5 1224.69 694.5Z" fill="black"/>
    <defs>
    <linearGradient id="paint0_linear_36_18" x1="547" y1="1.1266e-05" x2="1469.5" y2="1719" gradientUnits="userSpaceOnUse">
    <stop stop-color="#EEB674"/>
    <stop offset="1" stop-color="#C79860"/>
    </linearGradient>
    </defs>
    </svg>
    