<svg width="188" height="92" viewBox="0 0 188 92" fill="none" xmlns="http://www.w3.org/2000/svg">
<path d="M186.39 63.6586H2C2 63.6586 10.3042 76.7894 18.6117 76.7276C24.414 76.6843 31.9011 70.1931 31.9011 70.1931C31.9011 70.1931 39.397 77.0441 45.1905 76.7276C50.4127 76.4422 56.8187 70.1931 56.8187 70.1931C56.8187 70.1931 64.3057 76.7276 70.1081 76.7276C75.9105 76.7276 83.3975 70.1931 83.3975 70.1931C83.3975 70.1931 89.8035 76.4422 95.0257 76.7276C100.819 77.0441 108.315 70.1931 108.315 70.1931C108.315 70.1931 114.721 76.4422 119.943 76.7276C125.737 77.0441 133.233 70.1931 133.233 70.1931C133.233 70.1931 138.589 75.9502 143.2 76.7276C149.497 77.7892 158.15 70.1931 158.15 70.1931C158.15 70.1931 165.64 76.9096 171.44 76.7276C179.247 76.4825 186.39 63.6586 186.39 63.6586Z" fill="#7D5034" stroke="#7D5034" stroke-width="2.19512" stroke-linecap="round" stroke-linejoin="round"/>
<path d="M78.6976 65.9749L58.5061 50.106C56.8235 54.8668 51.7756 61.2145 51.7756 62.8012C49.5605 63.3623 45.9023 62.8012 45.9023 62.8012C45.9023 62.8012 50.093 46.9324 53.4582 37.4109C60.1887 35.8242 90.476 54.8667 90.476 54.8667C95.5238 62.8011 87.1107 72.3224 78.6976 65.9749Z" fill="#C68443" stroke="#7D5034" stroke-width="1.64634" stroke-linejoin="round"/>
<path d="M153.332 68.0219L133.14 51.0195C131.458 56.1204 126.41 61.9584 126.41 63.6585C124.195 64.2597 120.537 63.6585 120.537 63.6585C120.537 63.6585 124.727 47.6192 128.093 37.4177C134.823 35.7175 165.11 56.1202 165.11 56.1202C170.158 64.6214 161.745 74.8228 153.332 68.0219Z" fill="#C68443" stroke="#7D5034" stroke-width="1.64634" stroke-linejoin="round"/>
<path d="M12.9756 37.317L87.6097 89.9999" stroke="#3C2415" stroke-width="2.19512" stroke-linecap="round" stroke-linejoin="round"/>
<path d="M87.6099 37.317L160.049 89.9999" stroke="#3C2415" stroke-width="2.19512" stroke-linecap="round" stroke-linejoin="round"/>
<path d="M142.323 31.2383C148.638 29.7186 148.638 17.561 140.744 17.561C140.744 17.561 90.2256 31.2383 88.6469 32.758C87.0681 34.2777 87.0681 37.3171 90.2256 37.3171C93.383 37.3171 142.323 31.2383 142.323 31.2383Z" fill="#C68443" stroke="#7D5034" stroke-width="1.64634" stroke-linejoin="round"/>
<path d="M69.715 31.2383C76.2637 29.7186 76.2637 17.561 68.0779 17.561C68.0779 17.561 15.6882 31.2383 14.051 32.758C12.4138 34.2777 12.4138 37.3171 15.6882 37.3171C18.9625 37.3171 69.715 31.2383 69.715 31.2383Z" fill="#C68443" stroke="#7D5034" stroke-width="1.64634" stroke-linejoin="round"/>
<circle cx="52.488" cy="8.78049" r="7.95732" fill="#C68443" stroke="#7D5034" stroke-width="1.64634"/>
<circle cx="124.927" cy="8.78049" r="7.95732" fill="#C68443" stroke="#7D5034" stroke-width="1.64634"/>
</svg>
