<svg width="207" height="138" viewBox="0 0 207 138" fill="none" xmlns="http://www.w3.org/2000/svg">
<path d="M48.9709 10.4022C48.9709 13.3174 46.622 15.6793 43.7261 15.6793C40.8301 15.6793 38.4812 13.3174 38.4812 10.4022C38.4812 7.48696 40.8301 5.125 43.7261 5.125C46.622 5.125 48.9709 7.48696 48.9709 10.4022Z" fill="#9D6832" stroke="#C68443" stroke-width="0.25"/>
<line x1="43.5686" y1="5" x2="43.5686" y2="15.2357" stroke="#C68443" stroke-width="0.25"/>
<line x1="45.2642" y1="5.56856" x2="45.2642" y2="15.2356" stroke="#C68443" stroke-width="0.25"/>
<line x1="46.96" y1="6.70587" x2="46.96" y2="14.0983" stroke="#C68443" stroke-width="0.25"/>
<line x1="41.8728" y1="5.56856" x2="41.8728" y2="15.2356" stroke="#C68443" stroke-width="0.25"/>
<line x1="40.177" y1="6.70587" x2="40.177" y2="14.0983" stroke="#C68443" stroke-width="0.25"/>
<line x1="38.3562" y1="10.5661" x2="48.5307" y2="10.5661" stroke="#C68443" stroke-width="0.25"/>
<line x1="38.8896" y1="8.8553" x2="48.4989" y2="8.8553" stroke="#C68443" stroke-width="0.25"/>
<line x1="39.9883" y1="7.14954" x2="47.3365" y2="7.14954" stroke="#C68443" stroke-width="0.25"/>
<line x1="38.9531" y1="12.2666" x2="48.5624" y2="12.2666" stroke="#C68443" stroke-width="0.25"/>
<line x1="40.1155" y1="13.9722" x2="47.4637" y2="13.9722" stroke="#C68443" stroke-width="0.25"/>
<rect width="2.83752" height="2.83199" transform="matrix(0.578576 0.815629 -0.812333 0.583194 44.0481 8.41187)" fill="#F1AF49"/>
<path d="M36.6737 46.1661L32.04 44.7677C31.228 44.5226 30.3497 44.8163 29.8486 45.5006L20.843 57.7959C20.3124 58.5205 19.3638 58.8024 18.5236 58.4854L2.61109 52.4823C1.98108 52.2447 1.27044 52.4742 0.898478 53.0355C0.420555 53.7567 0.680133 54.7334 1.45304 55.1222L20.2628 64.5837C20.9969 64.9529 21.8821 64.8356 22.4947 64.2878L28.2086 59.1782C28.3237 59.0753 28.4609 58.9878 28.6152 58.9869C29.5673 58.9816 29.4504 60.9623 29.2387 63.9433C29.1844 64.7084 28.6986 65.3776 27.987 65.664L7.06427 74.0834C6.56438 74.2845 6.34203 74.8691 6.58186 75.3516C6.77109 75.7324 7.19577 75.9348 7.61072 75.842L33.2042 70.1204C33.9998 69.9425 34.6078 69.2996 34.741 68.4954L38.0689 48.4077C38.2332 47.4161 37.636 46.4566 36.6737 46.1661Z" fill="#C68443" stroke="#9D6832"/>
<path d="M55.2038 15.0966L40.88 30.1331C39.5718 31.5064 37.3357 31.3455 36.2377 29.799C35.2848 28.4568 35.5841 26.5985 36.9103 25.6235L53.6423 13.3227C54.1155 12.9748 54.7721 13.0256 55.1862 13.4422C55.6392 13.8979 55.647 14.6314 55.2038 15.0966Z" fill="#C68443" stroke="#9D6832"/>
<path d="M21.3177 20.8868C20.8875 20.0976 20.4598 19.8558 19.4902 20.2838C19.2851 20.3743 19.1278 20.5458 19.0355 20.7501L11.5822 37.246C11.5323 37.3564 11.5024 37.4751 11.497 37.5962C11.413 39.4735 11.9229 40.1276 13.673 40.4743C13.7621 40.4919 13.854 40.4958 13.9445 40.4875L30.0943 39.0105C30.4584 38.9772 30.7781 38.7472 30.9138 38.4077C32.1889 35.2165 31.8551 33.4222 29.5632 30.9066C29.3141 30.6332 28.9284 30.5312 28.5729 30.6334L20.0753 33.0759C19.3355 33.2886 18.6429 32.6207 18.8285 31.8737L21.393 21.5539C21.4489 21.3293 21.4284 21.09 21.3177 20.8868Z" fill="#C68443" stroke="#9D6832"/>
<path d="M33.3784 23.5217C33.3784 26.3003 31.14 28.5489 28.3835 28.5489C25.6271 28.5489 23.3887 26.3003 23.3887 23.5217C23.3887 20.7432 25.6271 18.4946 28.3835 18.4946C31.14 18.4946 33.3784 20.7432 33.3784 23.5217Z" fill="#C68443" stroke="#9D6832" stroke-width="0.75"/>
<path d="M174.498 89.9685L185.945 78.9366C186.562 78.3421 187.489 78.2065 188.25 78.5996L191.118 80.08C191.783 80.4233 192.2 81.1089 192.2 81.8572V94.2449C192.2 94.7445 192.387 95.2261 192.724 95.5947L205.753 109.839C206.412 110.56 206.283 111.696 205.479 112.249C204.845 112.685 203.992 112.612 203.442 112.074L188.2 97.1648C187.969 96.938 187.795 96.6582 187.696 96.3495L186.036 91.2071C185.632 89.9564 184.152 89.4284 183.048 90.1411L179.093 92.6933C178.574 93.028 178.239 93.5834 178.185 94.1983L176.673 111.375C176.592 112.295 175.822 113 174.899 113C173.888 113 173.08 112.16 173.119 111.15L173.887 91.3312C173.907 90.8152 174.126 90.3269 174.498 89.9685Z" fill="#C68443" stroke="#9D6832"/>
<path d="M158.56 82.3814L180.207 64.8394C180.949 64.2383 182.03 64.2242 182.696 64.9037C184.07 66.305 184.654 67.6732 184.716 69.9857C184.734 70.6811 184.339 71.3167 183.732 71.6609L160.313 84.9479C159.556 85.3772 158.596 85.1092 158.175 84.3513C157.808 83.6899 157.971 82.8593 158.56 82.3814Z" fill="#C68443" stroke="#9D6832"/>
<path d="M176.962 61.905C176.337 64.2205 173.938 65.5984 171.6 64.9764C169.262 64.3545 167.879 61.9705 168.504 59.6549C169.129 57.3394 171.528 55.9616 173.865 56.5835C176.203 57.2054 177.587 59.5895 176.962 61.905Z" fill="#C68443" stroke="#9D6832" stroke-width="0.75"/>
<path d="M65 50V83" stroke="white" stroke-width="0.5"/>
<path d="M73 45V78" stroke="white" stroke-width="0.5"/>
<path d="M81 40V73" stroke="white" stroke-width="0.5"/>
<path d="M89 35V68" stroke="white" stroke-width="0.5"/>
<path d="M97 30V63" stroke="white" stroke-width="0.5"/>
<path d="M105 25V58" stroke="white" stroke-width="0.5"/>
<path d="M113 20V53" stroke="white" stroke-width="0.5"/>
<path d="M121 15V48" stroke="white" stroke-width="0.5"/>
<path d="M129 10V43" stroke="white" stroke-width="0.5"/>
<path d="M137 5V38" stroke="white" stroke-width="0.5"/>
<path d="M56 63L144.5 8" stroke="white" stroke-width="0.5"/>
<path d="M56 72L144.5 17" stroke="white" stroke-width="0.5"/>
<path d="M56 81L144.5 26" stroke="white" stroke-width="0.5"/>
<path d="M56.5 87.5963V55.7766L144 0.903747V32.7234L56.5 87.5963Z" fill="#F6FCFF" fill-opacity="0.5" stroke="#D3D3D3"/>
<rect x="54" y="55" width="2" height="83" fill="#D9D9D9"/>
<rect x="144" width="2" height="83" fill="#D9D9D9"/>
</svg>
