<svg width="125" height="132" viewBox="0 0 125 132" fill="none" xmlns="http://www.w3.org/2000/svg">
<path d="M3.22461 131.951V125.627H121.807V131.951H3.22461Z" fill="#3C2415"/>
<path d="M87.6273 43.1592C94.5577 41.1928 110.511 1.04871 105.243 1.04871C103.59 1.04871 82.4139 29.9717 80.177 35.7089C78.4695 40.0886 83.1371 44.4331 87.6273 43.1592Z" fill="#C68443" stroke="#9D6832" stroke-width="1.5"/>
<path d="M67.8362 57.5095L63.4404 48.0419C63.3027 47.7453 62.8868 47.7303 62.728 48.0161L46.373 77.455L48.7905 80.0585L67.7769 57.9385C67.879 57.8195 67.9022 57.6518 67.8362 57.5095Z" fill="#C68443" stroke="#9D6832" stroke-width="1.5"/>
<path d="M59.7141 71.5338L66.4869 62.6998C66.3887 63.8777 66.693 66.2334 68.6954 66.2334C71.1983 66.2334 72.8875 58.43 77.0101 58.7245C81.1326 59.019 80.7202 59.2531 82.1533 61.3991C84.0917 64.3018 80.4852 83.9181 74.5079 85.9628C69.5898 87.6451 67.223 83.0181 65.7507 81.3985C64.5728 80.1029 61.2355 83.9015 59.7141 85.9628C71.5909 95.2876 96.2294 112.731 93.7251 116.146C90.837 120.084 54.4426 107.858 38.218 95.2385C26.292 85.9628 18.7831 79.4844 13.3354 74.3313C10.7834 75.8527 5.56144 78.6305 5.0903 77.5704C4.61915 76.5103 8.03499 71.5338 9.8018 69.1781C7.5933 66.577 2.88184 61.5328 2.88184 58.7245C2.88183 55.9161 4.0597 55.4853 6.26821 55.3381C11.7734 54.9711 22.2185 62.5526 29.0895 66.2334C37.5799 61.1293 54.8259 51.1567 55.886 52.099C57.2111 53.2768 52.4996 62.4053 50.1439 63.7304C48.2593 64.7905 38.5784 68.9876 34.7012 70.3618C39.2899 73.7538 54.4137 82.5764 54.4137 82.5764C56.524 81.104 60.7742 77.7765 60.892 76.2453C61.0098 74.7141 60.1558 72.4663 59.7141 71.5338Z" fill="#C68443"/>
<path d="M59.7141 85.9628C61.2355 83.9015 64.5728 80.1029 65.7507 81.3985C67.223 83.0181 69.5898 87.6451 74.5079 85.9628C80.4852 83.9181 84.0917 64.3018 82.1533 61.3991C80.7202 59.2531 81.1326 59.019 77.0101 58.7245C72.8875 58.43 71.1983 66.2334 68.6953 66.2334C66.693 66.2334 66.3887 63.8777 66.4869 62.6998L59.7141 71.5338C60.1558 72.4663 61.0098 74.7141 60.892 76.2453C60.7742 77.7765 56.524 81.104 54.4137 82.5764M59.7141 85.9628C71.5909 95.2876 96.2294 112.731 93.7251 116.146C90.837 120.084 54.4426 107.858 38.218 95.2385C26.292 85.9628 18.7831 79.4844 13.3354 74.3313C10.7834 75.8527 5.56144 78.6305 5.09029 77.5704C4.61915 76.5103 8.03499 71.5338 9.8018 69.1781C7.5933 66.577 2.88184 61.5328 2.88184 58.7245C2.88183 55.9161 4.0597 55.4853 6.26821 55.3381C11.7734 54.9711 22.2185 62.5526 29.0895 66.2334M59.7141 85.9628L54.4137 82.5764M29.0895 66.2334C37.5799 61.1293 54.8259 51.1567 55.886 52.099C57.2111 53.2768 52.4996 62.4053 50.1439 63.7304C48.2593 64.7905 38.5784 68.9876 34.7012 70.3618M29.0895 66.2334C29.0895 66.2334 32.2535 68.5523 34.7012 70.3618M34.7012 70.3618C39.2899 73.7538 54.4137 82.5764 54.4137 82.5764" stroke="#9D6832" stroke-width="1.5"/>
<circle cx="69.1534" cy="37.0083" r="6.96737" fill="#C68443" stroke="#9D6832" stroke-width="1.5"/>
<path d="M11.049 121.678C11.2107 121.577 11.4154 121.577 11.5771 121.678L20.5013 127.228C20.9283 127.493 20.7401 128.152 20.2372 128.152H2.38887C1.88594 128.152 1.69774 127.493 2.12481 127.228L11.049 121.678Z" fill="#3C2415"/>
<path d="M24.8547 121.678C25.0163 121.577 25.2211 121.577 25.3828 121.678L34.3069 127.228C34.734 127.493 34.5458 128.152 34.0429 128.152H16.1945C15.6916 128.152 15.5034 127.493 15.9305 127.228L24.8547 121.678Z" fill="#3C2415"/>
<path d="M39.3395 121.678C39.5012 121.577 39.7059 121.577 39.8676 121.678L48.7918 127.228C49.2189 127.493 49.0307 128.152 48.5277 128.152H30.6794C30.1765 128.152 29.9883 127.493 30.4153 127.228L39.3395 121.678Z" fill="#3C2415"/>
<path d="M54.5788 121.678C54.7405 121.577 54.9452 121.577 55.1069 121.678L64.0311 127.228C64.4581 127.493 64.2699 128.152 63.767 128.152H45.9187C45.4157 128.152 45.2275 127.493 45.6546 127.228L54.5788 121.678Z" fill="#3C2415"/>
<path d="M69.4406 121.678C69.6023 121.577 69.807 121.577 69.9687 121.678L78.8929 127.228C79.3199 127.493 79.1317 128.152 78.6288 128.152H60.7805C60.2775 128.152 60.0893 127.493 60.5164 127.228L69.4406 121.678Z" fill="#3C2415"/>
<path d="M83.9255 121.678C84.0871 121.577 84.2919 121.577 84.4536 121.678L93.3777 127.228C93.8048 127.493 93.6166 128.152 93.1137 128.152H75.2653C74.7624 128.152 74.5742 127.493 75.0013 127.228L83.9255 121.678Z" fill="#3C2415"/>
<path d="M99.1647 121.678C99.3264 121.577 99.5311 121.577 99.6928 121.678L108.617 127.228C109.044 127.493 108.856 128.152 108.353 128.152H90.5046C90.0017 128.152 89.8135 127.493 90.2405 127.228L99.1647 121.678Z" fill="#3C2415"/>
<path d="M113.423 121.678C113.584 121.577 113.789 121.577 113.951 121.678L122.875 127.228C123.302 127.493 123.114 128.152 122.611 128.152H104.762C104.259 128.152 104.071 127.493 104.498 127.228L113.423 121.678Z" fill="#3C2415"/>
</svg>
