<svg width="49" height="52" viewBox="0 0 49 52" fill="none" xmlns="http://www.w3.org/2000/svg">
    <path d="M1.19104 51.9699V49.4841H47.7999V51.9699H1.19104Z" fill="#3C2415"/>
    <path d="M34.3661 17.0702C37.0901 16.2974 43.3604 0.518738 41.2898 0.518738C40.6402 0.518738 32.3169 11.8869 31.4378 14.1419C30.7666 15.8633 32.6012 17.571 34.3661 17.0702Z" fill="#C68443" stroke="#9D6832"/>
    <path d="M26.5211 22.569L25.06 19.422C24.9223 19.1255 24.5063 19.1104 24.3475 19.3962L18.1508 30.5503L19.101 31.5736L26.4618 22.9979C26.5639 22.8789 26.5871 22.7112 26.5211 22.569Z" fill="#C68443" stroke="#9D6832"/>
    <path d="M23.3944 28.2228L26.0564 24.7506C26.0179 25.2136 26.1375 26.1395 26.9245 26.1395C27.9083 26.1395 28.5722 23.0724 30.1926 23.1881C31.8129 23.3039 31.6509 23.3959 32.2141 24.2394C32.976 25.3803 31.5585 33.0905 29.2091 33.8941C27.2761 34.5553 26.3458 32.7367 25.7671 32.1001C25.3041 31.5909 23.9924 33.0839 23.3944 33.8941C28.0626 37.5592 37.7467 44.4153 36.7624 45.7575C35.6273 47.3054 21.3224 42.4998 14.9454 37.5399C10.2579 33.8941 7.3065 31.3478 5.1653 29.3224C4.16221 29.9203 2.10974 31.0122 1.92455 30.5955C1.73937 30.1788 3.08196 28.2228 3.77641 27.2969C2.90836 26.2745 1.05652 24.2919 1.05652 23.1881C1.05652 22.0843 1.51948 21.915 2.38753 21.8571C4.55135 21.7128 8.6568 24.6927 11.3574 26.1395C14.6946 24.1333 21.4731 20.2136 21.8898 20.584C22.4106 21.0469 20.5588 24.6349 19.6329 25.1557C18.8921 25.5724 15.087 27.222 13.5631 27.7621C15.3667 29.0954 21.3111 32.5631 21.3111 32.5631C22.1406 31.9844 23.8111 30.6765 23.8574 30.0747C23.9037 29.4728 23.568 28.5893 23.3944 28.2228Z" fill="#C68443"/>
    <path d="M23.3944 33.8941C23.9924 33.0839 25.3041 31.5909 25.7671 32.1001C26.3458 32.7367 27.2761 34.5553 29.2091 33.8941C31.5585 33.0905 32.976 25.3803 32.2141 24.2394C31.6509 23.3959 31.8129 23.3039 30.1926 23.1881C28.5722 23.0724 27.9083 26.1395 26.9245 26.1395C26.1375 26.1395 26.0179 25.2136 26.0564 24.7506L23.3944 28.2228C23.568 28.5893 23.9037 29.4728 23.8574 30.0747C23.8111 30.6765 22.1406 31.9844 21.3111 32.5631M23.3944 33.8941C28.0626 37.5592 37.7467 44.4153 36.7624 45.7575C35.6273 47.3054 21.3224 42.4998 14.9454 37.5399C10.2579 33.8941 7.3065 31.3478 5.1653 29.3224C4.16221 29.9203 2.10974 31.0122 1.92455 30.5955C1.73937 30.1788 3.08196 28.2228 3.77641 27.2969C2.90836 26.2745 1.05652 24.2919 1.05652 23.1881C1.05652 22.0843 1.51948 21.915 2.38753 21.8571C4.55135 21.7128 8.6568 24.6927 11.3574 26.1395M23.3944 33.8941L21.3111 32.5631M11.3574 26.1395C14.6946 24.1333 21.4731 20.2136 21.8898 20.584C22.4106 21.0469 20.5588 24.6349 19.6329 25.1557C18.8921 25.5724 15.087 27.222 13.5631 27.7621M11.3574 26.1395C11.3574 26.1395 12.601 27.0509 13.5631 27.7621M13.5631 27.7621C15.3667 29.0954 21.3111 32.5631 21.3111 32.5631" stroke="#9D6832"/>
    <circle cx="27.1046" cy="14.6527" r="2.53331" fill="#C68443" stroke="#9D6832"/>
    <path d="M4.10631 48.0317C4.26799 47.9311 4.47275 47.9311 4.63443 48.0317L7.07946 49.5522C7.50653 49.8179 7.31833 50.4768 6.8154 50.4768H1.92534C1.42241 50.4768 1.23421 49.8179 1.66128 49.5522L4.10631 48.0317Z" fill="#3C2415"/>
    <path d="M9.53265 48.0317C9.69432 47.9311 9.89908 47.9311 10.0608 48.0317L12.5058 49.5522C12.9329 49.8179 12.7447 50.4768 12.2417 50.4768H7.35167C6.84874 50.4768 6.66054 49.8179 7.08761 49.5522L9.53265 48.0317Z" fill="#3C2415"/>
    <path d="M15.2259 48.0317C15.3876 47.9311 15.5923 47.9311 15.754 48.0317L18.199 49.5522C18.6261 49.8179 18.4379 50.4768 17.935 50.4768H13.0449C12.542 50.4768 12.3538 49.8179 12.7809 49.5522L15.2259 48.0317Z" fill="#3C2415"/>
    <path d="M21.2156 48.0317C21.3772 47.9311 21.582 47.9311 21.7437 48.0317L24.1887 49.5522C24.6158 49.8179 24.4276 50.4768 23.9247 50.4768H19.0346C18.5317 50.4768 18.3435 49.8179 18.7705 49.5522L21.2156 48.0317Z" fill="#3C2415"/>
    <path d="M27.0571 48.0317C27.2187 47.9311 27.4235 47.9311 27.5852 48.0317L30.0302 49.5522C30.4573 49.8179 30.2691 50.4768 29.7661 50.4768H24.8761C24.3732 50.4768 24.185 49.8179 24.612 49.5522L27.0571 48.0317Z" fill="#3C2415"/>
    <path d="M32.7502 48.0317C32.9119 47.9311 33.1167 47.9311 33.2783 48.0317L35.7234 49.5522C36.1505 49.8179 35.9622 50.4768 35.4593 50.4768H30.5693C30.0663 50.4768 29.8781 49.8179 30.3052 49.5522L32.7502 48.0317Z" fill="#3C2415"/>
    <path d="M38.7399 48.0317C38.9016 47.9311 39.1064 47.9311 39.268 48.0317L41.7131 49.5522C42.1401 49.8179 41.9519 50.4768 41.449 50.4768H36.5589C36.056 50.4768 35.8678 49.8179 36.2949 49.5522L38.7399 48.0317Z" fill="#3C2415"/>
    <path d="M44.3442 48.0317C44.5058 47.9311 44.7106 47.9311 44.8723 48.0317L47.3173 49.5522C47.7444 49.8179 47.5562 50.4768 47.0533 50.4768H42.1632C41.6603 50.4768 41.4721 49.8179 41.8991 49.5522L44.3442 48.0317Z" fill="#3C2415"/>
    </svg>
    