<svg width="158" height="56" viewBox="0 0 158 56" fill="none" xmlns="http://www.w3.org/2000/svg">
<path d="M80.7027 49.7838L2 48.3784C20.2703 35.7297 51.1892 28.7027 70.8649 28.7027L63.8378 16.0541C63.8378 16.0541 35.7297 27.2973 31.5135 28.7027C27.2973 30.1081 24.4865 24.4865 28.7027 21.6757C32.9189 18.8649 68.0541 2 68.0541 2C68.0541 2 91.9459 28.7027 91.9459 35.7297C91.9459 42.7568 80.7027 49.7838 80.7027 49.7838Z" fill="#C68443" stroke="#7D5034" stroke-width="2.81081" stroke-linecap="round" stroke-linejoin="round"/>
<circle cx="107.405" cy="31.5135" r="11.5946" fill="#C68443" stroke="#7D5034" stroke-width="2.10811"/>
<path d="M125.676 45.5676V39.3679C125.676 37.5274 127.415 36.1835 129.196 36.6481L152.36 42.6909C154.637 43.285 155.22 46.2473 153.337 47.6593L153.128 47.8162C152.641 48.1811 152.05 48.3784 151.442 48.3784H128.487C126.934 48.3784 125.676 47.1199 125.676 45.5676Z" fill="#C68443" stroke="#7D5034" stroke-width="2.81081"/>
<path d="M156.595 55.4054H2.00003V47.3745C7.04111 47.3745 10.4019 41.3514 10.4019 41.3514C10.4019 41.3514 16.0821 47.3745 20.4842 47.3745C24.8863 47.3745 30.5664 41.3514 30.5664 41.3514C30.5664 41.3514 35.1531 47.0239 38.9683 47.3745C43.3574 47.7779 49.0505 41.3514 49.0505 41.3514C49.0505 41.3514 53.6611 46.7568 57.4524 47.3745C62.4043 48.1813 69.2151 41.3514 69.2151 41.3514C69.2151 41.3514 73.8018 47.0239 77.6169 47.3745C82.0061 47.7779 87.6992 41.3514 87.6992 41.3514C87.6992 41.3514 93.3793 47.3745 97.7814 47.3745C102.184 47.3745 107.864 41.3514 107.864 41.3514C107.864 41.3514 113.544 47.3745 117.946 47.3745C122.348 47.3745 128.028 41.3514 128.028 41.3514C128.028 41.3514 132.615 47.0239 136.43 47.3745C140.819 47.7779 146.512 41.3514 146.512 41.3514C146.512 41.3514 151.553 47.3745 156.595 47.3745V55.4054Z" fill="#3C2415" stroke="#805235" stroke-width="0.702703" stroke-linejoin="round"/>
</svg>
