<svg width="146" height="103" viewBox="0 0 146 103" fill="none" xmlns="http://www.w3.org/2000/svg">
<path d="M1.15066 76.596L2.5 68.5C4.3386 68.5 6.01939 69.5388 6.84164 71.1833L10.9721 79.4443C11.3193 80.1385 11.5 80.9041 11.5 81.6803V83.7958C11.5 84.581 11.2676 85.3486 10.8321 86.0019C9.56557 87.9016 6.96322 88.3474 5.13667 86.9775L4.02826 86.1462C3.04411 85.4081 2.36661 84.3331 2.12535 83.1268L1.17972 78.3986C1.0609 77.8045 1.05105 77.1937 1.15066 76.596Z" fill="#C68443"/>
<path d="M116.5 1L2.5 68.5M2.5 68.5L1.15066 76.596C1.05105 77.1937 1.0609 77.8045 1.17972 78.3986L2.12535 83.1268C2.36661 84.3331 3.04411 85.4081 4.02826 86.1462L5.13667 86.9775C6.96322 88.3474 9.56557 87.9016 10.8321 86.0019V86.0019C11.2676 85.3486 11.5 84.581 11.5 83.7958V81.6803C11.5 80.9041 11.3193 80.1385 10.9721 79.4443L6.84164 71.1833C6.01939 69.5388 4.3386 68.5 2.5 68.5V68.5Z" stroke="#9D6832"/>
<circle cx="80.5" cy="59.5" r="16" fill="#C68443" stroke="#9D6832"/>
<path d="M109 47.5V8.5L118.723 1.55525C119.158 1.24457 119.76 1.33087 120.09 1.75116L136 22L144.832 35.2481C144.942 35.4123 145 35.6054 145 35.8028V47.145C145 47.3746 144.921 47.5973 144.776 47.7756L127.276 69.314C126.682 70.0447 125.5 69.6249 125.5 68.6834V47.5L130 41.5L119.5 22V50.5L112 91L104.936 100.419C103.757 101.99 101.768 102.726 99.8509 102.3L93.4153 100.87C91.1277 100.362 89.5 98.3326 89.5 95.9891V88L109 47.5Z" fill="#C68443" stroke="#9D6832"/>
</svg>
