<svg width="37" height="49" viewBox="0 0 37 49" fill="none" xmlns="http://www.w3.org/2000/svg">
    <g clip-path="url(#clip0_875_1060)">
    <mask id="path-1-outside-1_875_1060" maskUnits="userSpaceOnUse" x="3.0658" y="1.82471" width="30" height="45" fill="black">
    <rect fill="white" x="3.0658" y="1.82471" width="30" height="45"/>
    <path d="M7.3458 9.88071C6.6738 10.0674 6.0578 9.95537 5.4978 9.5447C4.9378 9.13404 4.6578 8.57404 4.6578 7.86471C4.6578 7.04337 4.90046 6.31537 5.3858 5.6807C5.90846 5.00871 6.58046 4.59804 7.4018 4.44871C11.0605 3.73937 14.5325 3.38471 17.8178 3.38471C22.2231 3.38471 25.6018 4.26204 27.9538 6.01671C30.3431 7.73404 31.5378 10.03 31.5378 12.9047C31.5378 14.2114 31.3698 15.3874 31.0338 16.4327C30.6978 17.4407 30.1378 18.3554 29.3538 19.1767C28.6071 19.998 27.9538 20.6514 27.3938 21.1367C26.8338 21.5847 26.0125 22.182 24.9298 22.9287C23.7351 23.75 22.8391 24.4034 22.2418 24.8887C21.6818 25.3367 21.0471 26.0087 20.3378 26.9047C19.6285 27.7634 19.1245 28.6967 18.8258 29.7047C18.5645 30.5634 18.1165 31.2914 17.4818 31.8887C16.8471 32.486 16.1191 32.7847 15.2978 32.7847C14.4391 32.7847 13.7111 32.486 13.1138 31.8887C12.5538 31.254 12.3485 30.526 12.4978 29.7047C12.7218 28.5847 13.0765 27.5767 13.5618 26.6807C14.0471 25.7474 14.6818 24.9074 15.4658 24.1607C16.2498 23.3767 16.9031 22.7794 17.4258 22.3687C17.9858 21.9207 18.7698 21.342 19.7778 20.6327C21.0098 19.774 21.9245 19.102 22.5218 18.6167C23.1191 18.094 23.6978 17.3847 24.2578 16.4887C24.8178 15.5554 25.0978 14.5474 25.0978 13.4647C25.0978 10.1794 22.3911 8.53671 16.9778 8.53671C14.0285 8.53671 10.8178 8.98471 7.3458 9.88071ZM15.1298 37.5447H15.4658C16.3245 37.5447 17.0711 37.862 17.7058 38.4967C18.3405 39.1314 18.6578 39.878 18.6578 40.7367V41.6327C18.6578 42.4914 18.3405 43.238 17.7058 43.8727C17.0711 44.5074 16.3245 44.8247 15.4658 44.8247H15.1298C14.2711 44.8247 13.5245 44.5074 12.8898 43.8727C12.2551 43.238 11.9378 42.4914 11.9378 41.6327V40.7367C11.9378 39.878 12.2551 39.1314 12.8898 38.4967C13.5245 37.862 14.2711 37.5447 15.1298 37.5447Z"/>
    </mask>
    <path d="M7.3458 9.88071C6.6738 10.0674 6.0578 9.95537 5.4978 9.5447C4.9378 9.13404 4.6578 8.57404 4.6578 7.86471C4.6578 7.04337 4.90046 6.31537 5.3858 5.6807C5.90846 5.00871 6.58046 4.59804 7.4018 4.44871C11.0605 3.73937 14.5325 3.38471 17.8178 3.38471C22.2231 3.38471 25.6018 4.26204 27.9538 6.01671C30.3431 7.73404 31.5378 10.03 31.5378 12.9047C31.5378 14.2114 31.3698 15.3874 31.0338 16.4327C30.6978 17.4407 30.1378 18.3554 29.3538 19.1767C28.6071 19.998 27.9538 20.6514 27.3938 21.1367C26.8338 21.5847 26.0125 22.182 24.9298 22.9287C23.7351 23.75 22.8391 24.4034 22.2418 24.8887C21.6818 25.3367 21.0471 26.0087 20.3378 26.9047C19.6285 27.7634 19.1245 28.6967 18.8258 29.7047C18.5645 30.5634 18.1165 31.2914 17.4818 31.8887C16.8471 32.486 16.1191 32.7847 15.2978 32.7847C14.4391 32.7847 13.7111 32.486 13.1138 31.8887C12.5538 31.254 12.3485 30.526 12.4978 29.7047C12.7218 28.5847 13.0765 27.5767 13.5618 26.6807C14.0471 25.7474 14.6818 24.9074 15.4658 24.1607C16.2498 23.3767 16.9031 22.7794 17.4258 22.3687C17.9858 21.9207 18.7698 21.342 19.7778 20.6327C21.0098 19.774 21.9245 19.102 22.5218 18.6167C23.1191 18.094 23.6978 17.3847 24.2578 16.4887C24.8178 15.5554 25.0978 14.5474 25.0978 13.4647C25.0978 10.1794 22.3911 8.53671 16.9778 8.53671C14.0285 8.53671 10.8178 8.98471 7.3458 9.88071ZM15.1298 37.5447H15.4658C16.3245 37.5447 17.0711 37.862 17.7058 38.4967C18.3405 39.1314 18.6578 39.878 18.6578 40.7367V41.6327C18.6578 42.4914 18.3405 43.238 17.7058 43.8727C17.0711 44.5074 16.3245 44.8247 15.4658 44.8247H15.1298C14.2711 44.8247 13.5245 44.5074 12.8898 43.8727C12.2551 43.238 11.9378 42.4914 11.9378 41.6327V40.7367C11.9378 39.878 12.2551 39.1314 12.8898 38.4967C13.5245 37.862 14.2711 37.5447 15.1298 37.5447Z" fill="#C68443"/>
    <path d="M7.3458 9.88071L6.97098 8.42829L6.95762 8.43174L6.94433 8.43543L7.3458 9.88071ZM5.4978 9.5447L6.38484 8.3351L6.38484 8.3351L5.4978 9.5447ZM5.3858 5.6807L4.20173 4.75976L4.19426 4.76953L5.3858 5.6807ZM7.4018 4.44871L7.67013 5.92451L7.67872 5.92295L7.6873 5.92129L7.4018 4.44871ZM27.9538 6.01671L27.0569 7.21899L27.0675 7.22696L27.0783 7.23473L27.9538 6.01671ZM31.0338 16.4327L32.4568 16.907L32.4594 16.8994L32.4618 16.8917L31.0338 16.4327ZM29.3538 19.1767L28.2688 18.141L28.2562 18.1542L28.2439 18.1677L29.3538 19.1767ZM27.3938 21.1367L28.3308 22.308L28.3539 22.2896L28.3762 22.2702L27.3938 21.1367ZM24.9298 22.9287L25.7796 24.1648L25.7814 24.1635L24.9298 22.9287ZM22.2418 24.8887L23.1789 26.06L23.1877 26.0529L22.2418 24.8887ZM20.3378 26.9047L21.4942 27.86L21.5042 27.848L21.5139 27.8358L20.3378 26.9047ZM18.8258 29.7047L20.2608 30.1415L20.264 30.1308L18.8258 29.7047ZM17.4818 31.8887L18.5098 32.981L18.5098 32.981L17.4818 31.8887ZM13.1138 31.8887L11.989 32.8811L12.02 32.9163L12.0531 32.9494L13.1138 31.8887ZM12.4978 29.7047L11.0269 29.4105L11.0243 29.4234L11.022 29.4364L12.4978 29.7047ZM13.5618 26.6807L14.8807 27.3951L14.8868 27.384L14.8926 27.3727L13.5618 26.6807ZM15.4658 24.1607L16.5003 25.2469L16.5135 25.2343L16.5265 25.2214L15.4658 24.1607ZM17.4258 22.3687L18.3526 23.5482L18.3628 23.54L17.4258 22.3687ZM19.7778 20.6327L18.9201 19.4021L18.9146 19.406L19.7778 20.6327ZM22.5218 18.6167L23.4677 19.7809L23.4889 19.7636L23.5096 19.7456L22.5218 18.6167ZM24.2578 16.4887L25.5298 17.2837L25.537 17.2721L25.544 17.2604L24.2578 16.4887ZM17.7058 38.4967L18.7665 37.436L18.7665 37.436L17.7058 38.4967ZM17.7058 43.8727L18.7665 44.9334L18.7665 44.9334L17.7058 43.8727ZM12.8898 43.8727L13.9505 42.812L13.9505 42.812L12.8898 43.8727ZM12.8898 38.4967L13.9505 39.5574L13.9505 39.5574L12.8898 38.4967ZM6.94433 8.43543C6.71301 8.49968 6.57227 8.47254 6.38484 8.3351L4.61075 10.7543C5.54333 11.4382 6.63458 11.6351 7.74726 11.326L6.94433 8.43543ZM6.38484 8.3351C6.21982 8.21408 6.1578 8.10834 6.1578 7.86471H3.1578C3.1578 9.03974 3.65577 10.054 4.61075 10.7543L6.38484 8.3351ZM6.1578 7.86471C6.1578 7.36279 6.29802 6.95714 6.57733 6.59188L4.19426 4.76953C3.50291 5.6736 3.1578 6.72395 3.1578 7.86471H6.1578ZM6.56982 6.60162C6.87086 6.21457 7.21974 6.0064 7.67013 5.92451L7.13347 2.9729C5.94118 3.18968 4.94607 3.80284 4.20177 4.75979L6.56982 6.60162ZM7.6873 5.92129C11.2642 5.22781 14.6401 4.88471 17.8178 4.88471V1.88471C14.4249 1.88471 10.8567 2.25094 7.1163 2.97613L7.6873 5.92129ZM17.8178 4.88471C22.0537 4.88471 25.0648 5.73288 27.0569 7.21899L28.8507 4.81442C26.1388 2.7912 22.3925 1.88471 17.8178 1.88471V4.88471ZM27.0783 7.23473C29.0866 8.67813 30.0378 10.5263 30.0378 12.9047H33.0378C33.0378 9.53382 31.5997 6.78995 28.8293 4.79868L27.0783 7.23473ZM30.0378 12.9047C30.0378 14.0843 29.886 15.1018 29.6058 15.9737L32.4618 16.8917C32.8536 15.673 33.0378 14.3385 33.0378 12.9047H30.0378ZM29.6108 15.9584C29.3494 16.7424 28.9108 17.4684 28.2688 18.141L30.4388 20.2124C31.3648 19.2424 32.0462 18.139 32.4568 16.907L29.6108 15.9584ZM28.2439 18.1677C27.5196 18.9644 26.9103 19.5708 26.4114 20.0032L28.3762 22.2702C28.9973 21.7319 29.6946 21.0317 30.4637 20.1857L28.2439 18.1677ZM26.4568 19.9654C25.9384 20.3801 25.1514 20.9538 24.0782 21.6939L25.7814 24.1635C26.8735 23.4103 27.7292 22.7893 28.3308 22.308L26.4568 19.9654ZM24.08 21.6926C22.8757 22.5206 21.9404 23.2009 21.2959 23.7245L23.1877 26.0529C23.7378 25.6059 24.5946 24.9795 25.7796 24.1648L24.08 21.6926ZM21.3048 23.7174C20.6201 24.2652 19.9052 25.0345 19.1617 25.9737L21.5139 27.8358C22.1891 26.9829 22.7435 26.4082 23.1788 26.06L21.3048 23.7174ZM19.1814 25.9494C18.3512 26.9543 17.747 28.0657 17.3876 29.2786L20.264 30.1308C20.5019 29.3277 20.9057 28.5724 21.4942 27.86L19.1814 25.9494ZM17.3908 29.268C17.2032 29.8842 16.8921 30.3839 16.4537 30.7964L18.5098 32.981C19.3409 32.1989 19.9257 31.2426 20.2608 30.1414L17.3908 29.268ZM16.4538 30.7964C16.0786 31.1495 15.7121 31.2847 15.2978 31.2847V34.2847C16.5262 34.2847 17.6156 33.8226 18.5098 32.981L16.4538 30.7964ZM15.2978 31.2847C14.8296 31.2847 14.4853 31.1389 14.1745 30.828L12.0531 32.9494C12.9369 33.8332 14.0487 34.2847 15.2978 34.2847V31.2847ZM14.2386 30.8963C13.9775 30.6004 13.9077 30.3352 13.9736 29.973L11.022 29.4364C10.7892 30.7168 11.1301 31.9077 11.989 32.8811L14.2386 30.8963ZM13.9687 29.9989C14.1668 29.0083 14.4748 28.1446 14.8807 27.3951L12.2429 25.9663C11.6781 27.0088 11.2768 28.1612 11.0269 29.4105L13.9687 29.9989ZM14.8926 27.3727C15.2994 26.5905 15.8326 25.8828 16.5003 25.2469L14.4313 23.0745C13.531 23.9319 12.7949 24.9042 12.231 25.9887L14.8926 27.3727ZM16.5265 25.2214C17.2921 24.4557 17.8975 23.9057 18.3525 23.5482L16.4991 21.1892C15.9088 21.653 15.2075 22.2977 14.4051 23.1L16.5265 25.2214ZM18.3628 23.54C18.8878 23.1201 19.6431 22.5616 20.641 21.8594L18.9146 19.406C17.8965 20.1224 17.0838 20.7214 16.4888 21.1974L18.3628 23.54ZM20.6355 21.8633C21.8751 20.9994 22.8263 20.302 23.4677 19.7809L21.5759 17.4525C21.0226 17.9021 20.1445 18.5487 18.9201 19.4021L20.6355 21.8633ZM23.5096 19.7456C24.2471 19.1002 24.916 18.2658 25.5298 17.2837L22.9858 15.6937C22.4796 16.5036 21.9911 17.0879 21.534 17.4878L23.5096 19.7456ZM25.544 17.2604C26.2431 16.0953 26.5978 14.8208 26.5978 13.4647H23.5978C23.5978 14.274 23.3925 15.0154 22.9716 15.717L25.544 17.2604ZM26.5978 13.4647C26.5978 11.3219 25.6677 9.59195 23.846 8.48639C22.1453 7.45423 19.7873 7.03671 16.9778 7.03671V10.0367C19.5816 10.0367 21.2836 10.4405 22.2896 11.051C23.1746 11.5881 23.5978 12.3221 23.5978 13.4647H26.5978ZM16.9778 7.03671C13.8783 7.03671 10.5401 7.50723 6.97098 8.42829L7.72061 11.3331C11.0955 10.4622 14.1786 10.0367 16.9778 10.0367V7.03671ZM15.1298 39.0447H15.4658V36.0447H15.1298V39.0447ZM15.4658 39.0447C15.907 39.0447 16.2776 39.1898 16.6451 39.5574L18.7665 37.436C17.8647 36.5343 16.7419 36.0447 15.4658 36.0447V39.0447ZM16.6451 39.5574C17.0127 39.9249 17.1578 40.2955 17.1578 40.7367H20.1578C20.1578 39.4606 19.6682 38.3378 18.7665 37.436L16.6451 39.5574ZM17.1578 40.7367V41.6327H20.1578V40.7367H17.1578ZM17.1578 41.6327C17.1578 42.0739 17.0127 42.4445 16.6451 42.812L18.7665 44.9334C19.6682 44.0316 20.1578 42.9088 20.1578 41.6327H17.1578ZM16.6451 42.812C16.2776 43.1796 15.907 43.3247 15.4658 43.3247V46.3247C16.7419 46.3247 17.8647 45.8351 18.7665 44.9334L16.6451 42.812ZM15.4658 43.3247H15.1298V46.3247H15.4658V43.3247ZM15.1298 43.3247C14.6886 43.3247 14.318 43.1796 13.9505 42.812L11.8291 44.9334C12.7309 45.8351 13.8537 46.3247 15.1298 46.3247V43.3247ZM13.9505 42.812C13.5829 42.4445 13.4378 42.0739 13.4378 41.6327H10.4378C10.4378 42.9088 10.9274 44.0316 11.8291 44.9334L13.9505 42.812ZM13.4378 41.6327V40.7367H10.4378V41.6327H13.4378ZM13.4378 40.7367C13.4378 40.2955 13.5829 39.9249 13.9505 39.5574L11.8291 37.436C10.9274 38.3378 10.4378 39.4606 10.4378 40.7367H13.4378ZM13.9505 39.5574C14.318 39.1898 14.6886 39.0447 15.1298 39.0447V36.0447C13.8537 36.0447 12.7309 36.5343 11.8291 37.436L13.9505 39.5574Z" fill="#9D6832" mask="url(#path-1-outside-1_875_1060)"/>
    </g>
    <defs>
    <clipPath id="clip0_875_1060">
    <rect width="37" height="49" fill="white"/>
    </clipPath>
    </defs>
    </svg>
    