<svg width="131" height="117" viewBox="0 0 131 117" fill="none" xmlns="http://www.w3.org/2000/svg">
<path d="M130.081 116H1.00003V106.612C5.20917 106.612 8.01532 99.5714 8.01532 99.5714C8.01532 99.5714 12.7581 106.612 16.4337 106.612C20.1093 106.612 24.852 99.5714 24.852 99.5714C24.852 99.5714 28.6818 106.202 31.8673 106.612C35.5321 107.084 40.2857 99.5714 40.2857 99.5714C40.2857 99.5714 44.1353 105.89 47.301 106.612C51.4356 107.555 57.1224 99.5714 57.1224 99.5714C57.1224 99.5714 60.9522 106.202 64.1377 106.612C67.8025 107.084 72.556 99.5714 72.556 99.5714C72.556 99.5714 77.2988 106.612 80.9744 106.612C84.65 106.612 89.3928 99.5714 89.3928 99.5714C89.3928 99.5714 94.1355 106.612 97.8111 106.612C101.487 106.612 106.229 99.5714 106.229 99.5714C106.229 99.5714 110.059 106.202 113.245 106.612C116.91 107.084 121.663 99.5714 121.663 99.5714C121.663 99.5714 125.872 106.612 130.081 106.612V116Z" fill="#3C2415" stroke="#805235" stroke-width="0.586734" stroke-linejoin="round"/>
<path d="M50.2858 1C52.6327 1 54.9797 2.17332 56.1532 4.5204C57.3267 6.86748 54.9796 77.2754 53.8062 83.1428C52.9033 83.6273 52.484 84.3162 51.4593 84.3162C50.4346 84.3162 50.0157 83.6266 49.1124 83.1428C49.1124 79.6223 42.0716 6.86734 43.2449 4.5204C44.4183 2.17347 47.939 1 50.2858 1Z" fill="#C68443"/>
<path d="M56.1532 4.5204L55.366 4.91398L55.366 4.91398L56.1532 4.5204ZM43.2449 4.5204L44.0321 4.91397L44.0321 4.91397L43.2449 4.5204ZM49.1124 83.1428L48.2323 83.1428L48.2323 83.6698L48.6968 83.9186L49.1124 83.1428ZM51.4593 84.3162L51.4593 83.4361L51.4593 83.4361L51.4593 84.3162ZM53.8062 83.1428L54.2224 83.9182L54.5879 83.7221L54.6692 83.3153L53.8062 83.1428ZM56.9404 4.12682C55.5971 1.44026 52.9172 0.119899 50.2858 0.119899V1.8801C52.3482 1.8801 54.3622 2.90639 55.366 4.91398L56.9404 4.12682ZM50.2858 0.119899C48.9847 0.119899 47.3964 0.440988 45.9679 1.07585C44.5505 1.7058 43.1715 2.69917 42.4577 4.12684L44.0321 4.91397C44.4917 3.9947 45.4598 3.22787 46.6828 2.68435C47.8947 2.14575 49.2401 1.8801 50.2858 1.8801V0.119899ZM42.4577 4.12684C42.3397 4.3629 42.3028 4.65869 42.283 4.85306C42.2584 5.09401 42.2442 5.39216 42.2375 5.73434C42.2242 6.42126 42.2403 7.3438 42.2806 8.45991C42.3614 10.6953 42.541 13.755 42.7887 17.3605C43.2843 24.5741 44.0549 34.0046 44.8617 43.4663C45.6686 52.9285 46.5122 62.4287 47.1538 69.7794C47.7989 77.1701 48.2323 82.3133 48.2323 83.1428L49.9925 83.1428C49.9925 82.212 49.5457 76.9407 48.9073 69.6264C48.2654 62.272 47.4222 52.7767 46.6156 43.3167C45.8088 33.8563 45.0393 24.438 44.5447 17.2399C44.2974 13.6396 44.1194 10.6027 44.0397 8.39637C43.9998 7.29161 43.985 6.40696 43.9974 5.76857C44.0036 5.4481 44.0165 5.20406 44.0341 5.03182C44.0564 4.813 44.0768 4.82459 44.0321 4.91397L42.4577 4.12684ZM48.6968 83.9186C48.8712 84.012 49.0297 84.1192 49.1981 84.2418C49.3482 84.3511 49.5594 84.5134 49.7486 84.6409C50.1797 84.9312 50.7112 85.1963 51.4593 85.1963L51.4593 83.4361C51.1826 83.4361 50.9924 83.3564 50.732 83.181C50.5754 83.0755 50.4485 82.9748 50.234 82.8186C50.0378 82.6759 49.8051 82.5154 49.5279 82.3669L48.6968 83.9186ZM51.4593 85.1963C52.2071 85.1963 52.7387 84.9316 53.1699 84.6413C53.3595 84.5137 53.5703 84.3516 53.7207 84.242C53.8893 84.1193 54.0479 84.0119 54.2224 83.9182L53.39 82.3673C53.1131 82.5159 52.8807 82.6763 52.6847 82.819C52.4706 82.9749 52.3432 83.0759 52.1869 83.1811C51.9266 83.3564 51.7362 83.4361 51.4593 83.4361V85.1963ZM54.6692 83.3153C54.8293 82.515 54.9972 80.7105 55.1701 78.2375C55.3448 75.7376 55.5285 72.49 55.712 68.756C56.0791 61.287 56.446 51.8572 56.7394 42.5392C57.0329 33.2215 57.2531 24.0104 57.3266 16.9794C57.3633 13.4651 57.3634 10.4884 57.3173 8.31326C57.2942 7.22709 57.2595 6.33014 57.2109 5.66186C57.1866 5.32879 57.1581 5.03985 57.1236 4.8069C57.0949 4.61292 57.0477 4.3415 56.9404 4.12682L55.366 4.91398C55.332 4.846 55.3512 4.8542 55.3824 5.06468C55.4078 5.23619 55.4325 5.47656 55.4553 5.78953C55.5007 6.41334 55.5347 7.27546 55.5575 8.35059C55.603 10.498 55.6031 13.4529 55.5665 16.961C55.4932 23.975 55.2734 33.1726 54.9801 42.4838C54.6869 51.7945 54.3203 61.2135 53.9539 68.6696C53.7707 72.3981 53.5877 75.6321 53.4141 78.1148C53.2387 80.6245 53.0765 82.3037 52.9432 82.9702L54.6692 83.3153Z" fill="#9D6832"/>
<path d="M89.0102 24.4698C90.0803 21.1478 90.1836 17.4293 87.8367 16.2555C85.4898 15.0818 64.3674 12.7351 62.0204 12.7351L56.1531 18.6024V29.1637C56.1531 29.1637 63.1939 22.1228 64.3674 22.1228C65.5408 22.1228 81.3144 28.2492 83.1428 29.1637C84.9713 30.0781 87.9969 27.6152 89.0102 24.4698Z" fill="#C68443"/>
<path d="M89.0102 24.4698L89.8479 24.7396L89.8479 24.7396L89.0102 24.4698ZM83.1428 29.1637L83.5365 28.3765L83.5365 28.3765L83.1428 29.1637ZM56.1531 29.1637H55.273V31.2884L56.7754 29.786L56.1531 29.1637ZM56.1531 18.6024L55.5308 17.9801L55.273 18.2379V18.6024H56.1531ZM62.0204 12.7351V11.855C61.787 11.855 61.5631 11.9477 61.3981 12.1128L62.0204 12.7351ZM87.443 17.0427C88.229 17.4357 88.7079 18.2937 88.8283 19.6357C88.948 20.9707 88.6857 22.6068 88.1725 24.1999L89.8479 24.7396C90.4048 23.0108 90.7293 21.1267 90.5814 19.4785C90.4343 17.8373 89.7914 16.2491 88.2304 15.4684L87.443 17.0427ZM88.1725 24.1999C87.7191 25.6072 86.8097 26.8654 85.8304 27.6535C84.794 28.4876 83.9702 28.5934 83.5365 28.3765L82.7492 29.9508C84.144 30.6484 85.7472 29.98 86.934 29.0248C88.1779 28.0238 89.2879 26.4778 89.8479 24.7396L88.1725 24.1999ZM83.5365 28.3765C82.573 27.8946 78.121 26.116 73.8229 24.4779C71.6603 23.6537 69.5136 22.8564 67.8312 22.2642C66.9909 21.9685 66.2592 21.7213 65.6962 21.5471C65.4155 21.4603 65.1677 21.3887 64.9649 21.338C64.794 21.2953 64.5639 21.2427 64.3674 21.2427V23.003C64.3175 23.003 64.3482 22.9982 64.5381 23.0457C64.6962 23.0852 64.9094 23.1462 65.1759 23.2287C65.7073 23.3931 66.4146 23.6317 67.2467 23.9246C68.909 24.5096 71.04 25.301 73.196 26.1227C77.5352 27.7765 81.8842 29.5182 82.7492 29.9508L83.5365 28.3765ZM64.3674 21.2427C64.1065 21.2427 63.8735 21.3313 63.7243 21.3977C63.5549 21.473 63.3794 21.5727 63.2075 21.6813C62.8624 21.8992 62.4619 22.1974 62.039 22.5357C61.1896 23.2153 60.1815 24.112 59.2232 24.9966C58.2622 25.8837 57.3395 26.7695 56.6578 27.4327C56.3167 27.7646 56.0355 28.0412 55.8393 28.2351C55.7412 28.3321 55.6643 28.4084 55.6118 28.4605C55.5856 28.4866 55.5655 28.5067 55.5518 28.5203C55.545 28.5271 55.5398 28.5323 55.5363 28.5358C55.5345 28.5376 55.5332 28.5389 55.5322 28.5398C55.5318 28.5403 55.5314 28.5407 55.5312 28.5409C55.5311 28.541 55.5309 28.5411 55.5309 28.5412C55.5308 28.5413 55.5308 28.5413 56.1531 29.1637C56.7754 29.786 56.7754 29.786 56.7754 29.786C56.7755 29.7859 56.7755 29.7859 56.7756 29.7858C56.7758 29.7856 56.7761 29.7853 56.7765 29.7849C56.7773 29.7841 56.7785 29.7829 56.7801 29.7813C56.7833 29.778 56.7883 29.7731 56.7948 29.7666C56.8079 29.7536 56.8274 29.7341 56.853 29.7086C56.9043 29.6577 56.9798 29.5827 57.0765 29.4871C57.27 29.296 57.5479 29.0225 57.8853 28.6943C58.5604 28.0374 59.4713 27.1631 60.4171 26.29C61.3657 25.4143 62.3379 24.5508 63.1386 23.9102C63.5408 23.5885 63.8829 23.3366 64.1474 23.1695C64.2803 23.0856 64.3765 23.034 64.4392 23.0062C64.522 22.9694 64.4815 23.003 64.3674 23.003V21.2427ZM57.0332 29.1637V18.6024H55.273V29.1637H57.0332ZM56.7754 19.2248L62.6427 13.3574L61.3981 12.1128L55.5308 17.9801L56.7754 19.2248ZM62.0204 13.6152C63.1259 13.6152 68.9285 14.1921 74.8194 14.9285C77.7479 15.2945 80.6692 15.6963 83.0003 16.0788C84.1668 16.2701 85.1766 16.4552 85.9618 16.627C86.7828 16.8066 87.263 16.9526 87.443 17.0427L88.2304 15.4684C87.8237 15.265 87.1305 15.0809 86.3379 14.9075C85.5096 14.7263 84.4658 14.5355 83.2853 14.3418C80.9226 13.9541 77.9766 13.5492 75.0377 13.1818C69.194 12.4514 63.2619 11.855 62.0204 11.855V13.6152Z" fill="#9D6832"/>
<path d="M70.2346 29.1634C73.1434 30.7316 74.9284 36.2042 74.9284 36.2042L70.2346 37.3776L57.3264 44.4184V39.7246C57.3264 39.7246 69.0611 29.1634 70.2346 29.1634Z" fill="#C68443"/>
<path d="M74.9284 36.2042L75.1419 37.058C75.3788 36.9988 75.5804 36.8438 75.6986 36.6302C75.8167 36.4165 75.8409 36.1634 75.7651 35.9312L74.9284 36.2042ZM70.2346 29.1634L70.6522 28.3887L70.4567 28.2833H70.2346V29.1634ZM57.3264 39.7246L56.7377 39.0704L56.4463 39.3326V39.7246H57.3264ZM57.3264 44.4184H56.4463V45.901L57.7479 45.1911L57.3264 44.4184ZM70.2346 37.3776L70.0211 36.5238L69.9119 36.5511L69.8131 36.605L70.2346 37.3776ZM74.9284 36.2042C75.7651 35.9312 75.7651 35.9311 75.765 35.9309C75.765 35.9308 75.7649 35.9305 75.7649 35.9303C75.7647 35.93 75.7646 35.9295 75.7644 35.9289C75.764 35.9278 75.7636 35.9264 75.763 35.9247C75.7618 35.9211 75.7602 35.9163 75.7582 35.9102C75.7541 35.898 75.7483 35.8807 75.7408 35.8585C75.7257 35.8143 75.7037 35.7507 75.675 35.6702C75.6175 35.5091 75.5329 35.2798 75.4224 35.0006C75.2018 34.4435 74.8758 33.6822 74.4539 32.8672C73.6365 31.2886 72.3606 29.3097 70.6522 28.3887L69.8169 29.938C71.0173 30.5852 72.0884 32.1268 72.8907 33.6765C73.2786 34.4257 73.5807 35.1305 73.7858 35.6485C73.8881 35.9069 73.9656 36.1174 74.0171 36.2617C74.0429 36.3339 74.0621 36.3894 74.0746 36.4261C74.0808 36.4444 74.0854 36.4581 74.0883 36.4666C74.0897 36.4709 74.0907 36.474 74.0913 36.4757C74.0916 36.4766 74.0917 36.4772 74.0918 36.4774C74.0919 36.4775 74.0919 36.4775 74.0919 36.4775C74.0918 36.4775 74.0918 36.4774 74.0918 36.4774C74.0918 36.4772 74.0917 36.4771 74.9284 36.2042ZM70.2346 28.2833C70.0526 28.2833 69.8965 28.3302 69.8014 28.3637C69.6945 28.4014 69.5899 28.4498 69.4937 28.4993C69.3011 28.5984 69.0838 28.7322 68.8548 28.8849C68.394 29.1921 67.8189 29.6206 67.1802 30.1205C65.8994 31.1229 64.3107 32.4532 62.7677 33.7757C61.2227 35.1 59.7154 36.4235 58.5949 37.4154C58.0345 37.9115 57.5705 38.325 57.2465 38.6145C57.0845 38.7593 56.9574 38.8731 56.8708 38.9508C56.8275 38.9897 56.7943 39.0195 56.7719 39.0396C56.7607 39.0497 56.7522 39.0574 56.7464 39.0625C56.7436 39.0651 56.7414 39.067 56.7399 39.0684C56.7392 39.069 56.7386 39.0695 56.7383 39.0699C56.7381 39.07 56.7379 39.0702 56.7378 39.0702C56.7377 39.0703 56.7377 39.0704 57.3264 39.7246C57.9152 40.3787 57.9152 40.3787 57.9153 40.3787C57.9154 40.3786 57.9155 40.3785 57.9156 40.3783C57.916 40.378 57.9165 40.3776 57.9172 40.3769C57.9186 40.3757 57.9206 40.3738 57.9234 40.3713C57.929 40.3663 57.9373 40.3588 57.9483 40.3489C57.9704 40.3291 58.0032 40.2996 58.0462 40.2611C58.132 40.1841 58.2582 40.071 58.4194 39.927C58.7417 39.639 59.2036 39.2274 59.7617 38.7334C60.8781 37.7451 62.3778 36.4282 63.9132 35.1122C65.4505 33.7945 67.0156 32.4845 68.265 31.5066C68.8915 31.0163 69.4257 30.6198 69.8312 30.3495C70.0354 30.2133 70.1905 30.1203 70.2987 30.0646C70.3529 30.0368 70.3808 30.0258 70.3872 30.0236C70.4053 30.0172 70.3432 30.0435 70.2346 30.0435V28.2833ZM56.4463 39.7246V44.4184H58.2065V39.7246H56.4463ZM57.7479 45.1911L70.656 38.1503L69.8131 36.605L56.905 43.6458L57.7479 45.1911ZM70.448 38.2315L75.1419 37.058L74.715 35.3503L70.0211 36.5238L70.448 38.2315Z" fill="#9D6832"/>
<circle cx="81.9692" cy="45.5919" r="7.33417" fill="#C68443" stroke="#9D6832" stroke-width="1.7602"/>
</svg>
