<svg width="114" height="82" viewBox="0 0 114 82" fill="none" xmlns="http://www.w3.org/2000/svg">
<path d="M103.048 10.853C103.048 14.8179 99.8136 18.0442 95.8087 18.0442C91.8038 18.0442 88.5693 14.8179 88.5693 10.853C88.5693 6.88816 91.8038 3.66187 95.8087 3.66187C99.8136 3.66187 103.048 6.88816 103.048 10.853Z" fill="#C68443" stroke="#9D6832" stroke-width="2.5"/>
<path fill-rule="evenodd" clip-rule="evenodd" d="M35.1729 60.6157L70.4601 60.3139C71.9191 60.3014 73.295 59.6366 74.2064 58.5038L75.3478 57.0851C76.693 55.4133 76.7688 53.0598 75.5339 51.3058L62.0867 32.2045C61.1789 30.9151 59.6955 30.1471 58.1126 30.1471H54.0513C52.8284 30.1471 51.6506 30.6063 50.7537 31.4329L4.57202 73.9925C3.35213 75.1167 3.18356 76.9756 4.18152 78.2986C5.23147 79.6906 7.20181 80.0052 8.63728 79.0101L35.1702 60.6158C35.1702 60.6158 35.168 60.6184 35.1729 60.6157ZM46.0851 51.6631C48.3928 49.7515 51.1886 47.4316 54.5745 44.6177C55.3231 43.9955 55.72 44.4071 57.7914 46.5555C58.2477 47.0287 58.7851 47.5861 59.4255 48.2353C62.6924 51.5473 48.5583 51.6441 46.3669 51.6591C46.1947 51.6603 46.0956 51.6614 46.0851 51.6631Z" fill="#C68443"/>
<path d="M35.1702 60.6158C35.1702 60.6158 35.168 60.6184 35.1729 60.6157M35.1702 60.6158L8.63728 79.0101M35.1702 60.6158L35.1729 60.6157M54.5745 44.6177C51.1886 47.4316 48.3928 49.7515 46.0851 51.6631M54.5745 44.6177C55.3231 43.9955 55.72 44.4071 57.7914 46.5555C58.2477 47.0287 58.7851 47.5861 59.4255 48.2353C62.6924 51.5473 48.5583 51.6441 46.3669 51.6591M54.5745 44.6177C36.3151 59.793 35.2315 60.5839 35.1729 60.6157M46.0851 51.6631C46.0956 51.6614 46.1947 51.6603 46.3669 51.6591M46.0851 51.6631C46.0783 51.661 46.1784 51.6604 46.3669 51.6591M70.4601 60.3139L35.1729 60.6157M70.4601 60.3139C71.9191 60.3014 73.295 59.6366 74.2064 58.5038M70.4601 60.3139V60.3139C71.9146 60.3014 73.2947 59.637 74.2064 58.5038V58.5038M8.63728 79.0101C7.20181 80.0052 5.23147 79.6906 4.18152 78.2986M8.63728 79.0101V79.0101C7.2022 80.005 5.23306 79.6927 4.18152 78.2986V78.2986M4.18152 78.2986C3.18356 76.9756 3.35213 75.1167 4.57202 73.9925M4.18152 78.2986V78.2986C3.185 76.9775 3.35513 75.1139 4.57202 73.9925V73.9925M4.57202 73.9925L50.7537 31.4329M50.7537 31.4329C51.6506 30.6063 52.8284 30.1471 54.0513 30.1471M50.7537 31.4329V31.4329C51.6509 30.6061 52.8312 30.1471 54.0513 30.1471V30.1471M54.0513 30.1471H58.1126M58.1126 30.1471C59.6955 30.1471 61.1789 30.9151 62.0867 32.2045M58.1126 30.1471V30.1471C59.6901 30.1471 61.1786 30.9146 62.0867 32.2045V32.2045M62.0867 32.2045L75.5339 51.3058M75.5339 51.3058C76.7688 53.0598 76.693 55.4133 75.3478 57.0851M75.5339 51.3058V51.3058C76.7673 53.0578 76.691 55.4157 75.3478 57.0851V57.0851M75.3478 57.0851L74.2064 58.5038" stroke="#9D6832" stroke-width="2.5"/>
<path d="M87.3194 24.1177C88.0275 26.4644 89.2315 30.3455 90.3041 33.5535C91.2247 36.3067 94.2921 37.3225 96.7852 35.8352L104.298 31.353C105.107 30.951 106.966 30.1471 107.936 30.1471C109.652 30.1471 110.106 32.3728 109.687 34.0368L109.674 34.0879C109.339 35.4201 108.467 36.5536 107.264 37.2179L91.5687 45.888C89.2019 47.1955 86.2251 46.3871 84.8602 44.053C80.6681 36.8842 75.1918 27.3234 75.1918 26.5295C75.1918 26.0213 74.9674 25.0446 74.696 24.0577C74.2847 22.5627 74.4848 20.9515 75.3483 19.6636L76.1285 18.5C76.3121 18.2262 76.5223 17.9712 76.756 17.7388L77.5401 16.9592C78.3663 16.1377 79.4841 15.6765 80.6492 15.6765C81.8144 15.6765 82.9321 16.1377 83.7584 16.9592L84.1645 17.363C84.6457 17.8415 85.0245 18.413 85.2778 19.0425L87.3194 24.1177Z" fill="#C68443" stroke="#9D6832" stroke-width="2.5"/>
<path d="M63.9454 16.5531L64.7949 17.3977C66.5581 19.151 69.3712 19.2589 71.2637 17.6461C73.773 15.5074 73.4136 11.5301 70.5616 9.87588L64.2425 6.21067C62.7544 5.34754 60.9271 5.31003 59.4048 6.11136L41.9349 15.3076C41.475 15.5498 41.0825 15.9026 40.7931 16.3344L39.9312 17.6198C39.3361 18.5074 39.6568 19.7159 40.6137 20.1916C41.0126 20.3899 41.4716 20.4306 41.8991 20.3056L59.0165 15.2997C60.7651 14.7883 62.6535 15.2685 63.9454 16.5531Z" fill="#C68443" stroke="#9D6832" stroke-width="2.5"/>
</svg>
