<svg width="71" height="130" viewBox="0 0 71 130" fill="none" xmlns="http://www.w3.org/2000/svg">
<path d="M32.7221 11.0598L33.6919 10.3085C34.0207 10.0538 34.5024 10.2002 34.634 10.5947L35.3682 12.7972C35.4784 13.1279 35.2789 13.4453 34.9306 13.4582C34.691 13.4671 34.3663 13.4736 33.929 13.4736C32.5357 13.4736 31.9509 11.5738 32.7221 11.0598Z" fill="#3C2415" stroke="#3C2415" stroke-width="1.2069"/>
<path d="M34.8328 9.55314L40.7327 6.60316C41.134 6.40255 41.6061 6.69431 41.6061 7.1429V12.8044C41.6061 13.1377 41.3359 13.4079 41.0026 13.4079H36.0065C35.7468 13.4079 35.5162 13.2417 35.434 12.9953L34.5302 10.2837C34.4352 9.99881 34.5642 9.68744 34.8328 9.55314Z" fill="#FFECE5" stroke="#FFECE5" stroke-width="1.2069"/>
<path d="M28.7686 101.57V75.9796C28.7686 75.2736 28.9181 74.5707 29.2402 73.9425C31.8157 68.9192 34.4315 67.974 39.8956 69.7565C40.5184 69.9596 41.0845 70.3106 41.5634 70.7576L58.941 86.9767C61.666 89.9834 61.7687 91.7844 59.6308 94.5768C59.1936 95.1478 58.6 95.5765 57.9428 95.8686L39.013 104.282C37.9208 104.767 37.2169 105.85 37.2169 107.046C37.2169 108.077 36.6914 109.037 35.8228 109.593L7.72738 127.574C7.27526 127.863 6.78018 128.089 6.24998 128.173C4.58004 128.437 3.80941 127.989 3.53632 126.598C3.26572 125.219 4.05165 123.882 5.14357 122.998L26.9785 105.322C28.1108 104.406 28.7686 103.027 28.7686 101.57Z" fill="#C68443" stroke="#7D5034" stroke-width="2"/>
<path d="M41.0011 95.3235L41.9108 88.0467C41.9693 87.5786 42.5181 87.3556 42.8865 87.6503L47.4346 91.2887C47.7535 91.5439 47.7321 92.0355 47.3923 92.262L41.9347 95.9005C41.5048 96.1871 40.9371 95.8362 41.0011 95.3235Z" fill="#FCB59A" stroke="#7D5034" stroke-width="2"/>
<circle cx="25.1379" cy="36.3389" r="7.44828" fill="#C68443" stroke="#7D5034" stroke-width="2"/>
<path d="M40.4151 47.9954L37.3141 44.8944C36.1066 43.6869 36.5005 41.6416 38.0701 40.969L66.9505 28.5916C67.8984 28.1854 69.0013 28.5132 69.5733 29.3713C70.3153 30.4843 69.8655 31.9975 68.636 32.5245L54.4705 38.5954C54.2275 38.6995 54.0032 38.8429 53.8066 39.0198L43.7367 48.0828C42.7825 48.9416 41.3229 48.9032 40.4151 47.9954Z" fill="#C68443" stroke="#7D5034" stroke-width="2"/>
<path d="M27.5517 58.0629C31.1724 53.2354 21.5172 48.4078 20.3103 48.4078C19.1034 48.4078 10.6552 59.2698 9.44828 59.2698C8.32677 59.2698 5.12095 44.6796 4.67293 42.6151C4.63687 42.4489 4.62069 42.2885 4.62069 42.1185V37.5457C4.62069 36.6073 2.43193 40.0465 1.45796 41.6233C1.15932 42.1068 1.04922 42.6809 1.13901 43.2421L5.29312 69.2053C5.55495 70.8417 7.34343 71.728 8.78963 70.9187C14.0791 67.9585 24.8494 61.6661 27.5517 58.0629Z" fill="#C68443" stroke="#7D5034" stroke-width="2"/>
<path d="M4.62069 37.5458L9.44828 20.6493" stroke="#3C2415" stroke-width="2.41379" stroke-linecap="round"/>
<path d="M18.651 13.2154C18.051 15.6972 16.7438 17.7138 15.169 18.9831C13.5955 20.2514 11.814 20.7379 10.1656 20.3393C8.51711 19.9407 7.15472 18.694 6.33444 16.847C5.51352 14.9984 5.27216 12.6073 5.87223 10.1256C6.4723 7.64382 7.77943 5.62716 9.35423 4.35788C10.9278 3.08961 12.7093 2.60308 14.3577 3.00166C16.0062 3.40025 17.3685 4.64696 18.1888 6.49404C19.0097 8.34259 19.2511 10.7337 18.651 13.2154Z" stroke="#3C2415" stroke-width="2.41379"/>
</svg>
