<svg width="134" height="107" viewBox="0 0 134 107" fill="none" xmlns="http://www.w3.org/2000/svg">
<path d="M67.572 31.2017C55.8913 27.9722 23.827 9.44683 12.1403 2.56942C11.4831 2.18264 11.9137 1.19814 12.6458 1.41167L70.1632 18.1876C70.2224 18.2048 70.2837 18.2136 70.3453 18.2136H128.074C128.852 18.2136 128.988 19.3175 128.229 19.4835C113.324 22.7437 74.2496 31.1583 67.7245 31.2229C67.6667 31.2235 67.6277 31.2172 67.572 31.2017Z" fill="#C68443" stroke="#7D5034" stroke-width="2.60194"/>
<circle cx="81.9612" cy="65.0486" r="7.80583" fill="#C68443" stroke="#7D5034" stroke-width="2.60194"/>
<rect x="1.30097" y="101.476" width="130.097" height="2.60194" rx="1.30097" stroke="#3C2415" stroke-width="2.60194"/>
<path d="M71.5522 53.2093C71.4314 46.8005 62.4292 44.2767 59.8447 50.7378C57.3441 56.9893 56.0451 74.0551 55.9477 75.3751C55.9433 75.4351 55.948 75.4861 55.9602 75.545L61.1593 100.501C61.3189 101.267 62.4466 101.15 62.4466 100.368V75.585C62.4466 75.5 62.4633 75.4159 62.4956 75.3373L71.5044 53.4588C71.5368 53.3802 71.5538 53.2942 71.5522 53.2093Z" fill="#C68443" stroke="#7D5034" stroke-width="2.60194"/>
<path d="M66.4587 76.5934L70.2082 70.9693C70.5772 70.4157 71.4473 70.7096 71.413 71.3741C70.9002 81.3143 71.3724 88.0606 72.4904 98.2315C72.5681 98.9386 71.6156 99.246 71.2701 98.6241L66.4313 89.9144C66.3777 89.8177 66.3495 89.709 66.3495 89.5985V76.9543C66.3495 76.8258 66.3875 76.7003 66.4587 76.5934Z" fill="#C68443" stroke="#7D5034" stroke-width="2.60194"/>
</svg>
