<svg width="184" height="83" viewBox="0 0 184 83" fill="none" xmlns="http://www.w3.org/2000/svg">
<path d="M107 21.1699C107.276 21.1699 107.5 21.3937 107.5 21.6699C107.5 21.946 107.276 22.1699 107 22.1699V21.1699ZM74.6494 21.1699H107V22.1699H74.6494V21.1699Z" fill="#3C2415"/>
<path d="M55.4176 42.1262L37.9308 35.3901C37.1782 35.1001 36.3786 34.9514 35.572 34.9514C33.7192 34.9514 31.9528 35.7347 30.7088 37.1079L1.39182 69.4704C1.13965 69.7487 1 70.1109 1 70.4865C1 71.3224 1.67761 72 2.51348 72H3.05855C3.5092 72 3.94739 71.8521 4.30589 71.5791L30.1122 51.923C34.3849 48.6686 39.787 47.2694 45.1023 48.0406L51.1311 48.9152C51.2081 48.9264 51.2858 48.932 51.3636 48.932C52.1046 48.932 52.7511 49.4348 52.9336 50.153L58.0282 70.2017C58.0948 70.4638 58.2299 70.7035 58.4196 70.8962L58.5673 71.0462C59.0837 71.5706 59.9293 71.5706 60.4457 71.0462C60.7226 70.765 60.8589 70.3744 60.8171 69.9819L58.2439 45.809C58.169 45.1051 57.9272 44.4291 57.5387 43.8373C57.028 43.0592 56.2861 42.4608 55.4176 42.1262Z" fill="#C68443" stroke="#9D6832"/>
<path d="M37.2922 6.99029C37.2922 10.5821 40.1573 13.4806 43.6753 13.4806C47.1934 13.4806 50.0584 10.5821 50.0584 6.99029C50.0584 3.39849 47.1934 0.5 43.6753 0.5C40.1573 0.5 37.2922 3.39849 37.2922 6.99029Z" fill="#C68443" stroke="#9D6832"/>
<path d="M30.2524 18.1661L6.14218 34.2751C5.50965 34.6977 5.12987 35.4082 5.12987 36.1689V36.3396C5.12987 37.5032 6.07322 38.4466 7.23692 38.4466C7.65804 38.4466 8.06949 38.3204 8.41821 38.0843L18.4519 31.2911C19.6621 30.4717 20.9586 29.7874 22.3179 29.2505L31.7685 25.5181C32.363 25.2832 32.934 24.9926 33.4737 24.65L36.367 22.8136C37.489 22.1014 38.1688 20.8647 38.1688 19.5357V18.799C38.1688 17.9715 37.7583 17.1978 37.0731 16.7338C36.4591 16.3181 35.692 16.1972 34.9799 16.4038L32.4792 17.1294C31.6882 17.3589 30.9372 17.7086 30.2524 18.1661Z" fill="#C68443" stroke="#9D6832"/>
<path d="M72.2936 22.4859L49.8701 25.1651C48.7581 25.1651 47.8831 24.2154 47.9741 23.107L48.4403 17.4249L62.0506 20.0957C62.6475 20.2129 63.2544 20.2718 63.8626 20.2718H72.1618C72.7753 20.2718 73.2727 20.7692 73.2727 21.3828C73.2727 21.9454 72.8522 22.4192 72.2936 22.4859Z" fill="#C68443"/>
<path d="M48.4935 16.7767L48.4403 17.4249M48.4403 17.4249L47.9741 23.107C47.8831 24.2154 48.7581 25.1651 49.8701 25.1651V25.1651L72.2936 22.4859C72.8522 22.4192 73.2727 21.9454 73.2727 21.3828V21.3828C73.2727 20.7692 72.7753 20.2718 72.1618 20.2718H63.8626C63.2544 20.2718 62.6475 20.2129 62.0506 20.0957L48.4403 17.4249Z" stroke="#9D6832"/>
<path d="M73.961 18.8738V24.1219C73.961 24.3119 73.807 24.466 73.6169 24.466V24.466C73.4268 24.466 73.2727 24.3119 73.2727 24.1219V18.8738" stroke="#3C2415"/>
<path d="M82.0157 14.2893C81.776 14.1521 81.4691 14.2344 81.3301 14.473C81.1911 14.7116 81.2727 15.0162 81.5123 15.1533L82.0157 14.2893ZM110.032 30.3195L82.0157 14.2893L81.5123 15.1533L109.529 31.1836L110.032 30.3195Z" fill="#3C2415"/>
<path d="M128.582 52.1262L146.069 45.3901C146.822 45.1001 147.621 44.9514 148.428 44.9514C150.281 44.9514 152.047 45.7347 153.291 47.1079L182.608 79.4704C182.86 79.7487 183 80.1109 183 80.4865C183 81.3224 182.322 82 181.487 82H180.941C180.491 82 180.053 81.8521 179.694 81.5791L153.888 61.923C149.615 58.6686 144.213 57.2694 138.898 58.0406L132.869 58.9152C132.792 58.9264 132.714 58.932 132.636 58.932C131.895 58.932 131.249 59.4348 131.066 60.153L125.972 80.2017C125.905 80.4638 125.77 80.7035 125.58 80.8962L125.433 81.0462C124.916 81.5706 124.071 81.5706 123.554 81.0462C123.277 80.765 123.141 80.3744 123.183 79.9819L125.756 55.809C125.831 55.1051 126.073 54.4291 126.461 53.8373C126.972 53.0592 127.714 52.4608 128.582 52.1262Z" fill="#C68443" stroke="#9D6832"/>
<path d="M146.708 16.9903C146.708 20.5821 143.843 23.4806 140.325 23.4806C136.807 23.4806 133.942 20.5821 133.942 16.9903C133.942 13.3985 136.807 10.5 140.325 10.5C143.843 10.5 146.708 13.3985 146.708 16.9903Z" fill="#C68443" stroke="#9D6832"/>
<path d="M153.748 28.1661L177.858 44.2751C178.49 44.6977 178.87 45.4082 178.87 46.1689V46.3395C178.87 47.5032 177.927 48.4466 176.763 48.4466C176.342 48.4466 175.931 48.3204 175.582 48.0843L165.548 41.2911C164.338 40.4717 163.041 39.7874 161.682 39.2505L152.232 35.5181C151.637 35.2832 151.066 34.9926 150.526 34.65L147.633 32.8136C146.511 32.1014 145.831 30.8647 145.831 29.5357V28.799C145.831 27.9715 146.242 27.1978 146.927 26.7338C147.541 26.3181 148.308 26.1972 149.02 26.4038L151.521 27.1294C152.312 27.3589 153.063 27.7086 153.748 28.1661Z" fill="#C68443" stroke="#9D6832"/>
<path d="M111.706 32.4859L134.13 35.1651C135.242 35.1651 136.117 34.2154 136.026 33.107L135.56 27.4249L121.949 30.0957C121.353 30.2129 120.746 30.2718 120.137 30.2718H111.838C111.225 30.2718 110.727 30.7692 110.727 31.3828C110.727 31.9454 111.148 32.4192 111.706 32.4859Z" fill="#C68443"/>
<path d="M135.506 26.7767L135.56 27.4249M135.56 27.4249L136.026 33.107C136.117 34.2154 135.242 35.1651 134.13 35.1651V35.1651L111.706 32.4859C111.148 32.4192 110.727 31.9454 110.727 31.3828V31.3828C110.727 30.7692 111.225 30.2718 111.838 30.2718H120.137C120.746 30.2718 121.353 30.2129 121.949 30.0957L135.56 27.4249Z" stroke="#9D6832"/>
<path d="M111.788 28.671L109.139 33.2173C109.044 33.3812 109.1 33.5904 109.264 33.6845V33.6845C109.429 33.7787 109.64 33.7222 109.735 33.5584L112.384 29.0121" stroke="#3C2415"/>
</svg>
