<svg width="137" height="100" viewBox="0 0 137 100" fill="none" xmlns="http://www.w3.org/2000/svg">
<circle cx="115.138" cy="13.117" r="8.74468" fill="#C68443" stroke="#9D6832" stroke-width="2.91489"/>
<path fill-rule="evenodd" clip-rule="evenodd" d="M42.2692 73.261L84.6758 72.8962C86.4292 72.8811 88.0826 72.0776 89.1779 70.7084L90.5496 68.9939C92.1661 66.9732 92.2572 64.1288 90.7733 62.0089L74.613 38.9228C73.5221 37.3643 71.7394 36.4362 69.8371 36.4362H64.9564C63.4868 36.4362 62.0714 36.9912 60.9935 37.9902L5.49446 89.4283C4.02846 90.7871 3.82588 93.0338 5.02517 94.6328C6.28696 96.3152 8.65483 96.6954 10.3799 95.4927L42.266 73.261C42.266 73.261 42.2633 73.2642 42.2692 73.261ZM55.383 62.4407C58.1562 60.1303 61.5162 57.3265 65.5851 53.9255C66.4848 53.1735 66.9617 53.671 69.4511 56.2675C69.9994 56.8395 70.6453 57.5132 71.4149 58.2979C75.3409 62.3008 58.3552 62.4177 55.7216 62.4358C55.5147 62.4373 55.3957 62.4387 55.383 62.4407Z" fill="#C68443"/>
<path d="M42.266 73.261C42.266 73.261 42.2633 73.2642 42.2692 73.261M42.266 73.261L10.3799 95.4927M42.266 73.261L42.2692 73.261M65.5851 53.9255C61.5162 57.3265 58.1562 60.1303 55.383 62.4407M65.5851 53.9255C66.4848 53.1735 66.9617 53.671 69.4511 56.2675C69.9994 56.8395 70.6453 57.5132 71.4149 58.2979C75.3409 62.3008 58.3552 62.4177 55.7216 62.4358M65.5851 53.9255C43.6418 72.2666 42.3396 73.2225 42.2692 73.261M55.383 62.4407C55.3957 62.4387 55.5147 62.4373 55.7216 62.4358M55.383 62.4407C55.3748 62.4382 55.4951 62.4374 55.7216 62.4358M84.6758 72.8962L42.2692 73.261M84.6758 72.8962C86.4292 72.8811 88.0826 72.0776 89.1779 70.7084M84.6758 72.8962V72.8962C86.4292 72.8811 88.0826 72.0776 89.1779 70.7084V70.7084M10.3799 95.4927C8.65483 96.6954 6.28696 96.3152 5.02517 94.6328M10.3799 95.4927V95.4927C8.65483 96.6954 6.28696 96.3152 5.02517 94.6328V94.6328M5.02517 94.6328C3.82588 93.0338 4.02846 90.7871 5.49446 89.4283M5.02517 94.6328V94.6328C3.82588 93.0338 4.02846 90.7871 5.49446 89.4283V89.4283M5.49446 89.4283L60.9935 37.9902M60.9935 37.9902C62.0714 36.9912 63.4868 36.4362 64.9564 36.4362M60.9935 37.9902V37.9902C62.0714 36.9912 63.4868 36.4362 64.9564 36.4362V36.4362M64.9564 36.4362H69.8371M69.8371 36.4362C71.7394 36.4362 73.5221 37.3643 74.613 38.9228M69.8371 36.4362V36.4362C71.7394 36.4362 73.5221 37.3643 74.613 38.9228V38.9228M74.613 38.9228L90.7733 62.0089M90.7733 62.0089C92.2572 64.1288 92.1661 66.9732 90.5496 68.9939M90.7733 62.0089V62.0089C92.2572 64.1288 92.1661 66.9732 90.5496 68.9939V68.9939M90.5496 68.9939L89.1779 70.7084" stroke="#9D6832" stroke-width="2.91489"/>
<path d="M104.936 29.1489C105.801 32.03 107.28 36.8248 108.584 40.7365C109.658 43.9581 113.252 45.1465 116.164 43.3993L125.34 37.8936C126.312 37.4078 128.547 36.4362 129.713 36.4362C131.761 36.4362 132.324 39.1092 131.827 41.0958L131.784 41.2696C131.392 42.835 130.37 44.1681 128.959 44.9518L109.908 55.5356C107.143 57.072 103.657 56.1258 102.067 53.3909C97.0182 44.7108 90.3617 33.0289 90.3617 32.0638C90.3617 31.4299 90.0745 30.1928 89.7343 28.9615C89.2552 27.2275 89.488 25.3585 90.4859 23.8617L91.499 22.342C91.7119 22.0226 91.9559 21.725 92.2274 21.4535L93.1882 20.4927C94.178 19.5029 95.5205 18.9468 96.9203 18.9468C98.32 18.9468 99.6625 19.5029 100.652 20.4927L101.175 21.0156C101.733 21.5738 102.173 22.2397 102.466 22.9727L104.936 29.1489Z" fill="#C68443" stroke="#9D6832" stroke-width="2.91489"/>
<path d="M76.7769 19.9365L77.8435 21.0031C79.9728 23.1324 83.3825 23.2633 85.6688 21.3036C88.6781 18.7242 88.2457 13.9474 84.8222 11.9503L77.1299 7.4632C75.3887 6.4475 73.2463 6.40338 71.4648 7.34656L50.4015 18.4977C49.8448 18.7925 49.3702 19.2213 49.0208 19.7455L47.98 21.3066C47.2676 22.3752 47.653 23.8265 48.8018 24.4009C49.2847 24.6423 49.8412 24.6919 50.3592 24.5395L71.0097 18.4659C73.0564 17.8639 75.2684 18.428 76.7769 19.9365Z" fill="#C68443" stroke="#9D6832" stroke-width="2.91489"/>
</svg>
