<svg width="176" height="148" viewBox="0 0 176 148" fill="none" xmlns="http://www.w3.org/2000/svg">
    <path d="M3.86954 0.816162C1.93359 0.816162 0.364014 2.38574 0.364014 4.32169C0.364014 6.25795 1.93359 7.82753 3.86954 7.82753H172.136C174.071 7.82753 175.641 6.25795 175.641 4.32169C175.641 2.38574 174.071 0.816162 172.136 0.816162H3.86954Z" fill="rgb(0, 0, 0, 0.7)"/>
    <path d="M43.8406 114.685C48.03 123.601 52.2175 135.857 49.4945 147.708H5.62772C5.62519 147.654 5.62388 147.6 5.62378 147.546V10.9976C5.62378 10.8402 5.63435 10.6853 5.65453 10.5334V6.40826H85.6759L83.7041 17.9673C79.5972 45.2324 65.3651 60.1729 52.3359 73.8473C36.0528 90.9363 34.0859 93.9222 43.8406 114.685Z" fill="rgb(0, 0, 0, 0.7)"/>
    <path d="M132.646 114.685C128.457 123.601 124.269 135.857 126.992 147.708H170.859C170.862 147.654 170.863 147.6 170.863 147.546V10.9976C170.863 10.8424 170.853 10.6873 170.832 10.5334V6.40826H90.8105L92.7826 17.9673C96.8895 45.2324 111.122 60.1729 124.151 73.8473C140.434 90.9363 142.401 93.9222 132.646 114.685Z" fill="rgb(0, 0, 0, 0.7)"/>
    </svg>
    