<svg width="777" height="279" viewBox="0 0 777 279" fill="none" xmlns="http://www.w3.org/2000/svg">
    <ellipse cx="653.5" cy="115.548" rx="123.5" ry="39.0652" fill="#ED6B65"/>
    <ellipse cx="653.5" cy="115.548" rx="106.5" ry="33.6878" fill="#ED6B65"/>
    <g filter="url(#filter0_f_36_18)">
    <mask id="mask0_36_18" style="mask-type:alpha" maskUnits="userSpaceOnUse" x="549" y="81" width="209" height="67">
    <ellipse cx="653.5" cy="114.809" rx="104.5" ry="33.0551" fill="#A47556"/>
    </mask>
    <g mask="url(#mask0_36_18)">
    <rect x="620.923" y="104.504" width="65.1538" height="20.6093" rx="10.3046" fill="#B73F48" fill-opacity="0.5"/>
    <rect x="706.385" y="104.504" width="65.1538" height="20.6093" rx="10.3046" fill="#B73F48" fill-opacity="0.5"/>
    <rect x="535.462" y="104.504" width="65.1538" height="20.6093" rx="10.3046" fill="#B73F48" fill-opacity="0.5"/>
    <rect x="620.923" y="77.4714" width="65.1538" height="20.6093" rx="10.3046" fill="#B73F48" fill-opacity="0.5"/>
    <rect x="706.385" y="77.4714" width="65.1538" height="20.6093" rx="10.3046" fill="#B73F48" fill-opacity="0.5"/>
    <rect x="535.462" y="77.4714" width="65.1538" height="20.6093" rx="10.3046" fill="#B73F48" fill-opacity="0.5"/>
    <rect x="620.923" y="131.537" width="65.1538" height="20.6093" rx="10.3046" fill="#B73F48" fill-opacity="0.5"/>
    <rect x="706.385" y="131.537" width="65.1538" height="20.6093" rx="10.3046" fill="#B73F48" fill-opacity="0.5"/>
    <rect x="535.462" y="131.537" width="65.1538" height="20.6093" rx="10.3046" fill="#B73F48" fill-opacity="0.5"/>
    </g>
    </g>
    <mask id="mask1_36_18" style="mask-type:alpha" maskUnits="userSpaceOnUse" x="549" y="68" width="209" height="67">
    <ellipse cx="653.5" cy="101.632" rx="104.5" ry="33.0551" fill="#A47556"/>
    </mask>
    <g mask="url(#mask1_36_18)">
    <rect x="620.923" y="91.3276" width="65.1538" height="20.6093" rx="10.3046" fill="#B73F48"/>
    <rect x="706.385" y="91.3276" width="65.1538" height="20.6093" rx="10.3046" fill="#B73F48"/>
    <rect x="535.462" y="91.3276" width="65.1538" height="20.6093" rx="10.3046" fill="#B73F48"/>
    <rect x="620.923" y="64.2947" width="65.1538" height="20.6093" rx="10.3046" fill="#B73F48"/>
    <rect x="706.385" y="64.2947" width="65.1538" height="20.6093" rx="10.3046" fill="#B73F48"/>
    <rect x="535.462" y="64.2947" width="65.1538" height="20.6093" rx="10.3046" fill="#B73F48"/>
    <rect x="620.923" y="118.361" width="65.1538" height="20.6093" rx="10.3046" fill="#B73F48"/>
    <rect x="706.385" y="118.361" width="65.1538" height="20.6093" rx="10.3046" fill="#B73F48"/>
    <rect x="535.462" y="118.361" width="65.1538" height="20.6093" rx="10.3046" fill="#B73F48"/>
    </g>
    <ellipse cx="388.5" cy="115.548" rx="123.5" ry="39.0652" fill="#2D9CDB"/>
    <mask id="mask2_36_18" style="mask-type:alpha" maskUnits="userSpaceOnUse" x="284" y="81" width="209" height="67">
    <ellipse cx="388.5" cy="114.632" rx="104.5" ry="33.0551" fill="#A47556"/>
    </mask>
    <g mask="url(#mask2_36_18)">
    <rect x="355.923" y="104.328" width="65.1538" height="20.6093" rx="10.3046" fill="#9DDCF8"/>
    <rect x="441.385" y="104.328" width="65.1538" height="20.6093" rx="10.3046" fill="#9DDCF8"/>
    <rect x="270.462" y="104.328" width="65.1538" height="20.6093" rx="10.3046" fill="#9DDCF8"/>
    <rect x="355.923" y="77.2947" width="65.1538" height="20.6093" rx="10.3046" fill="#9DDCF8"/>
    <rect x="441.385" y="77.2947" width="65.1538" height="20.6093" rx="10.3046" fill="#9DDCF8"/>
    <rect x="270.462" y="77.2947" width="65.1538" height="20.6093" rx="10.3046" fill="#9DDCF8"/>
    <rect x="355.923" y="131.361" width="65.1538" height="20.6093" rx="10.3046" fill="#9DDCF8"/>
    <rect x="441.385" y="131.361" width="65.1538" height="20.6093" rx="10.3046" fill="#9DDCF8"/>
    <rect x="270.462" y="131.361" width="65.1538" height="20.6093" rx="10.3046" fill="#9DDCF8"/>
    </g>
    <ellipse cx="123.5" cy="115.548" rx="123.5" ry="39.0652" fill="#FDDC79"/>
    <ellipse cx="123.5" cy="115.548" rx="106.5" ry="33.6878" fill="#FDDC79"/>
    <g filter="url(#filter1_f_36_18)">
    <mask id="mask3_36_18" style="mask-type:alpha" maskUnits="userSpaceOnUse" x="19" y="81" width="209" height="67">
    <ellipse cx="123.5" cy="114.809" rx="104.5" ry="33.0551" fill="#A47556"/>
    </mask>
    <g mask="url(#mask3_36_18)">
    <rect x="90.9231" y="104.504" width="65.1538" height="20.6093" rx="10.3046" fill="#EFBA00" fill-opacity="0.5"/>
    <rect x="176.385" y="104.504" width="65.1538" height="20.6093" rx="10.3046" fill="#EFBA00" fill-opacity="0.5"/>
    <rect x="5.46155" y="104.504" width="65.1538" height="20.6093" rx="10.3046" fill="#EFBA00" fill-opacity="0.5"/>
    <rect x="90.9231" y="77.4714" width="65.1538" height="20.6093" rx="10.3046" fill="#EFBA00" fill-opacity="0.5"/>
    <rect x="176.385" y="77.4714" width="65.1538" height="20.6093" rx="10.3046" fill="#EFBA00" fill-opacity="0.5"/>
    <rect x="5.46155" y="77.4714" width="65.1538" height="20.6093" rx="10.3046" fill="#EFBA00" fill-opacity="0.5"/>
    <rect x="90.9231" y="131.537" width="65.1538" height="20.6093" rx="10.3046" fill="#EFBA00" fill-opacity="0.5"/>
    <rect x="176.385" y="131.537" width="65.1538" height="20.6093" rx="10.3046" fill="#EFBA00" fill-opacity="0.5"/>
    <rect x="5.46155" y="131.537" width="65.1538" height="20.6093" rx="10.3046" fill="#EFBA00" fill-opacity="0.5"/>
    </g>
    </g>
    <mask id="mask4_36_18" style="mask-type:alpha" maskUnits="userSpaceOnUse" x="19" y="68" width="209" height="67">
    <ellipse cx="123.5" cy="101.632" rx="104.5" ry="33.0551" fill="#A47556"/>
    </mask>
    <g mask="url(#mask4_36_18)">
    <rect x="90.9231" y="91.3276" width="65.1538" height="20.6093" rx="10.3046" fill="#EFBA00"/>
    <rect x="176.385" y="91.3276" width="65.1538" height="20.6093" rx="10.3046" fill="#EFBA00"/>
    <rect x="5.46155" y="91.3276" width="65.1538" height="20.6093" rx="10.3046" fill="#EFBA00"/>
    <rect x="90.9231" y="64.2947" width="65.1538" height="20.6093" rx="10.3046" fill="#EFBA00"/>
    <rect x="176.385" y="64.2947" width="65.1538" height="20.6093" rx="10.3046" fill="#EFBA00"/>
    <rect x="5.46155" y="64.2947" width="65.1538" height="20.6093" rx="10.3046" fill="#EFBA00"/>
    <rect x="90.9231" y="118.361" width="65.1538" height="20.6093" rx="10.3046" fill="#EFBA00"/>
    <rect x="176.385" y="118.361" width="65.1538" height="20.6093" rx="10.3046" fill="#EFBA00"/>
    <rect x="5.46155" y="118.361" width="65.1538" height="20.6093" rx="10.3046" fill="#EFBA00"/>
    </g>
    <ellipse cx="247.5" cy="228.926" rx="123.5" ry="47.6509" fill="#A47556"/>
    <ellipse cx="247.5" cy="228.926" rx="106.5" ry="41.0917" fill="#A47556"/>
    <g filter="url(#filter2_f_36_18)">
    <mask id="mask5_36_18" style="mask-type:alpha" maskUnits="userSpaceOnUse" x="143" y="187" width="209" height="82">
    <ellipse cx="247.5" cy="228.024" rx="104.5" ry="40.32" fill="#A47556"/>
    </mask>
    <g mask="url(#mask5_36_18)">
    <rect x="214.923" y="215.455" width="65.1538" height="25.1388" rx="12" fill="#3C2415" fill-opacity="0.5"/>
    <rect x="300.385" y="215.455" width="65.1538" height="25.1388" rx="12" fill="#3C2415" fill-opacity="0.5"/>
    <rect x="129.462" y="215.455" width="65.1538" height="25.1388" rx="12" fill="#3C2415" fill-opacity="0.5"/>
    <rect x="214.923" y="182.481" width="65.1538" height="25.1388" rx="12" fill="#3C2415" fill-opacity="0.5"/>
    <rect x="300.385" y="182.481" width="65.1538" height="25.1388" rx="12" fill="#3C2415" fill-opacity="0.5"/>
    <rect x="129.462" y="182.481" width="65.1538" height="25.1388" rx="12" fill="#3C2415" fill-opacity="0.5"/>
    <rect x="214.923" y="248.429" width="65.1538" height="25.1388" rx="12" fill="#3C2415" fill-opacity="0.5"/>
    <rect x="300.385" y="248.429" width="65.1538" height="25.1388" rx="12" fill="#3C2415" fill-opacity="0.5"/>
    <rect x="129.462" y="248.429" width="65.1538" height="25.1388" rx="12" fill="#3C2415" fill-opacity="0.5"/>
    </g>
    </g>
    <mask id="mask6_36_18" style="mask-type:alpha" maskUnits="userSpaceOnUse" x="143" y="171" width="209" height="82">
    <ellipse cx="247.5" cy="211.952" rx="104.5" ry="40.32" fill="#A47556"/>
    </mask>
    <g mask="url(#mask6_36_18)">
    <rect x="214.923" y="199.382" width="65.1538" height="25.1388" rx="12" fill="#3C2415"/>
    <rect x="300.385" y="199.382" width="65.1538" height="25.1388" rx="12" fill="#3C2415"/>
    <rect x="129.462" y="199.382" width="65.1538" height="25.1388" rx="12" fill="#3C2415"/>
    <rect x="214.923" y="166.408" width="65.1538" height="25.1388" rx="12" fill="#3C2415"/>
    <rect x="300.385" y="166.408" width="65.1538" height="25.1388" rx="12" fill="#3C2415"/>
    <rect x="129.462" y="166.408" width="65.1538" height="25.1388" rx="12" fill="#3C2415"/>
    <rect x="214.923" y="232.357" width="65.1538" height="25.1388" rx="12" fill="#3C2415"/>
    <rect x="300.385" y="232.357" width="65.1538" height="25.1388" rx="12" fill="#3C2415"/>
    <rect x="129.462" y="232.357" width="65.1538" height="25.1388" rx="12" fill="#3C2415"/>
    </g>
    <ellipse cx="517.5" cy="228.926" rx="123.5" ry="47.6509" fill="#77B255"/>
    <ellipse cx="517.5" cy="228.926" rx="106.5" ry="41.0917" fill="#77B255"/>
    <g filter="url(#filter3_f_36_18)">
    <mask id="mask7_36_18" style="mask-type:alpha" maskUnits="userSpaceOnUse" x="413" y="187" width="209" height="82">
    <ellipse cx="517.5" cy="228.024" rx="104.5" ry="40.32" fill="#A47556"/>
    </mask>
    <g mask="url(#mask7_36_18)">
    <rect x="484.923" y="215.455" width="65.1538" height="25.1388" rx="12" fill="#47702D" fill-opacity="0.5"/>
    <rect x="570.385" y="215.455" width="65.1538" height="25.1388" rx="12" fill="#47702D" fill-opacity="0.5"/>
    <rect x="399.462" y="215.455" width="65.1538" height="25.1388" rx="12" fill="#47702D" fill-opacity="0.5"/>
    <rect x="484.923" y="182.481" width="65.1538" height="25.1388" rx="12" fill="#47702D" fill-opacity="0.5"/>
    <rect x="570.385" y="182.481" width="65.1538" height="25.1388" rx="12" fill="#47702D" fill-opacity="0.5"/>
    <rect x="399.462" y="182.481" width="65.1538" height="25.1388" rx="12" fill="#47702D" fill-opacity="0.5"/>
    <rect x="484.923" y="248.429" width="65.1538" height="25.1388" rx="12" fill="#47702D" fill-opacity="0.5"/>
    <rect x="570.385" y="248.429" width="65.1538" height="25.1388" rx="12" fill="#47702D" fill-opacity="0.5"/>
    <rect x="399.462" y="248.429" width="65.1538" height="25.1388" rx="12" fill="#47702D" fill-opacity="0.5"/>
    </g>
    </g>
    <mask id="mask8_36_18" style="mask-type:alpha" maskUnits="userSpaceOnUse" x="413" y="171" width="209" height="82">
    <ellipse cx="517.5" cy="211.952" rx="104.5" ry="40.32" fill="#A47556"/>
    </mask>
    <g mask="url(#mask8_36_18)">
    <rect x="484.923" y="199.382" width="65.1538" height="25.1388" rx="12" fill="#47702D"/>
    <rect x="570.385" y="199.382" width="65.1538" height="25.1388" rx="12" fill="#47702D"/>
    <rect x="399.462" y="199.382" width="65.1538" height="25.1388" rx="12" fill="#47702D"/>
    <rect x="484.923" y="166.408" width="65.1538" height="25.1388" rx="12" fill="#47702D"/>
    <rect x="570.385" y="166.408" width="65.1538" height="25.1388" rx="12" fill="#47702D"/>
    <rect x="399.462" y="166.408" width="65.1538" height="25.1388" rx="12" fill="#47702D"/>
    <rect x="484.923" y="232.357" width="65.1538" height="25.1388" rx="12" fill="#47702D"/>
    <rect x="570.385" y="232.357" width="65.1538" height="25.1388" rx="12" fill="#47702D"/>
    <rect x="399.462" y="232.357" width="65.1538" height="25.1388" rx="12" fill="#47702D"/>
    </g>
    <path d="M450.296 67.5689C441.195 67.0453 427.4 74.8779 427.4 74.8779L430.552 87.4497C430.552 87.4497 440.309 80.6383 446.404 80.4268C452.499 80.2153 451.833 110.562 460.003 115.819C468.173 121.076 468.324 68.6063 450.296 67.5689Z" fill="#2258A1"/>
    <path d="M447.922 78.421C443.288 76.0905 431.628 84.664 431.628 84.664L431.864 86.4245C431.864 86.4245 441.671 79.7735 447.078 80.3791C452.47 80.9832 451.735 109.442 459.93 115.779C459.954 115.81 459.975 115.826 459.995 115.828C459.973 115.812 459.952 115.796 459.93 115.779C458.812 114.316 453.403 80.7845 447.922 78.421Z" fill="#153F78"/>
    <path d="M436.451 85.7288C428.589 109.328 398.918 120.862 370.039 111.242C341.16 101.621 324.335 74.5969 332.197 50.9975C340.059 27.3981 369.73 15.864 398.608 25.4847C427.487 35.1055 444.313 62.1294 436.451 85.7288Z" fill="url(#paint0_radial_36_18)" stroke="#143F78"/>
    <path d="M396.139 52.2473C379.879 48.7294 369.369 23.5446 355.749 35.0662C347.623 41.941 346.523 46.9582 347.619 57.0984C350.086 79.9348 373.952 74.3214 389.916 79.6398C408.202 85.7317 413.669 104.504 428.833 84.1542C432.107 74.3275 435.346 65.0557 429.021 56.6026C421.042 45.9386 409.703 55.1817 396.139 52.2473Z" fill="#E3EFFF"/>
    <ellipse cx="396.167" cy="31.8505" rx="13.7086" ry="3.65562" transform="rotate(18.425 396.167 31.8505)" fill="#143F78"/>
    <path d="M396.504 32.6049L398.761 36.8322L391.832 34.2596L396.504 32.6049Z" fill="#102C53"/>
    <path d="M398.478 25.8774L401.055 29.9469L394.046 27.6122L398.478 25.8774Z" fill="#102C53"/>
    <path d="M389.097 28.853L392.699 34.5484L386.533 31.8521L389.097 28.853Z" fill="#102C53"/>
    <path d="M390.578 23.5667L394.625 27.8047L388.652 26.4571L390.578 23.5667Z" fill="#102C53"/>
    <path d="M404.2 33.8845L397.805 36.5706L404.741 37.9181L404.2 33.8845Z" fill="#102C53"/>
    <path d="M406.667 29.2477L400.405 29.7304L406.186 32.6195L406.667 29.2477Z" fill="#102C53"/>
    <path d="M384.702 24.8201L384.317 29.8295L383.064 27.8067L384.702 24.8201Z" fill="#102C53"/>
    <path d="M386.051 27.5172L386.822 31.9484L384.317 29.8295L386.051 27.5172Z" fill="#102C53"/>
    <path d="M387.11 24.338L383.257 27.2287L389.326 26.3606L387.11 24.338Z" fill="#102C53"/>
    <path d="M408.208 31.3667L409.076 35.5089L405.415 32.0415L408.208 31.3667Z" fill="#102C53"/>
    <path d="M407.342 34.9312L404.067 38.0145L407.824 37.3395L407.342 34.9312Z" fill="#102C53"/>
    <path d="M410.135 33.2931L407.439 37.5323L409.654 36.6649L410.135 33.2931Z" fill="#102C53"/>
    <path d="M390.584 58.247C390.393 71.3485 390.779 73.0824 383.843 72.6983C375.462 72.7961 364.941 69.3748 359.661 63.3582C354.776 57.7903 360.717 37.0588 364.763 39.37C368.809 41.6813 381.913 51.5051 390.584 58.247Z" fill="#2D9CDB" fill-opacity="0.41" stroke="#BDBDBD"/>
    <path d="M398.614 60.3097C390.909 70.9078 389.561 72.064 395.341 75.9164C401.989 81.021 412.46 84.5928 420.293 82.9446C427.542 81.4193 428.925 59.7817 424.301 59.2044C419.677 58.6272 409.596 60.1151 398.614 60.3097Z" fill="#2D9CDB" fill-opacity="0.41" stroke="#BDBDBD"/>
    <ellipse cx="379.875" cy="62.3363" rx="7.61587" ry="10.0529" transform="rotate(31.6581 379.875 62.3363)" fill="#102C53"/>
    <circle cx="384.287" cy="60.4043" r="2.43708" transform="rotate(31.6581 384.287 60.4043)" fill="#D9D9D9"/>
    <circle cx="374.702" cy="66.6625" r="1.21854" transform="rotate(31.6581 374.702 66.6625)" fill="#D9D9D9"/>
    <circle cx="373.906" cy="63.309" r="0.60927" transform="rotate(31.6581 373.906 63.309)" fill="#D9D9D9"/>
    <ellipse cx="405.131" cy="70.2901" rx="7.61587" ry="10.0529" transform="rotate(3.17545 405.131 70.2901)" fill="#102C53"/>
    <circle cx="403.222" cy="77.2015" r="1.21854" transform="rotate(3.17545 403.222 77.2015)" fill="#D9D9D9"/>
    <circle cx="400.924" cy="74.6332" r="0.60927" transform="rotate(3.17545 400.924 74.6332)" fill="#D9D9D9"/>
    <circle cx="408.088" cy="66.4878" r="2.43708" transform="rotate(3.17545 408.088 66.4878)" fill="#D9D9D9"/>
    <path d="M318.459 34.585C318.459 34.585 338.967 36.2398 338.899 44.0913C338.868 47.6602 338.281 53.8831 335.045 52.378L319.23 47.3745C319.23 47.3745 294.593 52.3789 294.351 49.5787C293.132 35.4696 318.459 34.585 318.459 34.585Z" fill="#2258A1"/>
    <path d="M315.215 45.1714C315.215 45.1714 328.986 47.5841 330.921 51.132L318.995 48.2503C318.995 48.2503 295.09 51.6022 294.903 49.8357C294.974 47.5167 315.215 45.1714 315.215 45.1714Z" fill="#153F78"/>
    <path d="M394.393 85.7899C394.679 86.2425 393.975 90.7948 391.64 91.1992C382.758 92.7369 375.462 86.3439 378.717 81.6357C381.972 76.9275 394.108 85.3374 394.393 85.7899Z" fill="#102C53"/>
    <defs>
    <filter id="filter0_f_36_18" x="539" y="71.7538" width="229" height="86.1103" filterUnits="userSpaceOnUse" color-interpolation-filters="sRGB">
    <feFlood flood-opacity="0" result="BackgroundImageFix"/>
    <feBlend mode="normal" in="SourceGraphic" in2="BackgroundImageFix" result="shape"/>
    <feGaussianBlur stdDeviation="5" result="effect1_foregroundBlur_36_18"/>
    </filter>
    <filter id="filter1_f_36_18" x="9" y="71.7538" width="229" height="86.1103" filterUnits="userSpaceOnUse" color-interpolation-filters="sRGB">
    <feFlood flood-opacity="0" result="BackgroundImageFix"/>
    <feBlend mode="normal" in="SourceGraphic" in2="BackgroundImageFix" result="shape"/>
    <feGaussianBlur stdDeviation="5" result="effect1_foregroundBlur_36_18"/>
    </filter>
    <filter id="filter2_f_36_18" x="133" y="177.704" width="229" height="100.64" filterUnits="userSpaceOnUse" color-interpolation-filters="sRGB">
    <feFlood flood-opacity="0" result="BackgroundImageFix"/>
    <feBlend mode="normal" in="SourceGraphic" in2="BackgroundImageFix" result="shape"/>
    <feGaussianBlur stdDeviation="5" result="effect1_foregroundBlur_36_18"/>
    </filter>
    <filter id="filter3_f_36_18" x="403" y="177.704" width="229" height="100.64" filterUnits="userSpaceOnUse" color-interpolation-filters="sRGB">
    <feFlood flood-opacity="0" result="BackgroundImageFix"/>
    <feBlend mode="normal" in="SourceGraphic" in2="BackgroundImageFix" result="shape"/>
    <feGaussianBlur stdDeviation="5" result="effect1_foregroundBlur_36_18"/>
    </filter>
    <radialGradient id="paint0_radial_36_18" cx="0" cy="0" r="1" gradientUnits="userSpaceOnUse" gradientTransform="translate(347.267 86.8995) rotate(48.0714) scale(65.8927 26.5155)">
    <stop stop-color="#6D95CB"/>
    <stop offset="0.210213" stop-color="#2258A2"/>
    <stop offset="0.899603" stop-color="#2258A2"/>
    </radialGradient>
    </defs>
    </svg>
    