<svg width="754" height="729" viewBox="0 0 754 729" fill="none" xmlns="http://www.w3.org/2000/svg">
    <g filter="url(#filter0_d_850_78)">
    <path d="M569.95 366.062C582.368 355.082 654.08 307.502 693.348 267.422C724.002 236.102 735.861 154.322 688.705 114.542C627.398 62.8821 568.551 117.122 568.551 117.122C568.551 117.122 563.405 86.4621 527.605 68.4621C482.52 45.7821 425.407 37.3221 372.882 38.0421C321.979 38.7021 275.103 45.3021 233.486 67.2021C196.231 86.8221 193.994 114.782 193.994 114.782C193.994 114.782 145.105 64.6821 85.1956 105.362C25.3424 146.102 42.5153 227.702 71.3231 261.962C108.857 306.602 153.943 329.342 174.416 345.782C194.833 362.222 214.411 377.882 214.411 391.982C214.411 406.082 208.594 409.202 206.356 408.422C204.175 407.642 200.315 393.902 190.302 399.782C176.653 407.882 180.793 440.522 209.265 443.642C236.842 446.702 242.1 415.442 242.1 415.442L246.463 384.902L291.717 418.562L341.333 462.422L339.879 499.982C339.879 499.982 337.697 528.962 324.552 554.042C311.407 579.122 290.262 604.142 290.262 604.142L289.591 626.822L473.57 622.142L467.752 600.242C467.752 600.242 444.035 572.282 429.771 542.282C419.59 520.802 417.968 499.142 417.968 499.142L417.52 445.262L513.006 382.502C513.006 382.502 523.242 391.142 521.788 394.262C520.333 397.382 519.998 429.362 542.932 441.242C565.587 453.002 583.822 438.122 581.641 417.722C579.459 397.382 567.768 404.402 564.132 407.522C560.496 410.642 552.441 411.422 550.26 399.662C548.022 388.022 557.532 377.042 569.95 366.062ZM99.9071 255.302L78.0356 183.902L104.494 146.762L134.141 137.462C134.141 137.462 172.011 167.762 173.353 170.222C174.696 172.682 197.518 223.022 197.518 223.022L227.612 339.902L99.9071 255.302ZM529.843 349.202C530.29 346.742 558.091 223.982 558.091 223.982C558.091 222.542 577.669 212.762 577.669 210.782C577.669 208.802 613.246 146.702 613.246 146.702L672.539 149.162L684.846 212.222L655.199 264.542C655.255 264.602 529.395 351.602 529.843 349.202Z" fill="#FEC417"/>
    <path d="M697.488 193.802C693.124 137.882 641.55 124.502 620.35 132.602C599.149 140.702 585.389 155.882 580.69 177.482C576.886 194.942 573.083 206.582 568.719 208.382C563.909 210.302 559.49 209.522 559.49 209.522C559.49 209.522 558.707 171.722 558.93 156.482C559.49 125.042 568.44 117.002 568.44 117.002C568.44 117.002 566.538 106.382 562.734 100.502C558.93 94.6821 551.882 87.1221 551.882 87.1221C551.882 87.1221 553.504 102.242 546.456 105.782C539.408 109.322 531.801 104.042 531.801 104.042L538.849 135.482C538.849 135.482 527.438 292.202 526.375 295.682C525.312 299.162 482.408 378.962 482.408 378.962C482.408 378.962 457.404 404.042 445.489 409.862C433.519 415.682 423.226 430.862 377.078 431.402C330.929 432.002 291.269 392.942 291.269 392.942L251.61 352.142L222.299 259.502L217.935 165.122L219.781 130.802L221.068 116.462L218.998 109.202C218.998 109.202 215.194 113.282 208.146 111.542C201.098 109.802 198.357 99.9021 198.357 99.9021C198.357 99.9021 195.616 104.582 195.113 106.922C194.553 109.262 193.994 114.662 193.994 114.662C193.994 114.662 201.602 123.242 203.224 135.482C204.846 147.722 202.664 198.422 194.553 197.222C186.387 196.082 189.072 153.542 158.138 137.222C131.344 123.062 91.3488 127.322 75.0151 162.842C58.7372 198.362 70.6519 240.302 121.723 279.362C172.794 318.422 227.165 351.242 235.779 382.562C246.072 419.822 222.746 441.962 222.746 441.962C222.746 441.962 239.695 439.442 248.03 419.942C250.715 413.642 251.722 404.462 252.113 399.002C271.412 426.002 297.087 448.862 331.097 459.902C343.963 464.642 358.45 467.042 378.588 467.042C381.497 467.042 384.349 466.922 387.202 466.802C410.752 465.902 430.889 461.162 450.412 450.782C476.758 437.702 497.175 417.722 512.95 395.042C512.502 400.442 515.579 413.882 521.452 424.502C531.745 443.162 549.141 444.302 549.141 444.302C549.141 444.302 525.256 429.182 530.123 393.062C534.989 356.942 557.252 344.102 590.927 320.822C624.713 297.482 701.795 249.722 697.488 193.802ZM145.664 273.062C130.505 261.602 103.935 246.302 92.971 222.962C78.3713 191.822 90.2301 154.202 117.975 149.582C175.591 139.862 176.653 216.602 180.457 225.902C184.261 235.202 195.113 235.802 195.113 235.802C195.113 235.802 195.504 240.962 197.071 250.922C197.127 251.222 197.183 251.462 197.183 251.762L197.35 252.662C198.413 259.442 199.923 267.902 202.049 277.562L202.217 278.282C203.392 283.742 204.622 288.902 205.909 293.642C208.482 303.602 211.614 314.342 215.474 325.382C209.88 321.302 177.828 297.482 145.664 273.062ZM667.617 229.922C655.59 250.802 631.258 266.342 613.302 279.422C590.144 296.282 555.686 321.602 545.953 328.682C548.19 322.322 550.148 316.022 551.938 309.842C554.847 301.682 557.924 291.722 560.049 280.982C565.643 252.782 566.594 228.122 566.594 228.122C566.594 228.122 578.005 231.602 585.053 223.442C592.101 215.282 594.73 189.962 601.331 178.022C611.624 159.362 632.264 140.162 663.254 163.442C681.154 176.942 681.825 205.202 667.617 229.922ZM365.219 485.822L396.824 485.402C396.824 485.402 397.663 522.422 402.641 550.022C407.619 577.682 414.276 608.402 414.276 608.402C414.276 608.402 349.892 631.562 350.284 606.602C350.675 581.642 360.24 533.042 360.24 533.042C360.24 533.042 366.058 475.142 365.219 485.822Z" fill="#FFA828"/>
    <path d="M312.19 101.102C312.19 101.102 347.375 96.8418 380.098 97.3818C412.821 97.9218 446.496 104.822 446.496 104.822C446.496 104.822 444.538 222.302 438.553 288.242C432.623 354.182 409.353 403.562 403.144 417.542C397.159 431.102 392.796 438.362 392.796 438.362L361.247 434.402L306.708 316.922L312.19 101.102Z" fill="#FFA828"/>
    <path d="M270.069 118.682C270.069 118.682 279.97 113.342 294.345 107.522C307.379 102.242 319.126 100.622 319.126 100.622C319.126 100.622 319.461 178.502 320.636 234.062C321.643 281.402 337.977 358.982 345.92 379.742C353.863 400.502 368.183 432.182 368.183 432.182C368.183 432.182 339.375 427.742 321.643 403.622C312.301 390.902 268.614 292.502 267.104 227.642C265.594 162.782 271.523 117.062 270.069 118.682Z" fill="#FFEFAB"/>
    <path d="M253.679 127.682C252.672 130.862 244.785 197.882 257.147 260.042C269.51 322.202 287.801 364.742 299.884 381.602C310.624 396.542 317.616 403.622 321.587 403.622C325.559 403.622 305.254 352.082 295.8 311.642C286.403 271.262 281.424 222.842 280.417 198.962C279.411 175.022 278.46 113.342 278.46 113.342C278.46 113.342 267.552 118.682 265.091 120.242C262.629 121.862 253.679 127.682 253.679 127.682Z" fill="#FFFCFD"/>
    <path d="M325.056 604.022C325.056 604.022 346.368 566.822 350.843 538.622C355.318 510.422 357.779 485.462 357.779 485.462L370.98 486.062C370.98 486.062 369.694 526.922 368.183 554.582C366.673 582.242 362.254 609.362 362.254 609.362L325.056 604.022Z" fill="#FFEFAB"/>
    <path d="M341.444 462.422C341.444 462.422 351.345 452.042 378.587 452.042C405.828 452.042 417.519 463.262 417.519 463.262L418.247 499.322C418.247 499.322 400.123 493.262 378.083 492.962C359.736 492.722 339.99 500.042 339.99 500.042L341.444 462.422ZM222.465 104.282C227.052 99.722 271.019 64.322 375.119 63.362C487.106 62.282 529.115 97.082 531.744 99.002C534.708 101.102 538.177 110.702 536.722 114.962C535.212 119.222 532.247 120.782 523.857 117.062C515.41 113.342 473.793 80.762 373.664 84.122C277.508 87.302 236.729 118.682 232.422 121.322C228.954 123.422 222.521 123.962 219.557 119.702C216.536 115.502 219.501 107.282 222.465 104.282ZM536.722 129.302C523.857 130.382 532.751 241.502 505.509 311.102C476.31 385.562 439.055 406.802 440.566 411.062C442.076 415.322 478.547 403.502 501.538 368.522C522.85 336.122 535.715 307.382 541.701 269.102C547.574 230.822 551.042 128.102 536.722 129.302ZM219.724 142.022C216.48 141.842 219.78 197.282 214.522 221.642C212.508 231.002 207.586 232.922 207.083 235.022C206.579 237.122 217.878 308.462 236.841 339.782C255.189 370.082 291.38 407.822 297.31 401.462C303.239 395.102 271.019 373.802 249.259 327.542C236.729 301.022 223.976 261.062 223.472 215.342C223.137 185.102 226.661 142.442 219.724 142.022Z" fill="#D1701C"/>
    <path d="M511.998 656.7L511.997 600.482H255.412C256.195 600.482 255.525 640.68 255.413 657H218.942V689H544.778V657L511.998 656.7Z" fill="#865C50"/>
    </g>
    <g filter="url(#filter1_d_850_78)">
    <path d="M373.423 113.139L248.139 238.423C242.62 243.941 242.62 252.889 248.139 258.407L373.423 383.691C378.941 389.21 387.889 389.21 393.407 383.691L518.691 258.407C524.21 252.889 524.21 243.941 518.691 238.423L393.407 113.139C387.889 107.62 378.941 107.62 373.423 113.139Z" fill="#C68443"/>
    <path d="M284.725 220.284L263.357 241.651C259.622 245.387 259.622 251.443 263.357 255.179L284.725 276.546C288.46 280.282 294.517 280.282 298.252 276.546L319.62 255.179C323.356 251.443 323.356 245.387 319.62 241.651L298.252 220.284C294.517 216.548 288.46 216.548 284.725 220.284Z" fill="#9D6832"/>
    <path d="M376.651 128.357L355.284 149.725C351.548 153.46 351.548 159.517 355.284 163.252L376.651 184.62C380.387 188.355 386.443 188.355 390.179 184.62L411.546 163.252C415.282 159.517 415.282 153.46 411.546 149.725L390.179 128.357C386.443 124.622 380.387 124.622 376.651 128.357Z" fill="#9D6832"/>
    <path d="M468.577 220.284L447.21 241.651C443.474 245.387 443.474 251.443 447.21 255.179L468.577 276.546C472.313 280.282 478.369 280.282 482.105 276.546L503.472 255.179C507.208 251.443 507.208 245.387 503.472 241.651L482.105 220.284C478.369 216.548 472.313 216.548 468.577 220.284Z" fill="#9D6832"/>
    <path d="M422.614 266.247L401.247 287.614C397.511 291.35 397.511 297.406 401.247 301.142L422.614 322.509C426.35 326.245 432.406 326.245 436.142 322.509L457.51 301.142C461.245 297.406 461.245 291.35 457.51 287.614L436.142 266.247C432.406 262.511 426.35 262.511 422.614 266.247Z" fill="#9D6832"/>
    <path d="M422.614 174.321L401.247 195.688C397.511 199.424 397.511 205.48 401.247 209.216L422.614 230.583C426.35 234.319 432.406 234.319 436.142 230.583L457.51 209.216C461.245 205.48 461.245 199.424 457.51 195.688L436.142 174.321C432.406 170.585 426.35 170.585 422.614 174.321Z" fill="#9D6832"/>
    <path d="M376.651 312.21L355.284 333.578C351.548 337.313 351.548 343.37 355.284 347.105L376.651 368.473C380.387 372.208 386.443 372.208 390.179 368.473L411.546 347.105C415.282 343.37 415.282 337.313 411.546 333.578L390.179 312.21C386.443 308.474 380.387 308.474 376.651 312.21Z" fill="#9D6832"/>
    <path d="M330.688 266.247L309.321 287.614C305.585 291.35 305.585 297.406 309.321 301.142L330.688 322.509C334.424 326.245 340.48 326.245 344.216 322.509L365.583 301.142C369.319 297.406 369.319 291.35 365.583 287.614L344.216 266.247C340.48 262.511 334.424 262.511 330.688 266.247Z" fill="#9D6832"/>
    <path d="M330.688 174.321L309.321 195.688C305.585 199.424 305.585 205.48 309.321 209.216L330.688 230.583C334.424 234.319 340.48 234.319 344.216 230.583L365.583 209.216C369.319 205.48 369.319 199.424 365.583 195.688L344.216 174.321C340.48 170.585 334.424 170.585 330.688 174.321Z" fill="#9D6832"/>
    <path d="M325.868 213.65V283.18C325.868 295.787 336.088 306.007 348.695 306.007H418.241C430.848 306.007 441.068 295.787 441.068 283.18V213.65C441.068 201.043 430.848 190.823 418.241 190.823H348.695C336.088 190.823 325.868 201.043 325.868 213.65Z" fill="#F1AF49"/>
    <path d="M397.363 226.3H390.725V270.77H397.363V250.415H414.398V270.77H421.036V226.3H414.398V244.442H397.363V226.3Z" fill="#382416"/>
    <path d="M352.802 270.77L346.034 226.3H353.335L357.199 260.995L362.848 237.583H369.264L375.017 261.035L378.778 226.3H385.637L379.22 270.77H371.256L365.837 247.546L360.415 270.77H352.802Z" fill="#382416"/>
    </g>
    <g filter="url(#filter2_d_850_78)">
    <path d="M476.261 491.343C453.199 485.888 443.17 462.165 433.728 458.16L424.272 461.756C431.1 471.401 455.917 502.234 479.764 505.564C508.8 509.622 520.455 504.888 526.133 493.789C541.194 469.15 519.76 436.856 483.048 400.655C459.474 379.536 424.783 353.557 386.659 329.262C354.56 306.965 301.853 277.969 279.875 263.656C256.051 250.091 206.762 217.178 191.519 201.589C176.056 186.8 149.682 159.926 158.854 127.214C163.519 110.577 166.086 96.2472 203.951 93.025L205.174 91.7826L205.389 91.564L218.735 78C163.944 86.4173 163.579 87.1955 146.323 119.442C134.438 141.651 148.35 181.866 172.298 205.07C202.871 234.695 217.149 243.611 274.689 280.29C302.527 296.907 373.254 339.479 383.358 347.523C415.186 367.637 424.616 375.346 450.716 395.794C477.492 419.593 527.08 458.219 516.046 488.335C511.213 501.526 485.465 492.274 476.261 491.343Z" fill="#2258A1"/>
    </g>
    <g filter="url(#filter3_d_850_78)">
    <path d="M185.917 73.2158C193.919 69.8861 219.176 62.8326 244.432 61.9998L217.581 78.4458C197.023 83.1133 184.164 91.3629 179.731 95.2323C177.491 97.1873 172.337 100.01 169.698 113.708C159.9 164.567 213.681 190.654 255.026 223.88C290.959 252.759 403.864 309.788 433.883 337.139C460.279 355.612 471.927 364.168 493.309 382.956C514.694 401.745 518.809 406.745 531.84 425.153C540.758 440.151 550.652 454.59 543.607 473.559C533.582 500.564 504.197 496.491 487.039 494.609C456.26 490.472 434.237 458.153 434.237 458.153L446.057 453.001C468.152 465.738 507.349 486.835 526.339 473.559C543.072 458.248 514.816 430.764 496.404 409.7C476.443 386.866 455.708 376.747 428.788 353.876C396.418 330.987 234.884 238.056 209.283 212.223C191.103 201.147 146.24 159.176 153.864 113.708C157.382 86.6026 182.686 74.5604 185.917 73.2158Z" fill="#FFC100"/>
    </g>
    <g filter="url(#filter4_d_850_78)">
    <path d="M239.968 494.707C260.642 522.024 321.634 482.365 337.57 462.369L327.079 458.687C298.683 476.275 253.33 501.16 248.461 482.397C243.142 461.895 271.612 434.977 296.448 411.495L296.671 411.284C319.533 389.67 385.389 343.087 422.922 321.534C449.107 306.498 493.638 279.817 523.503 260.105C553.269 241.551 585.971 217.477 602.872 193.815C610.938 184.41 629.857 152.539 620.425 123.852C611.839 97.7341 584.077 82.4728 566.686 77.6496C546.001 71.9135 535.833 66 521.092 66L543.474 80.4809C557.023 85.7284 560.86 88.7206 576.491 98.7443C586.397 105.097 609.339 119.799 609.339 128.781C606.282 157.754 609.33 159.072 591.605 182.598C578.138 202.432 534.734 233.409 513.036 246.898C496.203 257.363 440.242 290.746 411.805 308.664C376.503 328.132 326.166 365.311 290.418 394.616C248.477 428.996 221.368 470.132 239.968 494.707Z" fill="#920813"/>
    </g>
    <g filter="url(#filter5_d_850_78)">
    <path d="M238.566 472.97C254.088 488.434 295.998 465.305 313.806 452.981L327.165 458.644C316.818 470.873 250.674 515.09 225.346 479.286C205.035 448.574 247.657 407.664 268.734 386.7C283.331 372.178 291.446 366.696 317.024 347.482C346.473 325.362 367.745 311.739 391.081 297.595C417.798 281.398 471.091 249.008 499.117 232.669C518.575 219.509 564.232 187.91 574.77 173.381C587.985 155.161 598.295 146.051 597.003 118.884C594.455 89.2728 546.676 65.8112 520.848 65.8112L491.331 54C537.045 54.1528 606.862 72.8599 611.617 116.853C614.126 140.091 604.188 162.683 585.661 185.094C569.67 204.437 526.997 235.125 504.198 249.008C481.11 262.023 445.97 285.591 413.444 303.668C385.709 321.308 354.633 340.396 328.931 360.063C308.893 374.233 289.435 389.127 267.653 410.818C235.511 444.148 228.128 462.571 238.566 472.97Z" fill="#3A7C13"/>
    </g>
    <path d="M352.505 613.025C348.26 612.823 343.376 613.75 343.188 619.392C343 625.034 343 641.354 343 644.457C343 647.56 345.367 650.26 351.303 650.461C357.239 650.663 412.954 650.461 416.861 650.461C420.768 650.461 422.797 646.835 422.947 643.208C423.135 639.581 422.76 624.308 422.76 620.158C422.76 613.267 417.011 613.267 413.104 613.267C408.897 613.186 352.505 613.025 352.505 613.025Z" fill="url(#paint0_linear_850_78)"/>
    <path d="M361.058 643.703L354.629 621.234H359.818L363.537 636.846H363.724L367.827 621.234H372.271L376.363 636.879H376.56L380.28 621.234H385.469L379.04 643.703H374.41L370.131 629.013H369.956L365.688 643.703H361.058ZM388.012 643.703V621.234H392.762V630.505H402.406V621.234H407.145V643.703H402.406V634.421H392.762V643.703H388.012Z" fill="#382416" fill-opacity="0.79"/>
    <path d="M284.162 647V644.315L294.244 633.278C295.428 631.986 296.402 630.862 297.168 629.908C297.933 628.943 298.5 628.038 298.868 627.193C299.246 626.338 299.435 625.443 299.435 624.509C299.435 623.435 299.176 622.505 298.659 621.719C298.152 620.934 297.456 620.327 296.571 619.9C295.686 619.472 294.692 619.259 293.588 619.259C292.415 619.259 291.391 619.502 290.516 619.989C289.651 620.467 288.979 621.138 288.502 622.003C288.035 622.868 287.801 623.882 287.801 625.045H284.281C284.281 623.256 284.694 621.685 285.519 620.332C286.344 618.98 287.468 617.926 288.89 617.17C290.322 616.415 291.928 616.037 293.707 616.037C295.497 616.037 297.083 616.415 298.465 617.17C299.847 617.926 300.931 618.945 301.717 620.228C302.502 621.511 302.895 622.938 302.895 624.509C302.895 625.632 302.691 626.731 302.283 627.805C301.886 628.869 301.19 630.057 300.195 631.369C299.211 632.672 297.844 634.263 296.094 636.142L289.233 643.48V643.719H303.432V647H284.162ZM319.555 647.418C317.308 647.418 315.393 646.806 313.812 645.583C312.232 644.35 311.023 642.565 310.188 640.229C309.353 637.882 308.935 635.048 308.935 631.727C308.935 628.426 309.353 625.607 310.188 623.271C311.033 620.924 312.246 619.134 313.827 617.901C315.418 616.658 317.327 616.037 319.555 616.037C321.782 616.037 323.686 616.658 325.267 617.901C326.858 619.134 328.071 620.924 328.906 623.271C329.751 625.607 330.174 628.426 330.174 631.727C330.174 635.048 329.756 637.882 328.921 640.229C328.086 642.565 326.878 644.35 325.297 645.583C323.716 646.806 321.802 647.418 319.555 647.418ZM319.555 644.136C321.782 644.136 323.512 643.062 324.745 640.915C325.978 638.767 326.594 635.705 326.594 631.727C326.594 629.082 326.311 626.83 325.744 624.971C325.188 623.112 324.382 621.695 323.328 620.72C322.284 619.746 321.026 619.259 319.555 619.259C317.347 619.259 315.622 620.347 314.379 622.525C313.136 624.692 312.515 627.76 312.515 631.727C312.515 634.372 312.793 636.619 313.35 638.469C313.907 640.318 314.707 641.725 315.751 642.69C316.805 643.654 318.073 644.136 319.555 644.136Z" fill="url(#paint1_linear_850_78)"/>
    <path d="M435.162 647V644.315L445.244 633.278C446.428 631.986 447.402 630.862 448.168 629.908C448.933 628.943 449.5 628.038 449.868 627.193C450.246 626.338 450.435 625.443 450.435 624.509C450.435 623.435 450.176 622.505 449.659 621.719C449.152 620.934 448.456 620.327 447.571 619.9C446.686 619.472 445.692 619.259 444.588 619.259C443.415 619.259 442.391 619.502 441.516 619.989C440.651 620.467 439.979 621.138 439.502 622.003C439.035 622.868 438.801 623.882 438.801 625.045H435.281C435.281 623.256 435.694 621.685 436.519 620.332C437.344 618.98 438.468 617.926 439.89 617.17C441.322 616.415 442.928 616.037 444.707 616.037C446.497 616.037 448.083 616.415 449.465 617.17C450.847 617.926 451.931 618.945 452.717 620.228C453.502 621.511 453.895 622.938 453.895 624.509C453.895 625.632 453.691 626.731 453.283 627.805C452.886 628.869 452.19 630.057 451.195 631.369C450.211 632.672 448.844 634.263 447.094 636.142L440.233 643.48V643.719H454.432V647H435.162ZM459.219 640.736V637.693L472.643 616.455H474.85V621.168H473.359L463.217 637.216V637.455H481.293V640.736H459.219ZM473.597 647V639.811V638.394V616.455H477.117V647H473.597Z" fill="url(#paint2_linear_850_78)"/>
    <defs>
    <filter id="filter0_d_850_78" x="24.7" y="17.7" width="715.868" height="691.6" filterUnits="userSpaceOnUse" color-interpolation-filters="sRGB">
    <feFlood flood-opacity="0" result="BackgroundImageFix"/>
    <feColorMatrix in="SourceAlpha" type="matrix" values="0 0 0 0 0 0 0 0 0 0 0 0 0 0 0 0 0 0 127 0" result="hardAlpha"/>
    <feOffset/>
    <feGaussianBlur stdDeviation="10.15"/>
    <feComposite in2="hardAlpha" operator="out"/>
    <feColorMatrix type="matrix" values="0 0 0 0 0.996078 0 0 0 0 0.768627 0 0 0 0 0.0901961 0 0 0 0.6 0"/>
    <feBlend mode="normal" in2="BackgroundImageFix" result="effect1_dropShadow_850_78"/>
    <feBlend mode="normal" in="SourceGraphic" in2="effect1_dropShadow_850_78" result="shape"/>
    </filter>
    <filter id="filter1_d_850_78" x="239.9" y="108.9" width="287.031" height="287.03" filterUnits="userSpaceOnUse" color-interpolation-filters="sRGB">
    <feFlood flood-opacity="0" result="BackgroundImageFix"/>
    <feColorMatrix in="SourceAlpha" type="matrix" values="0 0 0 0 0 0 0 0 0 0 0 0 0 0 0 0 0 0 127 0" result="hardAlpha"/>
    <feOffset dy="4"/>
    <feGaussianBlur stdDeviation="2.05"/>
    <feComposite in2="hardAlpha" operator="out"/>
    <feColorMatrix type="matrix" values="0 0 0 0 0 0 0 0 0 0 0 0 0 0 0 0 0 0 0.4 0"/>
    <feBlend mode="normal" in2="BackgroundImageFix" result="effect1_dropShadow_850_78"/>
    <feBlend mode="normal" in="SourceGraphic" in2="effect1_dropShadow_850_78" result="shape"/>
    </filter>
    <filter id="filter2_d_850_78" x="137.5" y="71.5" width="398" height="438" filterUnits="userSpaceOnUse" color-interpolation-filters="sRGB">
    <feFlood flood-opacity="0" result="BackgroundImageFix"/>
    <feColorMatrix in="SourceAlpha" type="matrix" values="0 0 0 0 0 0 0 0 0 0 0 0 0 0 0 0 0 0 127 0" result="hardAlpha"/>
    <feOffset dy="-2"/>
    <feGaussianBlur stdDeviation="2.25"/>
    <feComposite in2="hardAlpha" operator="out"/>
    <feColorMatrix type="matrix" values="0 0 0 0 0 0 0 0 0 0 0 0 0 0 0 0 0 0 0.3 0"/>
    <feBlend mode="normal" in2="BackgroundImageFix" result="effect1_dropShadow_850_78"/>
    <feBlend mode="normal" in="SourceGraphic" in2="effect1_dropShadow_850_78" result="shape"/>
    </filter>
    <filter id="filter3_d_850_78" x="148.5" y="55.4998" width="402" height="443" filterUnits="userSpaceOnUse" color-interpolation-filters="sRGB">
    <feFlood flood-opacity="0" result="BackgroundImageFix"/>
    <feColorMatrix in="SourceAlpha" type="matrix" values="0 0 0 0 0 0 0 0 0 0 0 0 0 0 0 0 0 0 127 0" result="hardAlpha"/>
    <feOffset dy="-2"/>
    <feGaussianBlur stdDeviation="2.25"/>
    <feComposite in2="hardAlpha" operator="out"/>
    <feColorMatrix type="matrix" values="0 0 0 0 0 0 0 0 0 0 0 0 0 0 0 0 0 0 0.3 0"/>
    <feBlend mode="normal" in2="BackgroundImageFix" result="effect1_dropShadow_850_78"/>
    <feBlend mode="normal" in="SourceGraphic" in2="effect1_dropShadow_850_78" result="shape"/>
    </filter>
    <filter id="filter4_d_850_78" x="229.5" y="59.5" width="398" height="447" filterUnits="userSpaceOnUse" color-interpolation-filters="sRGB">
    <feFlood flood-opacity="0" result="BackgroundImageFix"/>
    <feColorMatrix in="SourceAlpha" type="matrix" values="0 0 0 0 0 0 0 0 0 0 0 0 0 0 0 0 0 0 127 0" result="hardAlpha"/>
    <feOffset dy="-2"/>
    <feGaussianBlur stdDeviation="2.25"/>
    <feComposite in2="hardAlpha" operator="out"/>
    <feColorMatrix type="matrix" values="0 0 0 0 0 0 0 0 0 0 0 0 0 0 0 0 0 0 0.3 0"/>
    <feBlend mode="normal" in2="BackgroundImageFix" result="effect1_dropShadow_850_78"/>
    <feBlend mode="normal" in="SourceGraphic" in2="effect1_dropShadow_850_78" result="shape"/>
    </filter>
    <filter id="filter5_d_850_78" x="215.5" y="47.5" width="401" height="448" filterUnits="userSpaceOnUse" color-interpolation-filters="sRGB">
    <feFlood flood-opacity="0" result="BackgroundImageFix"/>
    <feColorMatrix in="SourceAlpha" type="matrix" values="0 0 0 0 0 0 0 0 0 0 0 0 0 0 0 0 0 0 127 0" result="hardAlpha"/>
    <feOffset dy="-2"/>
    <feGaussianBlur stdDeviation="2.25"/>
    <feComposite in2="hardAlpha" operator="out"/>
    <feColorMatrix type="matrix" values="0 0 0 0 0 0 0 0 0 0 0 0 0 0 0 0 0 0 0.3 0"/>
    <feBlend mode="normal" in2="BackgroundImageFix" result="effect1_dropShadow_850_78"/>
    <feBlend mode="normal" in="SourceGraphic" in2="effect1_dropShadow_850_78" result="shape"/>
    </filter>
    <linearGradient id="paint0_linear_850_78" x1="343" y1="608.468" x2="444.087" y2="650.272" gradientUnits="userSpaceOnUse">
    <stop stop-color="#FEC417"/>
    <stop offset="0.275" stop-color="#FFEFAB"/>
    <stop offset="1" stop-color="#FFA828"/>
    </linearGradient>
    <linearGradient id="paint1_linear_850_78" x1="288.426" y1="593.211" x2="337.532" y2="616.361" gradientUnits="userSpaceOnUse">
    <stop stop-color="white"/>
    <stop offset="1" stop-color="#FCD357"/>
    </linearGradient>
    <linearGradient id="paint2_linear_850_78" x1="439.426" y1="593.211" x2="488.532" y2="616.361" gradientUnits="userSpaceOnUse">
    <stop stop-color="white"/>
    <stop offset="1" stop-color="#FCD357"/>
    </linearGradient>
    </defs>
    </svg>
    