<svg width="27" height="28" viewBox="0 0 27 28" fill="none" xmlns="http://www.w3.org/2000/svg">
    <path d="M6 20V18H8V22L0.5 20.5V19L6 20Z" fill="#A8652C"/>
    <path d="M0.857143 11L6 6V8L1.71429 12L0.857143 16H0L0.857143 11Z" fill="#A8652C"/>
    <g filter="url(#filter0_d_995_315)">
    <path d="M12 21V18H14V23L6 22V20.5L12 21Z" fill="#A8652C"/>
    </g>
    <path d="M18.9188 0.889708L17.9202 0.837372L16.9781 18.8127L17.9767 18.865L18.0354 17.7462L19.034 17.7986L19.086 16.807L20.0846 16.8593L20.8121 2.9775L19.8135 2.92516L19.8655 1.9336L18.8668 1.88127L18.9188 0.889708Z" fill="#E2A93F"/>
    <path d="M17.9201 0.838276L3.93931 0.105572L3.88697 1.1042L2.88834 1.05187L2.836 2.0505L1.83738 1.99816L1.10467 15.979L2.1033 16.0313L2.05097 17.0299L3.0496 17.0823L2.99726 18.0809L16.9781 18.8136L17.0304 17.815L18.029 17.8673L18.0814 16.8687L19.08 16.921L19.8127 2.94021L18.8141 2.88787L18.8664 1.88924L17.8678 1.83691L17.9201 0.838276Z" fill="#CE7C35"/>
    <path d="M17.8678 1.8369L3.88697 1.1042L3.83463 2.10283L2.836 2.05049L2.1033 16.0313L3.10193 16.0836L3.04959 17.0823L17.0304 17.815L17.0827 16.8163L18.0814 16.8687L18.8141 2.88787L17.8154 2.83553L17.8678 1.8369Z" fill="#F7D046"/>
    <rect x="13.2976" y="12.6125" width="4" height="4" transform="rotate(3 13.2976 12.6125)" fill="#CE7C35"/>
    <rect x="14.2439" y="13.6634" width="2" height="2" transform="rotate(3 14.2439 13.6634)" fill="#E2A93F"/>
    <rect x="15.1902" y="14.7144" width="1" height="1" transform="rotate(3 15.1902 14.7144)" fill="#F7D046"/>
    <rect x="8.30444" y="12.3508" width="4" height="4" transform="rotate(3 8.30444 12.3508)" fill="#CE7C35"/>
    <rect x="9.25073" y="13.4017" width="2" height="2" transform="rotate(3 9.25073 13.4017)" fill="#E2A93F"/>
    <rect x="10.197" y="14.4527" width="1" height="1" transform="rotate(3 10.197 14.4527)" fill="#F7D046"/>
    <rect x="3.31127" y="12.0891" width="4" height="4" transform="rotate(3 3.31127 12.0891)" fill="#CE7C35"/>
    <rect x="4.25755" y="13.1401" width="2" height="2" transform="rotate(3 4.25755 13.1401)" fill="#E2A93F"/>
    <rect x="5.20388" y="14.1911" width="1" height="1" transform="rotate(3 5.20388 14.1911)" fill="#F7D046"/>
    <rect x="13.5592" y="7.61935" width="4" height="4" transform="rotate(3 13.5592 7.61935)" fill="#CE7C35"/>
    <rect x="14.5055" y="8.67032" width="2" height="2" transform="rotate(3 14.5055 8.67032)" fill="#E2A93F"/>
    <rect x="15.4518" y="9.72128" width="1" height="1" transform="rotate(3 15.4518 9.72128)" fill="#F7D046"/>
    <rect x="8.56612" y="7.35767" width="4" height="4" transform="rotate(3 8.56612 7.35767)" fill="#CE7C35"/>
    <rect x="9.51241" y="8.40863" width="2" height="2" transform="rotate(3 9.51241 8.40863)" fill="#E2A93F"/>
    <rect x="10.4587" y="9.45959" width="1" height="1" transform="rotate(3 10.4587 9.45959)" fill="#F7D046"/>
    <rect x="3.57295" y="7.09599" width="4" height="4" transform="rotate(3 3.57295 7.09599)" fill="#CE7C35"/>
    <rect x="4.51923" y="8.14696" width="2" height="2" transform="rotate(3 4.51923 8.14696)" fill="#E2A93F"/>
    <rect x="5.46556" y="9.19792" width="1" height="1" transform="rotate(3 5.46556 9.19792)" fill="#F7D046"/>
    <rect x="13.8209" y="2.62619" width="4" height="4" transform="rotate(3 13.8209 2.62619)" fill="#CE7C35"/>
    <rect x="14.7672" y="3.67714" width="2" height="2" transform="rotate(3 14.7672 3.67714)" fill="#E2A93F"/>
    <rect x="15.7135" y="4.72815" width="1" height="1" transform="rotate(3 15.7135 4.72815)" fill="#F7D046"/>
    <rect x="8.8278" y="2.36452" width="4" height="4" transform="rotate(3 8.8278 2.36452)" fill="#CE7C35"/>
    <rect x="9.77409" y="3.41547" width="2" height="2" transform="rotate(3 9.77409 3.41547)" fill="#E2A93F"/>
    <rect x="10.7204" y="4.46646" width="1" height="1" transform="rotate(3 10.7204 4.46646)" fill="#F7D046"/>
    <rect x="3.83463" y="2.10283" width="4" height="4" transform="rotate(3 3.83463 2.10283)" fill="#CE7C35"/>
    <rect x="4.78091" y="3.15378" width="2" height="2" transform="rotate(3 4.78091 3.15378)" fill="#E2A93F"/>
    <rect x="5.72724" y="4.20479" width="1" height="1" transform="rotate(3 5.72724 4.20479)" fill="#F7D046"/>
    <path d="M8.61844 6.35903L6.62118 6.25436L6.56884 7.25299L5.57022 7.20066L5.46554 9.19792L8.46143 9.35492L8.61844 6.35903Z" fill="#763E30"/>
    <path d="M15.6088 6.72538L13.6116 6.62071L13.5592 7.61934L12.5606 7.567L12.4559 9.56426L15.4518 9.72127L15.6088 6.72538Z" fill="#763E30"/>
    <path d="M14.4009 10.6676L6.41183 10.2489L6.25483 13.2448L7.25346 13.2971L7.20112 14.2957L8.19975 14.3481L8.14741 15.3467L12.1419 15.556L12.1943 14.5574L13.1929 14.6097L13.2452 13.6111L14.2439 13.6634L14.4009 10.6676Z" fill="#763E30"/>
    <path d="M7.35813 11.2998L7.25346 13.2971L8.25209 13.3494L8.19975 14.3481L12.1943 14.5574L12.2466 13.5588L13.2452 13.6111L13.3499 11.6139L7.35813 11.2998Z" fill="#DF809E"/>
    <path d="M26 16L20 11V13L25 17L26 21H27L26 16Z" fill="#A8652C"/>
    <defs>
    <filter id="filter0_d_995_315" x="2.6" y="15.6" width="14.8" height="11.8" filterUnits="userSpaceOnUse" color-interpolation-filters="sRGB">
    <feFlood flood-opacity="0" result="BackgroundImageFix"/>
    <feColorMatrix in="SourceAlpha" type="matrix" values="0 0 0 0 0 0 0 0 0 0 0 0 0 0 0 0 0 0 127 0" result="hardAlpha"/>
    <feOffset dy="1"/>
    <feGaussianBlur stdDeviation="1.7"/>
    <feComposite in2="hardAlpha" operator="out"/>
    <feColorMatrix type="matrix" values="0 0 0 0 1 0 0 0 0 1 0 0 0 0 1 0 0 0 1 0"/>
    <feBlend mode="normal" in2="BackgroundImageFix" result="effect1_dropShadow_995_315"/>
    <feBlend mode="normal" in="SourceGraphic" in2="effect1_dropShadow_995_315" result="shape"/>
    </filter>
    </defs>
    </svg>
    