<svg width="1260" height="345" viewBox="0 0 1260 345" fill="none" xmlns="http://www.w3.org/2000/svg">
<mask id="mask0_971_1311" style="mask-type:alpha" maskUnits="userSpaceOnUse" x="0" y="0" width="1260" height="345">
<path d="M1227.06 259.288H1259.06V159.763L1034.42 76.6694L785.137 125.141L552.012 0.5L415.831 46.6633V159.763L221.945 215.159L0.390625 312.62V344.62H1173.73V312.62C1173.73 297.987 1179.74 284.66 1189.42 274.98C1199.1 265.299 1212.43 259.288 1227.06 259.288Z" fill="white"/>
</mask>
<g mask="url(#mask0_971_1311)">
<path d="M1173.73 -327.382V-359.382H507.557L579.419 -328.339L1142.05 -328.34C1141.05 -275.008 1174.72 -243.34 1228.06 -243.34V146.969L1259.06 159.763V-274.05H1227.06C1212.43 -274.05 1199.1 -280.061 1189.42 -289.741C1179.74 -299.421 1173.73 -312.749 1173.73 -327.382Z" fill="#F1AF49"/>
<path d="M-15.3024 274.979C-5.62137 284.659 0.389648 297.987 0.389648 312.62L28.5517 299.711C28.5517 259.66 -12.4483 226.66 -51.9473 226.66L-51.9483 -242.84C1.38369 -242.84 33.3847 -275.007 33.3847 -328.339H579.419L507.557 -359.382H32.3896H4.05664V-328.339C2.05664 -307.882 -4.26336 -298.562 -13.9434 -288.882C-25.5844 -278.523 -38.8104 -273.382 -53.4434 -273.382H-84.9434V259.288H-52.9424C-38.3104 259.288 -24.9824 265.299 -15.3024 274.979Z" fill="#F1AF49"/>
<path d="M1227.06 259.288H1259.06V159.763L1228.06 146.969V226.16C1196.2 226.16 1172.91 238.68 1158.84 258.33C1148.41 272.914 1143.05 291.426 1143.05 311.661H28.5517V299.711L0.389648 312.62V344.62H1173.73V312.62C1173.73 297.987 1179.74 284.659 1189.42 274.979C1199.1 265.298 1212.43 259.288 1227.06 259.288Z" fill="#F1AF49"/>
<path fill-rule="evenodd" clip-rule="evenodd" d="M28.5517 311.661V299.711C28.5517 259.66 -12.4483 226.66 -51.9473 226.66L-51.9483 -242.84C1.38369 -242.84 33.3847 -275.007 33.3847 -328.339H579.419L1142.05 -328.34C1141.05 -275.008 1174.72 -243.34 1228.06 -243.34V146.969V226.16C1196.2 226.16 1172.91 238.68 1158.84 258.33C1148.41 272.914 1143.05 291.426 1143.05 311.661H28.5517ZM39.5566 -241.882H767.925H1136.56C1140.06 -241.882 1142.06 -239.382 1142.06 -236.382V116.278V221.618C1142.06 225.118 1140.56 227.118 1136.56 227.118H194.897H128.557H39.5566C36.0566 227.118 33.5566 224.618 33.5566 221.118L33.3919 -235.659L33.3918 -235.714C33.3919 -239.382 36.0566 -241.882 39.5566 -241.882Z" fill="#C68443"/>
<path d="M128.557 227.118H194.897L200.551 224.618H157.557H155.057H39.5566C37.0566 224.618 36.0566 223.618 36.0566 221.118V-235.659C36.0566 -238.382 37.0566 -239.382 39.5566 -239.382H155.057H157.557H507.557H773.437L767.925 -241.882H39.5566C36.0566 -241.882 33.3919 -239.382 33.3918 -235.714L33.3919 -235.659L33.5566 221.118C33.5566 224.618 36.0566 227.118 39.5566 227.118H128.557Z" fill="#382416"/>
<path d="M1142.06 221.618V116.278L1139.56 115.358V221.618C1139.56 223.618 1139.06 224.618 1136.56 224.618H1052.06H1021.06H1018.56H507.557H200.551L194.897 227.118H1136.56C1140.56 227.118 1142.06 225.118 1142.06 221.618Z" fill="#382416"/>
<path d="M1136.56 -241.882H767.925L773.437 -239.382H1018.52H1021.06H1052.06H1136.56C1138.56 -239.382 1139.56 -238.382 1139.56 -236.382V115.358L1142.06 116.278V-236.382C1142.06 -239.382 1140.06 -241.882 1136.56 -241.882Z" fill="#382416"/>
<path fill-rule="evenodd" clip-rule="evenodd" d="M692.809 -94.1347L803.601 -225.7L773.437 -239.382H1018.52V79.7606L785.136 125.141L552.011 0.499969L522.005 -73.3612L692.809 -94.1347ZM1021.06 79.2673L1034.42 76.6693L1052.06 83.1602L1139.56 115.358V-236.382C1139.56 -238.382 1138.56 -239.382 1136.56 -239.382H1052.06H1021.06V79.2673Z" fill="#F1AF49"/>
<path fill-rule="evenodd" clip-rule="evenodd" d="M221.944 215.159L415.83 159.763V142.618V46.6632L507.557 15.5693L552.011 0.499969L785.136 125.141L1018.52 79.7606L1018.56 224.618H507.557H200.551L221.944 215.159ZM1021.06 79.2673V224.618H1052.06H1136.56C1139.06 224.618 1139.56 223.618 1139.56 221.618V115.358L1052.06 83.1602L1034.42 76.6693L1021.06 79.2673Z" fill="#F1AF49"/>
<path fill-rule="evenodd" clip-rule="evenodd" d="M803.601 -225.7L692.809 -94.1347L522.005 -73.3612L552.011 0.499969L507.557 15.5693L415.83 46.6632V142.618V159.763L221.944 215.159L200.551 224.618H157.557V-239.382H507.557H773.437L803.601 -225.7ZM155.057 224.618H39.5566C37.0566 224.618 36.0566 223.618 36.0566 221.118V-235.659C36.0566 -238.382 37.0566 -239.382 39.5566 -239.382H155.057V224.618Z" fill="#F1AF49"/>
<path d="M1021.06 224.618V79.2673L1018.52 79.7606L1018.56 224.618H1021.06Z" fill="#382416"/>
<path d="M1021.06 79.2673V-239.382H1018.52V79.7606L1021.06 79.2673Z" fill="#382416"/>
<path d="M155.057 -239.382V224.618H157.557V-239.382H155.057Z" fill="#382416"/>
<path d="M681.769 -157.382H636.549V145.596H681.769V6.91982H797.835V145.596H843.056V-157.382H797.835V-33.7787H681.769V-157.382Z" fill="#382416"/>
<path d="M378.173 145.596L332.057 -157.382H381.799L408.126 79.0001L446.615 -80.5066H490.329L529.52 79.2727L555.145 -157.382H579.262H601.873L558.159 145.596H503.895L466.976 -12.6287L430.034 145.596H378.173Z" fill="#382416"/>
<path d="M1056.39 145.27H1065.23L1100.15 167.434V175.056H1087.91V170.545L1065.8 156.573H1065.39V188.069H1056.39V145.27ZM1047.06 170.753H1059.09L1063 170.96H1100.15V181.485H1047.06V170.753Z" fill="#382416"/>
<path d="M1047.06 97.5828H1055.14L1072.64 116.481C1074.2 118.088 1075.6 119.436 1076.84 120.525C1078.09 121.631 1079.3 122.469 1080.5 123.039C1081.71 123.61 1083.01 123.895 1084.41 123.895C1085.97 123.895 1087.31 123.541 1088.43 122.832C1089.57 122.124 1090.44 121.156 1091.05 119.929C1091.67 118.702 1091.98 117.31 1091.98 115.755C1091.98 114.131 1091.65 112.713 1091 111.504C1090.34 110.294 1089.4 109.361 1088.17 108.704C1086.94 108.047 1085.48 107.719 1083.79 107.719V97.0643C1087.26 97.0643 1090.28 97.8507 1092.84 99.4234C1095.39 100.996 1097.37 103.2 1098.77 106.034C1100.17 108.868 1100.87 112.134 1100.87 115.833C1100.87 119.635 1100.2 122.944 1098.85 125.761C1097.52 128.596 1095.67 130.799 1093.3 132.372C1090.94 133.945 1088.22 134.731 1085.16 134.731C1083.16 134.731 1081.18 134.333 1079.23 133.538C1077.27 132.761 1075.11 131.37 1072.72 129.365C1070.35 127.36 1067.51 124.534 1064.19 120.888L1056.6 113.137H1056.23V135.431H1047.06V97.5828Z" fill="#382416"/>
<path d="M1045.89 64.4904C1045.91 60.0316 1047 56.195 1049.18 52.9805C1051.36 49.7833 1054.51 47.3206 1058.64 45.5924C1062.77 43.8814 1067.74 43.0346 1073.55 43.0519C1079.34 43.0519 1084.27 43.9074 1088.35 45.6183C1092.43 47.3465 1095.53 49.8092 1097.66 53.0064C1099.8 56.2209 1100.87 60.0489 1100.87 64.4904C1100.87 68.932 1099.8 72.7513 1097.66 75.9485C1095.52 79.163 1092.4 81.6344 1088.33 83.3626C1084.26 85.0908 1079.34 85.9463 1073.55 85.929C1067.73 85.929 1062.75 85.0649 1058.62 83.3367C1054.49 81.6258 1051.33 79.1717 1049.16 75.9745C1046.98 72.7773 1045.89 68.9493 1045.89 64.4904ZM1055.2 64.4904C1055.2 67.5321 1056.73 69.9603 1059.78 71.7749C1062.84 73.5895 1067.43 74.4882 1073.55 74.4709C1077.58 74.4709 1080.93 74.0562 1083.61 73.2266C1086.29 72.4144 1088.3 71.2565 1089.65 69.7529C1091 68.2666 1091.67 66.5125 1091.67 64.4904C1091.67 61.4661 1090.16 59.0466 1087.13 57.2319C1084.11 55.4173 1079.58 54.5014 1073.55 54.4841C1069.47 54.4841 1066.07 54.8902 1063.34 55.7025C1060.62 56.532 1058.58 57.6986 1057.22 59.2021C1055.87 60.7057 1055.2 62.4684 1055.2 64.4904Z" fill="#382416"/>
<path d="M1047.06 -5.95737L1055.14 -5.95737L1072.64 12.9407C1074.2 14.548 1075.6 15.896 1076.84 16.9847C1078.09 18.0908 1079.3 18.929 1080.5 19.4993C1081.71 20.0696 1083.01 20.3548 1084.41 20.3548C1085.97 20.3548 1087.31 20.0005 1088.43 19.2919C1089.57 18.5833 1090.44 17.6156 1091.05 16.3885C1091.67 15.1615 1091.98 13.7703 1091.98 12.2149C1091.98 10.5903 1091.65 9.17319 1091 7.96344C1090.34 6.75369 1089.4 5.82045 1088.17 5.16373C1086.94 4.507 1085.48 4.17863 1083.79 4.17863V-6.47583C1087.26 -6.47583 1090.28 -5.6895 1092.84 -4.11682C1095.39 -2.54414 1097.37 -0.340659 1098.77 2.49362C1100.17 5.3279 1100.87 8.59424 1100.87 12.2926C1100.87 16.0947 1100.2 19.4043 1098.85 22.2213C1097.52 25.0555 1095.67 27.259 1093.3 28.8317C1090.94 30.4044 1088.22 31.1907 1085.16 31.1907C1083.16 31.1907 1081.18 30.7932 1079.23 29.9982C1077.27 29.2205 1075.11 27.8293 1072.72 25.8246C1070.35 23.8198 1067.51 20.9942 1064.19 17.3477L1056.6 9.5966H1056.23V31.8906H1047.06V-5.95737Z" fill="#382416"/>
<path d="M72.7812 8.91341L125.872 8.91341V20.1382L83.4357 20.1382V20.4493L91.0572 32.6073H81.1026L72.7812 19.4642V8.91341Z" fill="#382416"/>
<path d="M125.873 81.6425H117.785L100.287 62.7445C98.7317 61.1372 97.3319 59.7892 96.0875 58.7004C94.8432 57.5944 93.6248 56.7562 92.4324 56.1859C91.2226 55.6155 89.9178 55.3304 88.5179 55.3304C86.9625 55.3304 85.6232 55.6847 84.4998 56.3933C83.3592 57.1018 82.4864 58.0696 81.8816 59.2967C81.2594 60.5237 80.9483 61.9149 80.9483 63.4703C80.9483 65.0948 81.2767 66.512 81.9334 67.7217C82.5901 68.9315 83.532 69.8647 84.7591 70.5214C85.9861 71.1782 87.4464 71.5065 89.1401 71.5065V82.161C85.6664 82.161 82.6506 81.3747 80.0929 79.802C77.5351 78.2293 75.5563 76.0258 74.1564 73.1915C72.7566 70.3573 72.0566 67.0909 72.0566 63.3925C72.0566 59.5905 72.7306 56.2809 74.0787 53.4639C75.4094 50.6296 77.2586 48.4262 79.6262 46.8535C81.9939 45.2808 84.7072 44.4945 87.7662 44.4945C89.7709 44.4945 91.7497 44.8919 93.7026 45.6869C95.6555 46.4646 97.8244 47.8559 100.209 49.8606C102.577 51.8653 105.42 54.691 108.738 58.3375L116.334 66.0886H116.697V43.7945H125.873V81.6425Z" fill="#382416"/>
<path d="M126.599 113.108C126.582 115.839 126.124 118.474 125.225 121.015C124.327 123.538 122.866 125.802 120.844 127.807C118.822 129.811 116.144 131.401 112.808 132.577C109.473 133.735 105.377 134.313 100.52 134.313C96.0616 134.296 92.0781 133.786 88.5698 132.784C85.0442 131.764 82.0544 130.313 79.6003 128.429C77.1462 126.528 75.2798 124.255 74.0009 121.611C72.7047 118.967 72.0566 116.003 72.0566 112.719C72.0566 109.177 72.7479 106.048 74.1305 103.335C75.4958 100.622 77.3536 98.4443 79.704 96.8025C82.0544 95.1434 84.6899 94.141 87.6106 93.7954V104.865C85.7614 105.297 84.3097 106.204 83.2555 107.587C82.2013 108.969 81.6742 110.68 81.6742 112.719C81.6742 116.176 83.1777 118.803 86.1848 120.6C89.1919 122.38 93.2792 123.287 98.4466 123.322V122.959C96.8739 122.164 95.5345 121.093 94.4284 119.745C93.3051 118.379 92.4496 116.833 91.862 115.104C91.2572 113.359 90.9547 111.518 90.9547 109.583C90.9547 106.437 91.6979 103.638 93.1841 101.183C94.6531 98.7294 96.6751 96.7938 99.2502 95.3767C101.825 93.9595 104.772 93.251 108.09 93.251C111.685 93.251 114.882 94.0892 117.682 95.7655C120.481 97.4246 122.676 99.7491 124.266 102.739C125.839 105.711 126.617 109.168 126.599 113.108ZM117.785 113.16C117.785 111.432 117.371 109.885 116.541 108.52C115.711 107.155 114.588 106.083 113.171 105.305C111.754 104.528 110.164 104.139 108.401 104.139C106.638 104.139 105.057 104.528 103.657 105.305C102.257 106.066 101.143 107.12 100.313 108.468C99.4835 109.816 99.0687 111.354 99.0687 113.082C99.0687 114.378 99.3107 115.58 99.7946 116.686C100.278 117.774 100.952 118.734 101.817 119.563C102.681 120.375 103.683 121.015 104.824 121.481C105.947 121.948 107.148 122.181 108.427 122.181C110.138 122.181 111.702 121.793 113.119 121.015C114.536 120.22 115.668 119.148 116.515 117.8C117.362 116.435 117.785 114.888 117.785 113.16Z" fill="#382416"/>
<path d="M127.04 166.576C127.023 171.035 125.925 174.872 123.748 178.086C121.57 181.283 118.416 183.746 114.286 185.474C110.155 187.185 105.187 188.032 99.3798 188.015C93.5903 188.015 88.6562 187.159 84.5776 185.448C80.499 183.72 77.3968 181.258 75.2711 178.06C73.1281 174.846 72.0566 171.018 72.0566 166.576C72.0566 162.135 73.1281 158.315 75.2711 155.118C77.4141 151.904 80.5249 149.432 84.6035 147.704C88.6648 145.976 93.5903 145.12 99.3798 145.138C105.204 145.138 110.181 146.002 114.312 147.73C118.442 149.441 121.596 151.895 123.774 155.092C125.951 158.289 127.04 162.118 127.04 166.576ZM117.733 166.576C117.733 163.535 116.204 161.106 113.145 159.292C110.086 157.477 105.498 156.579 99.3798 156.596C95.353 156.596 92.0003 157.011 89.3216 157.84C86.6428 158.652 84.6294 159.81 83.2814 161.314C81.9334 162.8 81.2594 164.554 81.2594 166.576C81.2594 169.601 82.7716 172.02 85.796 173.835C88.8204 175.649 93.3483 176.565 99.3798 176.583C103.458 176.583 106.863 176.177 109.594 175.364C112.307 174.535 114.346 173.368 115.711 171.865C117.059 170.361 117.733 168.598 117.733 166.576Z" fill="#382416"/>
</g>
</svg>
