<svg width="753" height="520" viewBox="0 0 753 520" fill="none" xmlns="http://www.w3.org/2000/svg">
<mask id="mask0_971_1309" style="mask-type:alpha" maskUnits="userSpaceOnUse" x="0" y="0" width="753" height="520">
<path d="M666.73 32.2759V0.275879H0.556641L296.601 133.957L185.809 265.523L15.0051 286.296L45.0112 360.157L278.136 484.798L527.417 436.327L752.063 519.421V85.6079H720.062C705.43 85.6079 692.102 79.5969 682.422 69.9169C672.741 60.2369 666.73 46.9089 666.73 32.2759Z" fill="white"/>
</mask>
<g mask="url(#mask0_971_1309)">
<path d="M666.73 32.2759V0.275879H0.556641L72.4194 31.3187L635.052 31.3176C634.052 84.6496 667.725 116.318 721.058 116.318V506.626L752.063 519.421V85.6079H720.062C705.43 85.6079 692.102 79.5969 682.422 69.9169C672.741 60.2369 666.73 46.9089 666.73 32.2759Z" fill="#F1AF49"/>
<path d="M-522.302 634.637C-512.621 644.317 -506.61 657.644 -506.61 672.277L-478.448 659.368C-478.448 619.318 -519.448 586.318 -558.947 586.318L-558.948 116.818C-505.616 116.818 -473.615 84.6507 -473.615 31.3187H72.4194L0.556641 0.275879H-474.61H-502.943V31.3187C-504.943 51.7759 -511.263 61.0959 -520.943 70.7759C-532.584 81.1349 -545.81 86.2759 -560.443 86.2759H-591.943V618.946H-559.942C-545.31 618.946 -531.982 624.957 -522.302 634.637Z" fill="#F1AF49"/>
<path d="M720.063 618.946H752.063V519.421L721.058 506.626V585.818C689.197 585.818 665.906 598.337 651.843 617.988C641.405 632.572 636.052 651.083 636.052 671.319H-478.448V659.368L-506.61 672.277V704.277H666.731V672.277C666.731 657.644 672.742 644.317 682.422 634.637C692.103 624.956 705.43 618.946 720.063 618.946Z" fill="#F1AF49"/>
<path fill-rule="evenodd" clip-rule="evenodd" d="M-478.448 671.319V659.368C-478.448 619.318 -519.448 586.318 -558.947 586.318L-558.948 116.818C-505.616 116.818 -473.615 84.6507 -473.615 31.3187H72.4194L635.052 31.3176C634.052 84.6496 667.725 116.318 721.058 116.318V506.626V585.818C689.197 585.818 665.906 598.337 651.843 617.988C641.405 632.572 636.052 651.083 636.052 671.319H-478.448ZM-467.443 117.776H260.925H629.557C633.057 117.776 635.057 120.276 635.057 123.276V475.936V581.276C635.057 584.776 633.557 586.776 629.557 586.776H-312.103H-378.443H-467.443C-470.943 586.776 -473.443 584.276 -473.443 580.776L-473.608 123.998L-473.608 123.944C-473.608 120.276 -470.943 117.776 -467.443 117.776Z" fill="#C68443"/>
<path d="M-378.443 586.776H-312.103L-306.449 584.276H-349.443H-351.943H-467.443C-469.943 584.276 -470.943 583.276 -470.943 580.776V123.998C-470.943 121.276 -469.943 120.276 -467.443 120.276H-351.943H-349.443H0.556641H266.437L260.925 117.776H-467.443C-470.943 117.776 -473.608 120.276 -473.608 123.944L-473.608 123.998L-473.443 580.776C-473.443 584.276 -470.943 586.776 -467.443 586.776H-378.443Z" fill="#382416"/>
<path d="M635.057 581.276V475.936L632.557 475.016V581.276C632.557 583.276 632.057 584.276 629.557 584.276H545.057H514.057H511.557H0.556641H-306.449L-312.103 586.776H629.557C633.557 586.776 635.057 584.776 635.057 581.276Z" fill="#382416"/>
<path d="M629.557 117.776H260.925L266.437 120.276H511.52H514.057H545.057H629.557C631.557 120.276 632.557 121.276 632.557 123.276V475.016L635.057 475.936V123.276C635.057 120.276 633.057 117.776 629.557 117.776Z" fill="#382416"/>
<path fill-rule="evenodd" clip-rule="evenodd" d="M185.809 265.523L296.601 133.957L266.437 120.276H511.52V439.418L278.136 484.798L45.0112 360.157L15.0051 286.296L185.809 265.523ZM514.057 438.925L527.417 436.327L545.057 442.818L632.557 475.016V123.276C632.557 121.276 631.557 120.276 629.557 120.276H545.057H514.057V438.925Z" fill="#F1AF49"/>
<path fill-rule="evenodd" clip-rule="evenodd" d="M-285.056 574.817L-91.1703 519.421V502.276V406.321L0.556641 375.227L45.0112 360.157L278.136 484.798L511.52 439.418L511.557 584.276H0.556641H-306.449L-285.056 574.817ZM514.057 438.925V584.276H545.057H629.557C632.057 584.276 632.557 583.276 632.557 581.276V475.016L545.057 442.818L527.417 436.327L514.057 438.925Z" fill="#F1AF49"/>
<path fill-rule="evenodd" clip-rule="evenodd" d="M296.601 133.957L185.809 265.523L15.0051 286.296L45.0112 360.157L0.556641 375.227L-91.1703 406.321V502.276V519.421L-285.056 574.817L-306.449 584.276H-349.443V120.276H0.556641H266.437L296.601 133.957ZM-351.943 584.276H-467.443C-469.943 584.276 -470.943 583.276 -470.943 580.776V123.998C-470.943 121.276 -469.943 120.276 -467.443 120.276H-351.943V584.276Z" fill="#F1AF49"/>
<path d="M514.057 584.276V438.925L511.52 439.418L511.557 584.276H514.057Z" fill="#382416"/>
<path d="M514.057 438.925V120.276H511.52V439.418L514.057 438.925Z" fill="#382416"/>
<path d="M-351.943 120.276V584.276H-349.443V120.276H-351.943Z" fill="#382416"/>
<path d="M174.769 202.276H129.549V505.254H174.769V366.577H290.835V505.254H336.056V202.276H290.835V325.879H174.769V202.276Z" fill="#382416"/>
<path d="M-128.827 505.254L-174.943 202.276H-125.201L-98.8736 438.658L-60.3847 279.151H-16.6715L22.5197 438.93L48.1446 202.276H72.2623H94.8725L51.1593 505.254H-3.10532L-40.0237 347.029L-76.9655 505.254H-128.827Z" fill="#382416"/>
<path d="M549.39 504.927H558.23L593.148 527.092V534.713H580.913V530.203L558.8 516.23H558.385V547.727H549.39V504.927ZM540.058 530.41H552.086L556 530.617H593.148V541.142H540.058V530.41Z" fill="#382416"/>
<path d="M540.056 457.24H548.144L565.643 476.138C567.198 477.746 568.598 479.094 569.842 480.182C571.086 481.288 572.305 482.127 573.497 482.697C574.707 483.267 576.012 483.552 577.412 483.552C578.967 483.552 580.307 483.198 581.43 482.49C582.57 481.781 583.443 480.813 584.048 479.586C584.67 478.359 584.981 476.968 584.981 475.413C584.981 473.788 584.653 472.371 583.996 471.161C583.34 469.951 582.398 469.018 581.171 468.361C579.944 467.705 578.483 467.376 576.79 467.376V456.722C580.263 456.722 583.279 457.508 585.837 459.081C588.395 460.654 590.373 462.857 591.773 465.691C593.173 468.526 593.873 471.792 593.873 475.49C593.873 479.292 593.199 482.602 591.851 485.419C590.52 488.253 588.671 490.457 586.303 492.029C583.936 493.602 581.222 494.388 578.164 494.388C576.159 494.388 574.18 493.991 572.227 493.196C570.274 492.418 568.105 491.027 565.72 489.022C563.353 487.018 560.51 484.192 557.192 480.545L549.596 472.794H549.233V495.088H540.056V457.24Z" fill="#382416"/>
<path d="M538.89 424.148C538.907 419.689 540.004 415.852 542.182 412.638C544.36 409.441 547.514 406.978 551.644 405.25C555.774 403.539 560.743 402.692 566.55 402.709C572.339 402.709 577.273 403.565 581.352 405.276C585.431 407.004 588.533 409.467 590.659 412.664C592.802 415.878 593.873 419.706 593.873 424.148C593.873 428.589 592.802 432.409 590.659 435.606C588.516 438.821 585.405 441.292 581.326 443.02C577.265 444.748 572.339 445.604 566.55 445.586C560.726 445.586 555.749 444.722 551.618 442.994C547.488 441.283 544.334 438.829 542.156 435.632C539.979 432.435 538.89 428.607 538.89 424.148ZM548.196 424.148C548.196 427.19 549.726 429.618 552.785 431.432C555.844 433.247 560.432 434.146 566.55 434.128C570.577 434.128 573.929 433.714 576.608 432.884C579.287 432.072 581.3 430.914 582.648 429.41C583.996 427.924 584.67 426.17 584.67 424.148C584.67 421.124 583.158 418.704 580.134 416.889C577.109 415.075 572.581 414.159 566.55 414.142C562.471 414.142 559.067 414.548 556.336 415.36C553.623 416.189 551.584 417.356 550.218 418.86C548.87 420.363 548.196 422.126 548.196 424.148Z" fill="#382416"/>
<path d="M540.056 353.7H548.144L565.643 372.598C567.198 374.205 568.598 375.553 569.842 376.642C571.086 377.748 572.305 378.586 573.497 379.157C574.707 379.727 576.012 380.012 577.412 380.012C578.967 380.012 580.307 379.658 581.43 378.949C582.57 378.241 583.443 377.273 584.048 376.046C584.67 374.819 584.981 373.428 584.981 371.872C584.981 370.248 584.653 368.831 583.996 367.621C583.34 366.411 582.398 365.478 581.171 364.821C579.944 364.164 578.483 363.836 576.79 363.836V353.182C580.263 353.182 583.279 353.968 585.837 355.541C588.395 357.113 590.373 359.317 591.773 362.151C593.173 364.985 593.873 368.252 593.873 371.95C593.873 375.752 593.199 379.062 591.851 381.879C590.52 384.713 588.671 386.916 586.303 388.489C583.936 390.062 581.222 390.848 578.164 390.848C576.159 390.848 574.18 390.451 572.227 389.656C570.274 388.878 568.105 387.487 565.72 385.482C563.353 383.477 560.51 380.652 557.192 377.005L549.596 369.254H549.233V391.548H540.056V353.7Z" fill="#382416"/>
<path d="M593.148 337.432H540.058V326.207H582.494V325.896L574.873 313.738H584.827L593.148 326.881V337.432Z" fill="#382416"/>
<path d="M540.056 264.703H548.144L565.643 283.601C567.198 285.208 568.598 286.556 569.842 287.645C571.086 288.751 572.305 289.589 573.497 290.159C574.707 290.73 576.012 291.015 577.412 291.015C578.967 291.015 580.307 290.661 581.43 289.952C582.57 289.244 583.443 288.276 584.048 287.049C584.67 285.822 584.981 284.43 584.981 282.875C584.981 281.25 584.653 279.833 583.996 278.624C583.34 277.414 582.398 276.481 581.171 275.824C579.944 275.167 578.483 274.839 576.79 274.839V264.184C580.263 264.184 583.279 264.971 585.837 266.543C588.395 268.116 590.373 270.32 591.773 273.154C593.173 275.988 593.873 279.254 593.873 282.953C593.873 286.755 593.199 290.064 591.851 292.881C590.52 295.716 588.671 297.919 586.303 299.492C583.936 301.065 581.222 301.851 578.164 301.851C576.159 301.851 574.18 301.453 572.227 300.658C570.274 299.881 568.105 298.489 565.72 296.485C563.353 294.48 560.51 291.654 557.192 288.008L549.596 280.257H549.233V302.551H540.056V264.703Z" fill="#382416"/>
<path d="M539.33 233.237C539.348 230.507 539.806 227.871 540.704 225.331C541.603 222.807 543.063 220.543 545.085 218.539C547.107 216.534 549.786 214.944 553.122 213.769C556.457 212.611 560.553 212.032 565.409 212.032C569.868 212.049 573.852 212.559 577.36 213.561C580.885 214.581 583.875 216.033 586.329 217.916C588.783 219.817 590.65 222.09 591.929 224.734C593.225 227.378 593.873 230.342 593.873 233.626C593.873 237.169 593.182 240.297 591.799 243.01C590.434 245.724 588.576 247.901 586.226 249.543C583.875 251.202 581.24 252.204 578.319 252.55V241.481C580.168 241.049 581.62 240.141 582.674 238.759C583.728 237.376 584.256 235.665 584.256 233.626C584.256 230.17 582.752 227.543 579.745 225.745C576.738 223.965 572.651 223.058 567.483 223.023V223.386C569.056 224.181 570.395 225.253 571.501 226.601C572.625 227.966 573.48 229.513 574.068 231.241C574.673 232.987 574.975 234.827 574.975 236.763C574.975 239.908 574.232 242.708 572.746 245.162C571.277 247.616 569.255 249.552 566.68 250.969C564.104 252.386 561.158 253.094 557.84 253.094C554.245 253.094 551.048 252.256 548.248 250.58C545.448 248.921 543.253 246.596 541.664 243.606C540.091 240.634 539.313 237.177 539.33 233.237ZM548.144 233.185C548.144 234.913 548.559 236.46 549.389 237.826C550.218 239.191 551.342 240.262 552.759 241.04C554.176 241.818 555.766 242.207 557.529 242.207C559.291 242.207 560.873 241.818 562.273 241.04C563.672 240.28 564.787 239.225 565.617 237.877C566.446 236.529 566.861 234.991 566.861 233.263C566.861 231.967 566.619 230.766 566.135 229.66C565.651 228.571 564.977 227.612 564.113 226.782C563.249 225.97 562.247 225.331 561.106 224.864C559.983 224.397 558.782 224.164 557.503 224.164C555.792 224.164 554.228 224.553 552.811 225.331C551.393 226.125 550.261 227.197 549.415 228.545C548.568 229.91 548.144 231.457 548.144 233.185Z" fill="#382416"/>
<path d="M538.89 179.769C538.907 175.31 540.004 171.474 542.182 168.259C544.36 165.062 547.514 162.599 551.644 160.871C555.774 159.16 560.743 158.313 566.55 158.33C572.339 158.33 577.273 159.186 581.352 160.897C585.431 162.625 588.533 165.088 590.659 168.285C592.802 171.499 593.873 175.328 593.873 179.769C593.873 184.211 592.802 188.03 590.659 191.227C588.516 194.442 585.405 196.913 581.326 198.641C577.265 200.369 572.339 201.225 566.55 201.208C560.726 201.208 555.749 200.343 551.618 198.615C547.488 196.904 544.334 194.45 542.156 191.253C539.979 188.056 538.89 184.228 538.89 179.769ZM548.196 179.769C548.196 182.811 549.726 185.239 552.785 187.053C555.844 188.868 560.432 189.767 566.55 189.749C570.577 189.749 573.929 189.335 576.608 188.505C579.287 187.693 581.3 186.535 582.648 185.031C583.996 183.545 584.67 181.791 584.67 179.769C584.67 176.745 583.158 174.325 580.134 172.511C577.109 170.696 572.581 169.78 566.55 169.763C562.471 169.763 559.067 170.169 556.336 170.981C553.623 171.811 551.584 172.977 550.218 174.481C548.87 175.984 548.196 177.747 548.196 179.769Z" fill="#382416"/>
</g>
</svg>
