<svg width="890" height="673" viewBox="0 0 890 673" fill="none" xmlns="http://www.w3.org/2000/svg">
<mask id="mask0_971_1261" style="mask-type:alpha" maskUnits="userSpaceOnUse" x="0" y="0" width="890" height="673">
<path d="M70.1527 634.637C79.8337 644.317 85.8447 657.644 85.8447 672.277L307.399 574.817L501.285 519.421V406.321L637.466 360.157L607.46 286.296L778.264 265.523L889.056 133.957L593.012 0.275879H117.845H85.8437V32.2769C85.8437 46.9089 79.8327 60.2369 70.1527 69.9169C60.4717 79.5979 47.1447 85.6089 32.5117 85.6089H0.511719V618.946H32.5127C47.1447 618.946 60.4727 624.957 70.1527 634.637Z" fill="white"/>
</mask>
<g mask="url(#mask0_971_1261)">
<path d="M1259.18 31.861V-0.139038H593.012L664.875 30.9037L1227.51 30.9027C1226.51 84.2347 1260.18 115.903 1313.51 115.903V506.211L1344.52 519.006V85.193H1312.52C1297.88 85.193 1284.56 79.182 1274.88 69.502C1265.2 59.822 1259.18 46.494 1259.18 31.861Z" fill="#F1AF49"/>
<path d="M70.1527 634.222C79.8337 643.902 85.8447 657.229 85.8447 671.862L114.007 658.953C114.007 618.903 73.0068 585.903 33.5078 585.903L33.5068 116.403C86.8388 116.403 118.84 84.2357 118.84 30.9037H664.875L593.012 -0.139038H117.845H89.5117V30.9037C87.5117 51.361 81.1917 60.681 71.5117 70.361C59.8707 80.7199 46.6447 85.861 32.0117 85.861H0.511719V618.531H32.5127C47.1447 618.531 60.4727 624.542 70.1527 634.222Z" fill="#F1AF49"/>
<path d="M1312.52 618.531H1344.52V519.006L1313.51 506.211V585.403C1281.65 585.403 1258.36 597.923 1244.3 617.573C1233.86 632.157 1228.51 650.668 1228.51 670.904H114.007V658.953L85.8447 671.862V703.862H1259.19V671.862C1259.19 657.229 1265.2 643.902 1274.88 634.222C1284.56 624.541 1297.88 618.531 1312.52 618.531Z" fill="#F1AF49"/>
<path fill-rule="evenodd" clip-rule="evenodd" d="M114.007 670.904V658.953C114.007 618.903 73.0068 585.903 33.5078 585.903L33.5068 116.403C86.8388 116.403 118.84 84.2357 118.84 30.9037H664.875L1227.51 30.9027C1226.51 84.2347 1260.18 115.903 1313.51 115.903V506.211V585.403C1281.65 585.403 1258.36 597.923 1244.3 617.573C1233.86 632.157 1228.51 650.668 1228.51 670.904H114.007ZM125.012 117.361H853.38H1222.01C1225.51 117.361 1227.51 119.861 1227.51 122.861V475.521V580.861C1227.51 584.361 1226.01 586.361 1222.01 586.361H280.352H214.012H125.012C121.512 586.361 119.012 583.861 119.012 580.361L118.847 123.583L118.847 123.529C118.847 119.861 121.512 117.361 125.012 117.361Z" fill="#C68443"/>
<path d="M214.012 586.361H280.352L286.006 583.861H243.012H240.512H125.012C122.512 583.861 121.512 582.861 121.512 580.361V123.583C121.512 120.861 122.512 119.861 125.012 119.861H240.512H243.012H593.012H858.892L853.38 117.361H125.012C121.512 117.361 118.847 119.861 118.847 123.529L118.847 123.583L119.012 580.361C119.012 583.861 121.512 586.361 125.012 586.361H214.012Z" fill="#382416"/>
<path d="M1227.51 580.861V475.521L1225.01 474.601V580.861C1225.01 582.861 1224.51 583.861 1222.01 583.861H1137.51H1106.51H1104.01H593.012H286.006L280.352 586.361H1222.01C1226.01 586.361 1227.51 584.361 1227.51 580.861Z" fill="#382416"/>
<path d="M1222.01 117.361H853.38L858.892 119.861H1103.97H1106.51H1137.51H1222.01C1224.01 119.861 1225.01 120.861 1225.01 122.861V474.601L1227.51 475.521V122.861C1227.51 119.861 1225.51 117.361 1222.01 117.361Z" fill="#382416"/>
<path fill-rule="evenodd" clip-rule="evenodd" d="M778.264 265.108L889.056 133.542L858.892 119.861H1103.97V439.003L870.591 484.383L637.466 359.742L607.46 285.881L778.264 265.108ZM1106.51 438.51L1119.87 435.912L1137.51 442.403L1225.01 474.601V122.861C1225.01 120.861 1224.01 119.861 1222.01 119.861H1137.51H1106.51V438.51Z" fill="#F1AF49"/>
<path fill-rule="evenodd" clip-rule="evenodd" d="M307.399 574.402L501.285 519.006V501.861V405.906L593.012 374.812L637.466 359.742L870.591 484.383L1103.97 439.003L1104.01 583.861H593.012H286.006L307.399 574.402ZM1106.51 438.51V583.861H1137.51H1222.01C1224.51 583.861 1225.01 582.861 1225.01 580.861V474.601L1137.51 442.403L1119.87 435.912L1106.51 438.51Z" fill="#F1AF49"/>
<path fill-rule="evenodd" clip-rule="evenodd" d="M889.056 133.542L778.264 265.108L607.46 285.881L637.466 359.742L593.012 374.812L501.285 405.906V501.861V519.006L307.399 574.402L286.006 583.861H243.012V119.861H593.012H858.892L889.056 133.542ZM240.512 583.861H125.012C122.512 583.861 121.512 582.861 121.512 580.361V123.583C121.512 120.861 122.512 119.861 125.012 119.861H240.512V583.861Z" fill="#F1AF49"/>
<path d="M1106.51 583.861V438.51L1103.97 439.003L1104.01 583.861H1106.51Z" fill="#382416"/>
<path d="M1106.51 438.51V119.861H1103.97V439.003L1106.51 438.51Z" fill="#382416"/>
<path d="M240.512 119.861V583.861H243.012V119.861H240.512Z" fill="#382416"/>
<path d="M767.224 201.861H722.004V504.839H767.224V366.162H883.291V504.839H928.511V201.861H883.291V325.464H767.224V201.861Z" fill="#382416"/>
<path d="M463.628 504.839L417.512 201.861H467.254L493.581 438.243L532.07 278.736H575.784L614.975 438.515L640.6 201.861H664.717H687.328L643.614 504.839H589.35L552.431 346.614L515.49 504.839H463.628Z" fill="#382416"/>
<path d="M201.995 200.66H193.155L158.236 178.496V170.874H170.472V175.385L192.585 189.358H192.999V157.861H201.995V200.66ZM211.327 175.178H199.299L195.384 174.97H158.236V164.445H211.327V175.178Z" fill="#382416"/>
<path d="M211.328 248.348H203.24L185.742 229.449C184.187 227.842 182.787 226.494 181.543 225.405C180.298 224.299 179.08 223.461 177.887 222.891C176.678 222.32 175.373 222.035 173.973 222.035C172.418 222.035 171.078 222.39 169.955 223.098C168.814 223.807 167.942 224.775 167.337 226.002C166.714 227.229 166.403 228.62 166.403 230.175C166.403 231.8 166.732 233.217 167.388 234.427C168.045 235.636 168.987 236.57 170.214 237.226C171.441 237.883 172.902 238.211 174.595 238.211V248.866C171.121 248.866 168.106 248.08 165.548 246.507C162.99 244.934 161.011 242.731 159.612 239.896C158.212 237.062 157.512 233.796 157.512 230.098C157.512 226.295 158.186 222.986 159.534 220.169C160.864 217.335 162.714 215.131 165.081 213.558C167.449 211.986 170.162 211.199 173.221 211.199C175.226 211.199 177.205 211.597 179.158 212.392C181.111 213.17 183.279 214.561 185.664 216.566C188.032 218.57 190.875 221.396 194.193 225.042L201.789 232.794H202.152V210.499H211.328V248.348Z" fill="#382416"/>
<path d="M212.495 281.44C212.478 285.899 211.38 289.735 209.203 292.95C207.025 296.147 203.871 298.61 199.741 300.338C195.61 302.049 190.642 302.896 184.835 302.878C179.045 302.878 174.111 302.023 170.033 300.312C165.954 298.584 162.852 296.121 160.726 292.924C158.583 289.709 157.512 285.881 157.512 281.44C157.512 276.998 158.583 273.179 160.726 269.982C162.869 266.767 165.98 264.296 170.059 262.568C174.12 260.839 179.045 259.984 184.835 260.001C190.659 260.001 195.636 260.865 199.767 262.594C203.897 264.305 207.051 266.759 209.229 269.956C211.406 273.153 212.495 276.981 212.495 281.44ZM203.189 281.44C203.189 278.398 201.659 275.97 198.6 274.155C195.541 272.341 190.953 271.442 184.835 271.459C180.808 271.459 177.455 271.874 174.777 272.704C172.098 273.516 170.085 274.674 168.737 276.177C167.388 277.664 166.714 279.418 166.714 281.44C166.714 284.464 168.227 286.884 171.251 288.698C174.275 290.513 178.803 291.429 184.835 291.446C188.913 291.446 192.318 291.04 195.049 290.228C197.762 289.398 199.801 288.232 201.167 286.728C202.515 285.225 203.189 283.462 203.189 281.44Z" fill="#382416"/>
<path d="M211.328 351.888H203.24L185.742 332.99C184.187 331.382 182.787 330.034 181.543 328.946C180.298 327.84 179.08 327.001 177.887 326.431C176.678 325.861 175.373 325.576 173.973 325.576C172.418 325.576 171.078 325.93 169.955 326.639C168.814 327.347 167.942 328.315 167.337 329.542C166.714 330.769 166.403 332.16 166.403 333.716C166.403 335.34 166.732 336.757 167.388 337.967C168.045 339.177 168.987 340.11 170.214 340.767C171.441 341.423 172.902 341.752 174.595 341.752V352.406C171.121 352.406 168.106 351.62 165.548 350.047C162.99 348.475 161.011 346.271 159.612 343.437C158.212 340.603 157.512 337.336 157.512 333.638C157.512 329.836 158.186 326.526 159.534 323.709C160.864 320.875 162.714 318.671 165.081 317.099C167.449 315.526 170.162 314.74 173.221 314.74C175.226 314.74 177.205 315.137 179.158 315.932C181.111 316.71 183.279 318.101 185.664 320.106C188.032 322.111 190.875 324.936 194.193 328.583L201.789 336.334H202.152V314.04H211.328V351.888Z" fill="#382416"/>
<path d="M158.236 368.156H211.327V379.381H168.891V379.692L176.512 391.85H166.558L158.236 378.707V368.156Z" fill="#382416"/>
<path d="M211.328 440.885H203.24L185.742 421.987C184.187 420.38 182.787 419.032 181.543 417.943C180.298 416.837 179.08 415.999 177.887 415.428C176.678 414.858 175.373 414.573 173.973 414.573C172.418 414.573 171.078 414.927 169.955 415.636C168.814 416.344 167.942 417.312 167.337 418.539C166.714 419.766 166.403 421.157 166.403 422.713C166.403 424.337 166.732 425.754 167.388 426.964C168.045 428.174 168.987 429.107 170.214 429.764C171.441 430.421 172.902 430.749 174.595 430.749V441.403C171.121 441.403 168.106 440.617 165.548 439.044C162.99 437.472 161.011 435.268 159.612 432.434C158.212 429.6 157.512 426.333 157.512 422.635C157.512 418.833 158.186 415.523 159.534 412.706C160.864 409.872 162.714 407.669 165.081 406.096C167.449 404.523 170.162 403.737 173.221 403.737C175.226 403.737 177.205 404.134 179.158 404.929C181.111 405.707 183.279 407.098 185.664 409.103C188.032 411.108 190.875 413.933 194.193 417.58L201.789 425.331H202.152V403.037H211.328V440.885Z" fill="#382416"/>
<path d="M212.054 472.351C212.037 475.081 211.579 477.717 210.68 480.257C209.782 482.78 208.321 485.044 206.299 487.049C204.277 489.054 201.599 490.644 198.263 491.819C194.928 492.977 190.832 493.556 185.975 493.556C181.517 493.539 177.533 493.029 174.025 492.026C170.499 491.007 167.509 489.555 165.055 487.671C162.601 485.77 160.735 483.498 159.456 480.853C158.16 478.209 157.512 475.245 157.512 471.962C157.512 468.419 158.203 465.291 159.586 462.578C160.951 459.864 162.809 457.687 165.159 456.045C167.509 454.386 170.145 453.383 173.066 453.038V464.107C171.217 464.539 169.765 465.446 168.711 466.829C167.656 468.212 167.129 469.923 167.129 471.962C167.129 475.418 168.633 478.045 171.64 479.842C174.647 481.623 178.734 482.53 183.902 482.564V482.202C182.329 481.407 180.99 480.335 179.884 478.987C178.76 477.622 177.905 476.075 177.317 474.347C176.712 472.601 176.41 470.761 176.41 468.825C176.41 465.68 177.153 462.88 178.639 460.426C180.108 457.972 182.13 456.036 184.705 454.619C187.28 453.202 190.227 452.493 193.545 452.493C197.14 452.493 200.337 453.332 203.137 455.008C205.936 456.667 208.131 458.992 209.721 461.981C211.294 464.954 212.072 468.41 212.054 472.351ZM203.24 472.403C203.24 470.674 202.826 469.128 201.996 467.762C201.167 466.397 200.043 465.325 198.626 464.548C197.209 463.77 195.619 463.381 193.856 463.381C192.093 463.381 190.512 463.77 189.112 464.548C187.712 465.308 186.598 466.362 185.768 467.71C184.939 469.058 184.524 470.597 184.524 472.325C184.524 473.621 184.766 474.822 185.25 475.928C185.734 477.017 186.408 477.976 187.272 478.806C188.136 479.618 189.138 480.257 190.279 480.724C191.402 481.19 192.603 481.424 193.882 481.424C195.593 481.424 197.157 481.035 198.574 480.257C199.991 479.462 201.123 478.391 201.97 477.043C202.817 475.677 203.24 474.131 203.24 472.403Z" fill="#382416"/>
<path d="M212.495 525.819C212.478 530.278 211.38 534.114 209.203 537.329C207.025 540.526 203.871 542.989 199.741 544.717C195.61 546.428 190.642 547.275 184.835 547.257C179.045 547.257 174.111 546.402 170.033 544.691C165.954 542.963 162.852 540.5 160.726 537.303C158.583 534.088 157.512 530.26 157.512 525.819C157.512 521.377 158.583 517.558 160.726 514.361C162.869 511.146 165.98 508.675 170.059 506.947C174.12 505.218 179.045 504.363 184.835 504.38C190.659 504.38 195.636 505.244 199.767 506.973C203.897 508.683 207.051 511.138 209.229 514.335C211.406 517.532 212.495 521.36 212.495 525.819ZM203.189 525.819C203.189 522.777 201.659 520.349 198.6 518.534C195.541 516.72 190.953 515.821 184.835 515.838C180.808 515.838 177.455 516.253 174.777 517.083C172.098 517.895 170.085 519.053 168.737 520.556C167.388 522.043 166.714 523.797 166.714 525.819C166.714 528.843 168.227 531.263 171.251 533.077C174.275 534.892 178.803 535.808 184.835 535.825C188.913 535.825 192.318 535.419 195.049 534.607C197.762 533.777 199.801 532.611 201.167 531.107C202.515 529.604 203.189 527.841 203.189 525.819Z" fill="#382416"/>
</g>
</svg>
