<svg width="1356" height="710" viewBox="0 0 1356 710" fill="none" xmlns="http://www.w3.org/2000/svg">
    <path d="M1318.25 624.32H1350.25V524.795L1125.6 441.701L876.32 490.172L643.196 365.531L507.014 411.695V524.795L313.129 580.191L91.5742 677.651V709.651H1264.92V677.651C1264.92 663.018 1270.93 649.691 1280.61 640.011C1290.29 630.33 1303.61 624.32 1318.25 624.32Z" fill="white"/>
    <path d="M1269.88 32V0H603.705L899.749 133.682L788.958 265.247L618.154 286.02L648.16 359.882L881.284 484.522L1130.57 436.051L1355.21 519.145V85.332H1323.21C1308.58 85.332 1295.25 79.321 1285.57 69.641C1275.89 59.961 1269.88 46.633 1269.88 32Z" fill="white"/>
    <path d="M69.641 634.361C79.322 644.041 85.333 657.368 85.333 672.001L306.887 574.541L500.773 519.145V406.045L636.955 359.882L606.948 286.02L777.753 265.247L888.544 133.682L592.5 0H117.333H85.332V32.001C85.332 46.633 79.321 59.961 69.641 69.641C59.96 79.322 46.633 85.333 32 85.333H0V618.67H32.001C46.633 618.67 59.961 624.681 69.641 634.361Z" fill="white"/>
    <path d="M153.066 653.514L195.819 504.305L164.127 336.77L206.834 188.869L175.188 20.0259L1196.47 55.6897L1152.13 221.88L1185.41 372.434L1121.88 536.643L1174.35 689.178L153.066 653.514Z" fill="#BCF3FF" fill-opacity="0.65"/>
    </svg>
    