<svg width="1352" height="711" viewBox="0 0 1352 711" fill="none" xmlns="http://www.w3.org/2000/svg">
    <mask id="mask0_36_18" style="mask-type:alpha" maskUnits="userSpaceOnUse" x="91" y="366" width="1260" height="345">
    <path d="M1318.36 624.935H1350.36V525.409L1125.71 442.316L876.43 490.787L643.305 366.146L507.124 412.309V525.409L313.238 580.805L91.6836 678.266V710.266H1265.02V678.266C1265.02 663.633 1271.04 650.306 1280.72 640.626C1290.4 630.945 1303.72 624.935 1318.36 624.935Z" fill="white"/>
    </mask>
    <g mask="url(#mask0_36_18)">
    <path d="M1265.02 38.2646V6.26465H598.85L670.712 37.3074L1233.34 37.3064C1232.34 90.6384 1266.02 122.306 1319.35 122.306V512.615L1350.36 525.409V91.5966H1318.35C1303.72 91.5966 1290.39 85.5857 1280.71 75.9057C1271.03 66.2257 1265.02 52.8976 1265.02 38.2646Z" fill="#F1AF49"/>
    <path d="M75.9906 640.626C85.6716 650.306 91.6826 663.633 91.6826 678.266L119.845 665.357C119.845 625.306 78.8447 592.306 39.3457 592.306L39.3447 122.806C92.6767 122.806 124.678 90.6394 124.678 37.3074H670.712L598.85 6.26465H123.683H95.3496V37.3074C93.3496 57.7646 87.0296 67.0846 77.3496 76.7646C65.7086 87.1236 52.4826 92.2646 37.8496 92.2646H6.34961V624.935H38.3506C52.9826 624.935 66.3106 630.946 75.9906 640.626Z" fill="#F1AF49"/>
    <path d="M1318.36 624.935H1350.36V525.409L1319.35 512.615V591.806C1287.49 591.806 1264.2 604.326 1250.14 623.976C1239.7 638.56 1234.34 657.072 1234.34 677.307H119.845V665.357L91.6826 678.266V710.266H1265.02V678.266C1265.02 663.633 1271.03 650.306 1280.71 640.626C1290.4 630.945 1303.72 624.935 1318.36 624.935Z" fill="#F1AF49"/>
    <path fill-rule="evenodd" clip-rule="evenodd" d="M119.845 677.307V665.357C119.845 625.306 78.8447 592.306 39.3457 592.306L39.3447 122.806C92.6767 122.806 124.678 90.6394 124.678 37.3074H670.712L1233.34 37.3064C1232.34 90.6384 1266.02 122.306 1319.35 122.306V512.615V591.806C1287.49 591.806 1264.2 604.326 1250.14 623.976C1239.7 638.56 1234.34 657.072 1234.34 677.307H119.845ZM130.85 123.765H859.218H1227.85C1231.35 123.765 1233.35 126.265 1233.35 129.265V481.925V587.265C1233.35 590.765 1231.85 592.765 1227.85 592.765H286.19H219.85H130.85C127.35 592.765 124.85 590.265 124.85 586.765L124.685 129.987L124.685 129.933C124.685 126.265 127.35 123.765 130.85 123.765Z" fill="#C68443"/>
    <path d="M219.85 592.765H286.19L291.844 590.265H248.85H246.35H130.85C128.35 590.265 127.35 589.265 127.35 586.765V129.987C127.35 127.265 128.35 126.265 130.85 126.265H246.35H248.85H598.85H864.73L859.218 123.765H130.85C127.35 123.765 124.685 126.265 124.685 129.933L124.685 129.987L124.85 586.765C124.85 590.265 127.35 592.765 130.85 592.765H219.85Z" fill="#382416"/>
    <path d="M1233.35 587.265V481.925L1230.85 481.005V587.265C1230.85 589.265 1230.35 590.265 1227.85 590.265H1143.35H1112.35H1109.85H598.85H291.844L286.19 592.765H1227.85C1231.85 592.765 1233.35 590.765 1233.35 587.265Z" fill="#382416"/>
    <path d="M1227.85 123.765H859.218L864.73 126.265H1109.81H1112.35H1143.35H1227.85C1229.85 126.265 1230.85 127.265 1230.85 129.265V481.005L1233.35 481.925V129.265C1233.35 126.265 1231.35 123.765 1227.85 123.765Z" fill="#382416"/>
    <path fill-rule="evenodd" clip-rule="evenodd" d="M784.102 271.511L894.894 139.946L864.73 126.265H1109.81V445.407L876.429 490.787L643.304 366.146L613.298 292.285L784.102 271.511ZM1112.35 444.913L1125.71 442.316L1143.35 448.806L1230.85 481.005V129.265C1230.85 127.265 1229.85 126.265 1227.85 126.265H1143.35H1112.35V444.913Z" fill="#F1AF49"/>
    <path fill-rule="evenodd" clip-rule="evenodd" d="M313.237 580.805L507.123 525.409V508.265V412.309L598.85 381.216L643.304 366.146L876.429 490.787L1109.81 445.407L1109.85 590.265H598.85H291.844L313.237 580.805ZM1112.35 444.913V590.265H1143.35H1227.85C1230.35 590.265 1230.85 589.265 1230.85 587.265V481.005L1143.35 448.806L1125.71 442.316L1112.35 444.913Z" fill="#F1AF49"/>
    <path fill-rule="evenodd" clip-rule="evenodd" d="M894.894 139.946L784.102 271.511L613.298 292.285L643.304 366.146L598.85 381.216L507.123 412.309V508.265V525.409L313.237 580.805L291.844 590.265H248.85V126.265H598.85H864.73L894.894 139.946ZM246.35 590.265H130.85C128.35 590.265 127.35 589.265 127.35 586.765V129.987C127.35 127.265 128.35 126.265 130.85 126.265H246.35V590.265Z" fill="#F1AF49"/>
    <path d="M1112.35 590.265V444.913L1109.81 445.407L1109.85 590.265H1112.35Z" fill="#382416"/>
    <path d="M1112.35 444.913V126.265H1109.81V445.407L1112.35 444.913Z" fill="#382416"/>
    <path d="M246.35 126.265V590.265H248.85V126.265H246.35Z" fill="#382416"/>
    <path d="M773.062 208.265H727.842V511.242H773.062V372.566H889.128V511.242H934.349V208.265H889.128V331.868H773.062V208.265Z" fill="#382416"/>
    <path d="M469.466 511.242L423.35 208.265H473.092L499.419 444.646L537.908 285.14H581.621L620.813 444.919L646.438 208.265H670.555H693.165L649.452 511.242H595.188L558.269 353.018L521.327 511.242H469.466Z" fill="#382416"/>
    <path d="M1147.68 510.916H1156.52L1191.44 533.081V540.702H1179.21V536.191L1157.09 522.219H1156.68V553.716H1147.68V510.916ZM1138.35 536.399H1150.38L1154.29 536.606H1191.44V547.131H1138.35V536.399Z" fill="#382416"/>
    <path d="M1138.35 463.229H1146.44L1163.94 482.127C1165.49 483.734 1166.89 485.082 1168.14 486.171C1169.38 487.277 1170.6 488.115 1171.79 488.686C1173 489.256 1174.3 489.541 1175.7 489.541C1177.26 489.541 1178.6 489.187 1179.72 488.478C1180.86 487.77 1181.74 486.802 1182.34 485.575C1182.96 484.348 1183.27 482.957 1183.27 481.401C1183.27 479.777 1182.95 478.36 1182.29 477.15C1181.63 475.94 1180.69 475.007 1179.46 474.35C1178.24 473.693 1176.78 473.365 1175.08 473.365V462.711C1178.56 462.711 1181.57 463.497 1184.13 465.07C1186.69 466.642 1188.67 468.846 1190.07 471.68C1191.47 474.514 1192.17 477.781 1192.17 481.479C1192.17 485.281 1191.49 488.591 1190.14 491.408C1188.81 494.242 1186.96 496.445 1184.6 498.018C1182.23 499.591 1179.52 500.377 1176.46 500.377C1174.45 500.377 1172.47 499.98 1170.52 499.185C1168.57 498.407 1166.4 497.016 1164.01 495.011C1161.65 493.006 1158.8 490.181 1155.48 486.534L1147.89 478.783H1147.53V501.077H1138.35V463.229Z" fill="#382416"/>
    <path d="M1137.18 430.137C1137.2 425.678 1138.3 421.841 1140.47 418.627C1142.65 415.43 1145.81 412.967 1149.94 411.239C1154.07 409.528 1159.04 408.681 1164.84 408.698C1170.63 408.698 1175.57 409.554 1179.65 411.265C1183.72 412.993 1186.83 415.455 1188.95 418.653C1191.09 421.867 1192.17 425.695 1192.17 430.137C1192.17 434.578 1191.09 438.398 1188.95 441.595C1186.81 444.809 1183.7 447.281 1179.62 449.009C1175.56 450.737 1170.63 451.593 1164.84 451.575C1159.02 451.575 1154.04 450.711 1149.91 448.983C1145.78 447.272 1142.63 444.818 1140.45 441.621C1138.27 438.424 1137.18 434.595 1137.18 430.137ZM1146.49 430.137C1146.49 433.178 1148.02 435.607 1151.08 437.421C1154.14 439.236 1158.72 440.134 1164.84 440.117C1168.87 440.117 1172.22 439.702 1174.9 438.873C1177.58 438.061 1179.59 436.903 1180.94 435.399C1182.29 433.913 1182.96 432.159 1182.96 430.137C1182.96 427.112 1181.45 424.693 1178.43 422.878C1175.4 421.064 1170.87 420.148 1164.84 420.13C1160.76 420.13 1157.36 420.536 1154.63 421.349C1151.92 422.178 1149.88 423.345 1148.51 424.848C1147.16 426.352 1146.49 428.115 1146.49 430.137Z" fill="#382416"/>
    <path d="M1138.35 359.689H1146.44L1163.94 378.587C1165.49 380.194 1166.89 381.542 1168.14 382.631C1169.38 383.737 1170.6 384.575 1171.79 385.146C1173 385.716 1174.3 386.001 1175.7 386.001C1177.26 386.001 1178.6 385.647 1179.72 384.938C1180.86 384.23 1181.74 383.262 1182.34 382.035C1182.96 380.808 1183.27 379.416 1183.27 377.861C1183.27 376.237 1182.95 374.819 1182.29 373.61C1181.63 372.4 1180.69 371.467 1179.46 370.81C1178.24 370.153 1176.78 369.825 1175.08 369.825V359.17C1178.56 359.17 1181.57 359.957 1184.13 361.529C1186.69 363.102 1188.67 365.306 1190.07 368.14C1191.47 370.974 1192.17 374.24 1192.17 377.939C1192.17 381.741 1191.49 385.05 1190.14 387.867C1188.81 390.702 1186.96 392.905 1184.6 394.478C1182.23 396.051 1179.52 396.837 1176.46 396.837C1174.45 396.837 1172.47 396.439 1170.52 395.644C1168.57 394.867 1166.4 393.476 1164.01 391.471C1161.65 389.466 1158.8 386.64 1155.48 382.994L1147.89 375.243H1147.53V397.537H1138.35V359.689Z" fill="#382416"/>
    <path d="M164.074 374.56H217.165V385.784H174.729V386.096L182.35 398.254H172.396L164.074 385.11V374.56Z" fill="#382416"/>
    <path d="M217.166 447.289H209.078L191.58 428.391C190.025 426.783 188.625 425.435 187.381 424.347C186.136 423.24 184.918 422.402 183.725 421.832C182.516 421.262 181.211 420.977 179.811 420.977C178.256 420.977 176.916 421.331 175.793 422.039C174.652 422.748 173.779 423.716 173.175 424.943C172.552 426.17 172.241 427.561 172.241 429.116C172.241 430.741 172.57 432.158 173.226 433.368C173.883 434.578 174.825 435.511 176.052 436.168C177.279 436.824 178.739 437.153 180.433 437.153V447.807C176.959 447.807 173.944 447.021 171.386 445.448C168.828 443.875 166.849 441.672 165.449 438.838C164.05 436.003 163.35 432.737 163.35 429.039C163.35 425.237 164.024 421.927 165.372 419.11C166.702 416.276 168.552 414.072 170.919 412.5C173.287 410.927 176 410.141 179.059 410.141C181.064 410.141 183.043 410.538 184.996 411.333C186.948 412.111 189.117 413.502 191.502 415.507C193.87 417.511 196.713 420.337 200.031 423.984L207.627 431.735H207.99V409.441H217.166V447.289Z" fill="#382416"/>
    <path d="M217.892 478.754C217.875 481.485 217.417 484.121 216.518 486.661C215.62 489.184 214.159 491.448 212.137 493.453C210.115 495.458 207.436 497.048 204.101 498.223C200.766 499.381 196.67 499.96 191.813 499.96C187.355 499.942 183.371 499.433 179.863 498.43C176.337 497.411 173.347 495.959 170.893 494.075C168.439 492.174 166.573 489.901 165.294 487.257C163.998 484.613 163.35 481.649 163.35 478.366C163.35 474.823 164.041 471.695 165.423 468.981C166.789 466.268 168.647 464.091 170.997 462.449C173.347 460.79 175.983 459.787 178.904 459.442V470.511C177.054 470.943 175.603 471.85 174.548 473.233C173.494 474.615 172.967 476.326 172.967 478.366C172.967 481.822 174.471 484.449 177.478 486.246C180.485 488.026 184.572 488.934 189.74 488.968V488.605C188.167 487.81 186.827 486.739 185.721 485.391C184.598 484.026 183.743 482.479 183.155 480.751C182.55 479.005 182.248 477.165 182.248 475.229C182.248 472.084 182.991 469.284 184.477 466.83C185.946 464.376 187.968 462.44 190.543 461.023C193.118 459.606 196.065 458.897 199.383 458.897C202.978 458.897 206.175 459.735 208.975 461.412C211.774 463.071 213.969 465.395 215.559 468.385C217.132 471.358 217.91 474.814 217.892 478.754ZM209.078 478.806C209.078 477.078 208.664 475.531 207.834 474.166C207.004 472.801 205.881 471.729 204.464 470.952C203.047 470.174 201.457 469.785 199.694 469.785C197.931 469.785 196.35 470.174 194.95 470.952C193.55 471.712 192.436 472.766 191.606 474.114C190.776 475.462 190.362 477 190.362 478.729C190.362 480.025 190.604 481.226 191.088 482.332C191.571 483.421 192.245 484.38 193.11 485.209C193.974 486.022 194.976 486.661 196.117 487.128C197.24 487.594 198.441 487.828 199.72 487.828C201.431 487.828 202.995 487.439 204.412 486.661C205.829 485.866 206.961 484.795 207.808 483.447C208.655 482.081 209.078 480.535 209.078 478.806Z" fill="#382416"/>
    <path d="M218.333 532.222C218.316 536.681 217.218 540.518 215.041 543.732C212.863 546.93 209.709 549.392 205.579 551.121C201.448 552.831 196.48 553.678 190.673 553.661C184.883 553.661 179.949 552.806 175.871 551.095C171.792 549.366 168.69 546.904 166.564 543.706C164.421 540.492 163.35 536.664 163.35 532.222C163.35 527.781 164.421 523.962 166.564 520.764C168.707 517.55 171.818 515.078 175.896 513.35C179.958 511.622 184.883 510.767 190.673 510.784C196.497 510.784 201.474 511.648 205.605 513.376C209.735 515.087 212.889 517.541 215.067 520.738C217.244 523.936 218.333 527.764 218.333 532.222ZM209.026 532.222C209.026 529.181 207.497 526.753 204.438 524.938C201.379 523.123 196.791 522.225 190.673 522.242C186.646 522.242 183.293 522.657 180.615 523.486C177.936 524.299 175.922 525.456 174.574 526.96C173.226 528.446 172.552 530.2 172.552 532.222C172.552 535.247 174.065 537.666 177.089 539.481C180.113 541.296 184.641 542.212 190.673 542.229C194.751 542.229 198.156 541.823 200.887 541.01C203.6 540.181 205.639 539.014 207.004 537.511C208.352 536.007 209.026 534.244 209.026 532.222Z" fill="#382416"/>
    </g>
    <mask id="mask1_36_18" style="mask-type:alpha" maskUnits="userSpaceOnUse" x="599" y="0" width="753" height="520">
    <path d="M1266.04 32.6148V0.614807H599.863L895.908 134.296L785.116 265.862L614.312 286.635L644.318 360.496L877.442 485.137L1126.72 436.666L1351.37 519.76V85.9468H1319.37C1304.74 85.9468 1291.41 79.9358 1281.73 70.2558C1272.05 60.5758 1266.04 47.2478 1266.04 32.6148Z" fill="white"/>
    </mask>
    <g mask="url(#mask1_36_18)">
    <path d="M1266.04 32.6148V0.614807H599.863L671.726 31.6576L1234.36 31.6566C1233.36 84.9886 1267.03 116.657 1320.36 116.657V506.965L1351.37 519.76V85.9468H1319.37C1304.74 85.9468 1291.41 79.9358 1281.73 70.2558C1272.05 60.5758 1266.04 47.2478 1266.04 32.6148Z" fill="#F1AF49"/>
    <path d="M77.0043 634.976C86.6853 644.656 92.6963 657.983 92.6963 672.616L120.858 659.707C120.858 619.657 79.8583 586.657 40.3593 586.657L40.3583 117.157C93.6903 117.157 125.691 84.9896 125.691 31.6576H671.726L599.863 0.614807H124.696H96.3633V31.6576C94.3633 52.1148 88.0433 61.4348 78.3633 71.1148C66.7223 81.4738 53.4963 86.6148 38.8633 86.6148H7.36328V619.285H39.3643C53.9963 619.285 67.3243 625.296 77.0043 634.976Z" fill="#F1AF49"/>
    <path d="M1319.37 619.285H1351.37V519.76L1320.36 506.965V586.157C1288.5 586.157 1265.21 598.676 1251.15 618.327C1240.71 632.91 1235.36 651.422 1235.36 671.658H120.858V659.707L92.6963 672.616V704.616H1266.04V672.616C1266.04 657.983 1272.05 644.656 1281.73 634.976C1291.41 625.295 1304.74 619.285 1319.37 619.285Z" fill="#F1AF49"/>
    <path fill-rule="evenodd" clip-rule="evenodd" d="M120.858 671.658V659.707C120.858 619.657 79.8583 586.657 40.3593 586.657L40.3583 117.157C93.6903 117.157 125.691 84.9896 125.691 31.6576H671.726L1234.36 31.6566C1233.36 84.9886 1267.03 116.657 1320.36 116.657V506.965V586.157C1288.5 586.157 1265.21 598.676 1251.15 618.327C1240.71 632.91 1235.36 651.422 1235.36 671.658H120.858ZM131.863 118.115H860.232H1228.86C1232.36 118.115 1234.36 120.615 1234.36 123.615V476.275V581.615C1234.36 585.115 1232.86 587.115 1228.86 587.115H287.204H220.863H131.863C128.363 587.115 125.863 584.615 125.863 581.115L125.699 124.337L125.698 124.283C125.699 120.615 128.363 118.115 131.863 118.115Z" fill="#C68443"/>
    <path d="M220.863 587.115H287.204L292.857 584.615H249.863H247.363H131.863C129.363 584.615 128.363 583.615 128.363 581.115V124.337C128.363 121.615 129.363 120.615 131.863 120.615H247.363H249.863H599.863H865.744L860.232 118.115H131.863C128.363 118.115 125.699 120.615 125.698 124.283L125.699 124.337L125.863 581.115C125.863 584.615 128.363 587.115 131.863 587.115H220.863Z" fill="#382416"/>
    <path d="M1234.36 581.615V476.275L1231.86 475.355V581.615C1231.86 583.615 1231.36 584.615 1228.86 584.615H1144.36H1113.36H1110.86H599.863H292.857L287.204 587.115H1228.86C1232.86 587.115 1234.36 585.115 1234.36 581.615Z" fill="#382416"/>
    <path d="M1228.86 118.115H860.232L865.744 120.615H1110.83H1113.36H1144.36H1228.86C1230.86 120.615 1231.86 121.615 1231.86 123.615V475.355L1234.36 476.275V123.615C1234.36 120.615 1232.36 118.115 1228.86 118.115Z" fill="#382416"/>
    <path fill-rule="evenodd" clip-rule="evenodd" d="M785.116 265.862L895.908 134.296L865.744 120.615H1110.83V439.757L877.442 485.137L644.318 360.496L614.312 286.635L785.116 265.862ZM1113.36 439.264L1126.72 436.666L1144.36 443.157L1231.86 475.355V123.615C1231.86 121.615 1230.86 120.615 1228.86 120.615H1144.36H1113.36V439.264Z" fill="#F1AF49"/>
    <path fill-rule="evenodd" clip-rule="evenodd" d="M314.251 575.155L508.136 519.76V502.615V406.66L599.863 375.566L644.318 360.496L877.442 485.137L1110.83 439.757L1110.86 584.615H599.863H292.857L314.251 575.155ZM1113.36 439.264V584.615H1144.36H1228.86C1231.36 584.615 1231.86 583.615 1231.86 581.615V475.355L1144.36 443.157L1126.72 436.666L1113.36 439.264Z" fill="#F1AF49"/>
    <path fill-rule="evenodd" clip-rule="evenodd" d="M895.908 134.296L785.116 265.862L614.312 286.635L644.318 360.496L599.863 375.566L508.136 406.66V502.615V519.76L314.251 575.155L292.857 584.615H249.863V120.615H599.863H865.744L895.908 134.296ZM247.363 584.615H131.863C129.363 584.615 128.363 583.615 128.363 581.115V124.337C128.363 121.615 129.363 120.615 131.863 120.615H247.363V584.615Z" fill="#F1AF49"/>
    <path d="M1113.36 584.615V439.264L1110.83 439.757L1110.86 584.615H1113.36Z" fill="#382416"/>
    <path d="M1113.36 439.264V120.615H1110.83V439.757L1113.36 439.264Z" fill="#382416"/>
    <path d="M247.363 120.615V584.615H249.863V120.615H247.363Z" fill="#382416"/>
    <path d="M774.076 202.615H728.855V505.593H774.076V366.916H890.142V505.593H935.363V202.615H890.142V326.218H774.076V202.615Z" fill="#382416"/>
    <path d="M470.48 505.593L424.363 202.615H474.106L500.433 438.997L538.922 279.49H582.635L621.826 439.269L647.451 202.615H671.569H694.179L650.466 505.593H596.201L559.283 347.368L522.341 505.593H470.48Z" fill="#382416"/>
    <path d="M1148.7 505.266H1157.54L1192.46 527.431V535.052H1180.22V530.542L1158.11 516.569H1157.69V548.066H1148.7V505.266ZM1139.36 530.749H1151.39L1155.31 530.956H1192.46V541.481H1139.36V530.749Z" fill="#382416"/>
    <path d="M1139.36 457.579H1147.45L1164.95 476.477C1166.5 478.084 1167.9 479.432 1169.15 480.521C1170.39 481.627 1171.61 482.466 1172.8 483.036C1174.01 483.606 1175.32 483.891 1176.72 483.891C1178.27 483.891 1179.61 483.537 1180.74 482.828C1181.88 482.12 1182.75 481.152 1183.35 479.925C1183.98 478.698 1184.29 477.307 1184.29 475.751C1184.29 474.127 1183.96 472.71 1183.3 471.5C1182.65 470.29 1181.7 469.357 1180.48 468.7C1179.25 468.044 1177.79 467.715 1176.1 467.715V457.061C1179.57 457.061 1182.59 457.847 1185.14 459.42C1187.7 460.992 1189.68 463.196 1191.08 466.03C1192.48 468.864 1193.18 472.131 1193.18 475.829C1193.18 479.631 1192.51 482.941 1191.16 485.758C1189.83 488.592 1187.98 490.796 1185.61 492.368C1183.24 493.941 1180.53 494.727 1177.47 494.727C1175.47 494.727 1173.49 494.33 1171.53 493.535C1169.58 492.757 1167.41 491.366 1165.03 489.361C1162.66 487.356 1159.82 484.531 1156.5 480.884L1148.9 473.133H1148.54V495.427H1139.36V457.579Z" fill="#382416"/>
    <path d="M1138.2 424.487C1138.21 420.028 1139.31 416.191 1141.49 412.977C1143.67 409.78 1146.82 407.317 1150.95 405.589C1155.08 403.878 1160.05 403.031 1165.86 403.048C1171.65 403.048 1176.58 403.904 1180.66 405.615C1184.74 407.343 1187.84 409.806 1189.97 413.003C1192.11 416.217 1193.18 420.045 1193.18 424.487C1193.18 428.928 1192.11 432.748 1189.97 435.945C1187.82 439.159 1184.71 441.631 1180.63 443.359C1176.57 445.087 1171.65 445.943 1165.86 445.925C1160.03 445.925 1155.06 445.061 1150.92 443.333C1146.79 441.622 1143.64 439.168 1141.46 435.971C1139.29 432.774 1138.2 428.946 1138.2 424.487ZM1147.5 424.487C1147.5 427.528 1149.03 429.957 1152.09 431.771C1155.15 433.586 1159.74 434.485 1165.86 434.467C1169.88 434.467 1173.24 434.053 1175.91 433.223C1178.59 432.411 1180.61 431.253 1181.95 429.749C1183.3 428.263 1183.98 426.509 1183.98 424.487C1183.98 421.462 1182.46 419.043 1179.44 417.228C1176.42 415.414 1171.89 414.498 1165.86 414.48C1161.78 414.48 1158.37 414.887 1155.64 415.699C1152.93 416.528 1150.89 417.695 1149.52 419.198C1148.18 420.702 1147.5 422.465 1147.5 424.487Z" fill="#382416"/>
    <path d="M1139.36 354.039H1147.45L1164.95 372.937C1166.5 374.544 1167.9 375.892 1169.15 376.981C1170.39 378.087 1171.61 378.925 1172.8 379.496C1174.01 380.066 1175.32 380.351 1176.72 380.351C1178.27 380.351 1179.61 379.997 1180.74 379.288C1181.88 378.58 1182.75 377.612 1183.35 376.385C1183.98 375.158 1184.29 373.767 1184.29 372.211C1184.29 370.587 1183.96 369.17 1183.3 367.96C1182.65 366.75 1181.7 365.817 1180.48 365.16C1179.25 364.503 1177.79 364.175 1176.1 364.175V353.521C1179.57 353.521 1182.59 354.307 1185.14 355.88C1187.7 357.452 1189.68 359.656 1191.08 362.49C1192.48 365.324 1193.18 368.591 1193.18 372.289C1193.18 376.091 1192.51 379.401 1191.16 382.218C1189.83 385.052 1187.98 387.255 1185.61 388.828C1183.24 390.401 1180.53 391.187 1177.47 391.187C1175.47 391.187 1173.49 390.79 1171.53 389.995C1169.58 389.217 1167.41 387.826 1165.03 385.821C1162.66 383.816 1159.82 380.991 1156.5 377.344L1148.9 369.593H1148.54V391.887H1139.36V354.039Z" fill="#382416"/>
    <path d="M1192.46 337.771H1139.36V326.546H1181.8V326.235L1174.18 314.077H1184.13L1192.46 327.22V337.771Z" fill="#382416"/>
    <path d="M1139.36 265.042H1147.45L1164.95 283.94C1166.5 285.547 1167.9 286.895 1169.15 287.984C1170.39 289.09 1171.61 289.928 1172.8 290.498C1174.01 291.069 1175.32 291.354 1176.72 291.354C1178.27 291.354 1179.61 291 1180.74 290.291C1181.88 289.582 1182.75 288.615 1183.35 287.388C1183.98 286.161 1184.29 284.769 1184.29 283.214C1184.29 281.589 1183.96 280.172 1183.3 278.962C1182.65 277.753 1181.7 276.819 1180.48 276.163C1179.25 275.506 1177.79 275.178 1176.1 275.178V264.523C1179.57 264.523 1182.59 265.31 1185.14 266.882C1187.7 268.455 1189.68 270.658 1191.08 273.493C1192.48 276.327 1193.18 279.593 1193.18 283.292C1193.18 287.094 1192.51 290.403 1191.16 293.22C1189.83 296.055 1187.98 298.258 1185.61 299.831C1183.24 301.403 1180.53 302.19 1177.47 302.19C1175.47 302.19 1173.49 301.792 1171.53 300.997C1169.58 300.22 1167.41 298.828 1165.03 296.824C1162.66 294.819 1159.82 291.993 1156.5 288.347L1148.9 280.596H1148.54V302.89H1139.36V265.042Z" fill="#382416"/>
    <path d="M1138.64 233.576C1138.65 230.845 1139.11 228.21 1140.01 225.669C1140.91 223.146 1142.37 220.882 1144.39 218.877C1146.41 216.873 1149.09 215.283 1152.43 214.108C1155.76 212.95 1159.86 212.371 1164.72 212.371C1169.17 212.388 1173.16 212.898 1176.67 213.9C1180.19 214.92 1183.18 216.372 1185.64 218.255C1188.09 220.156 1189.96 222.429 1191.24 225.073C1192.53 227.717 1193.18 230.681 1193.18 233.965C1193.18 237.508 1192.49 240.636 1191.11 243.349C1189.74 246.062 1187.88 248.24 1185.53 249.882C1183.18 251.541 1180.55 252.543 1177.63 252.889V241.82C1179.47 241.388 1180.93 240.48 1181.98 239.098C1183.04 237.715 1183.56 236.004 1183.56 233.965C1183.56 230.508 1182.06 227.881 1179.05 226.084C1176.04 224.304 1171.96 223.397 1166.79 223.362V223.725C1168.36 224.52 1169.7 225.592 1170.81 226.94C1171.93 228.305 1172.79 229.852 1173.37 231.58C1173.98 233.325 1174.28 235.166 1174.28 237.102C1174.28 240.247 1173.54 243.047 1172.05 245.501C1170.58 247.955 1168.56 249.89 1165.99 251.308C1163.41 252.725 1160.46 253.433 1157.15 253.433C1153.55 253.433 1150.35 252.595 1147.55 250.919C1144.75 249.26 1142.56 246.935 1140.97 243.945C1139.4 240.973 1138.62 237.516 1138.64 233.576ZM1147.45 233.524C1147.45 235.252 1147.87 236.799 1148.7 238.164C1149.52 239.53 1150.65 240.601 1152.07 241.379C1153.48 242.157 1155.07 242.545 1156.84 242.545C1158.6 242.545 1160.18 242.157 1161.58 241.379C1162.98 240.618 1164.09 239.564 1164.92 238.216C1165.75 236.868 1166.17 235.33 1166.17 233.602C1166.17 232.306 1165.93 231.105 1165.44 229.999C1164.96 228.91 1164.28 227.951 1163.42 227.121C1162.56 226.309 1161.55 225.669 1160.41 225.203C1159.29 224.736 1158.09 224.503 1156.81 224.503C1155.1 224.503 1153.53 224.892 1152.12 225.669C1150.7 226.464 1149.57 227.536 1148.72 228.884C1147.87 230.249 1147.45 231.796 1147.45 233.524Z" fill="#382416"/>
    <path d="M1138.2 180.108C1138.21 175.649 1139.31 171.812 1141.49 168.598C1143.67 165.401 1146.82 162.938 1150.95 161.21C1155.08 159.499 1160.05 158.652 1165.86 158.669C1171.65 158.669 1176.58 159.525 1180.66 161.236C1184.74 162.964 1187.84 165.427 1189.97 168.624C1192.11 171.838 1193.18 175.666 1193.18 180.108C1193.18 184.549 1192.11 188.369 1189.97 191.566C1187.82 194.78 1184.71 197.252 1180.63 198.98C1176.57 200.708 1171.65 201.564 1165.86 201.546C1160.03 201.546 1155.06 200.682 1150.92 198.954C1146.79 197.243 1143.64 194.789 1141.46 191.592C1139.29 188.395 1138.2 184.567 1138.2 180.108ZM1147.5 180.108C1147.5 183.15 1149.03 185.578 1152.09 187.392C1155.15 189.207 1159.74 190.106 1165.86 190.088C1169.88 190.088 1173.24 189.674 1175.91 188.844C1178.59 188.032 1180.61 186.874 1181.95 185.37C1183.3 183.884 1183.98 182.13 1183.98 180.108C1183.98 177.084 1182.46 174.664 1179.44 172.849C1176.42 171.035 1171.89 170.119 1165.86 170.101C1161.78 170.101 1158.37 170.508 1155.64 171.32C1152.93 172.149 1150.89 173.316 1149.52 174.82C1148.18 176.323 1147.5 178.086 1147.5 180.108Z" fill="#382416"/>
    </g>
    <mask id="mask2_36_18" style="mask-type:alpha" maskUnits="userSpaceOnUse" x="0" y="0" width="889" height="673">
    <path d="M69.7504 634.976C79.4314 644.656 85.4424 657.983 85.4424 672.616L306.997 575.155L500.882 519.76V406.66L637.064 360.496L607.058 286.635L777.862 265.862L888.654 134.296L592.609 0.614807H117.442H85.4414V32.6158C85.4414 47.2478 79.4304 60.5758 69.7504 70.2558C60.0694 79.9368 46.7424 85.9478 32.1094 85.9478H0.109375V619.285H32.1104C46.7424 619.285 60.0704 625.296 69.7504 634.976Z" fill="white"/>
    </mask>
    <g mask="url(#mask2_36_18)">
    <path d="M1258.78 32.1999V0.19989H592.609L664.472 31.2427L1227.1 31.2417C1226.1 84.5737 1259.78 116.242 1313.11 116.242V506.55L1344.12 519.345V85.5319H1312.11C1297.48 85.5319 1284.15 79.5209 1274.47 69.8409C1264.79 60.1609 1258.78 46.8329 1258.78 32.1999Z" fill="#F1AF49"/>
    <path d="M69.7504 634.561C79.4314 644.241 85.4424 657.568 85.4424 672.201L113.604 659.292C113.604 619.242 72.6044 586.242 33.1054 586.242L33.1044 116.742C86.4364 116.742 118.437 84.5747 118.437 31.2427H664.472L592.609 0.19989H117.442H89.1094V31.2427C87.1094 51.6999 80.7894 61.0199 71.1094 70.6999C59.4684 81.0589 46.2424 86.1999 31.6094 86.1999H0.109375V618.87H32.1104C46.7424 618.87 60.0704 624.881 69.7504 634.561Z" fill="#F1AF49"/>
    <path d="M1312.12 618.87H1344.12V519.345L1313.11 506.55V585.742C1281.25 585.742 1257.96 598.261 1243.9 617.912C1233.46 632.495 1228.1 651.007 1228.1 671.243H113.604V659.292L85.4424 672.201V704.201H1258.78V672.201C1258.78 657.568 1264.79 644.241 1274.47 634.561C1284.16 624.88 1297.48 618.87 1312.12 618.87Z" fill="#F1AF49"/>
    <path fill-rule="evenodd" clip-rule="evenodd" d="M113.604 671.243V659.292C113.604 619.242 72.6044 586.242 33.1054 586.242L33.1044 116.742C86.4364 116.742 118.437 84.5747 118.437 31.2427H664.472L1227.1 31.2417C1226.1 84.5737 1259.78 116.242 1313.11 116.242V506.55V585.742C1281.25 585.742 1257.96 598.261 1243.9 617.912C1233.46 632.495 1228.1 651.007 1228.1 671.243H113.604ZM124.609 117.7H852.978H1221.61C1225.11 117.7 1227.11 120.2 1227.11 123.2V475.86V581.2C1227.11 584.7 1225.61 586.7 1221.61 586.7H279.95H213.609H124.609C121.109 586.7 118.609 584.2 118.609 580.7L118.445 123.922L118.445 123.868C118.445 120.2 121.109 117.7 124.609 117.7Z" fill="#C68443"/>
    <path d="M213.609 586.7H279.95L285.604 584.2H242.609H240.109H124.609C122.109 584.2 121.109 583.2 121.109 580.7V123.922C121.109 121.2 122.109 120.2 124.609 120.2H240.109H242.609H592.609H858.49L852.978 117.7H124.609C121.109 117.7 118.445 120.2 118.445 123.868L118.445 123.922L118.609 580.7C118.609 584.2 121.109 586.7 124.609 586.7H213.609Z" fill="#382416"/>
    <path d="M1227.11 581.2V475.86L1224.61 474.94V581.2C1224.61 583.2 1224.11 584.2 1221.61 584.2H1137.11H1106.11H1103.61H592.609H285.604L279.95 586.7H1221.61C1225.61 586.7 1227.11 584.7 1227.11 581.2Z" fill="#382416"/>
    <path d="M1221.61 117.7H852.978L858.49 120.2H1103.57H1106.11H1137.11H1221.61C1223.61 120.2 1224.61 121.2 1224.61 123.2V474.94L1227.11 475.86V123.2C1227.11 120.2 1225.11 117.7 1221.61 117.7Z" fill="#382416"/>
    <path fill-rule="evenodd" clip-rule="evenodd" d="M777.862 265.447L888.654 133.881L858.49 120.2H1103.57V439.342L870.188 484.722L637.064 360.081L607.058 286.22L777.862 265.447ZM1106.11 438.849L1119.47 436.251L1137.11 442.742L1224.61 474.94V123.2C1224.61 121.2 1223.61 120.2 1221.61 120.2H1137.11H1106.11V438.849Z" fill="#F1AF49"/>
    <path fill-rule="evenodd" clip-rule="evenodd" d="M306.997 574.741L500.882 519.345V502.2V406.245L592.609 375.151L637.064 360.081L870.188 484.722L1103.57 439.342L1103.61 584.2H592.609H285.604L306.997 574.741ZM1106.11 438.849V584.2H1137.11H1221.61C1224.11 584.2 1224.61 583.2 1224.61 581.2V474.94L1137.11 442.742L1119.47 436.251L1106.11 438.849Z" fill="#F1AF49"/>
    <path fill-rule="evenodd" clip-rule="evenodd" d="M888.654 133.881L777.862 265.447L607.058 286.22L637.064 360.081L592.609 375.151L500.882 406.245V502.2V519.345L306.997 574.741L285.604 584.2H242.609V120.2H592.609H858.49L888.654 133.881ZM240.109 584.2H124.609C122.109 584.2 121.109 583.2 121.109 580.7V123.922C121.109 121.2 122.109 120.2 124.609 120.2H240.109V584.2Z" fill="#F1AF49"/>
    <path d="M1106.11 584.2V438.849L1103.57 439.342L1103.61 584.2H1106.11Z" fill="#382416"/>
    <path d="M1106.11 438.849V120.2H1103.57V439.342L1106.11 438.849Z" fill="#382416"/>
    <path d="M240.109 120.2V584.2H242.609V120.2H240.109Z" fill="#382416"/>
    <path d="M766.822 202.2H721.602V505.178H766.822V366.501H882.888V505.178H928.109V202.2H882.888V325.803H766.822V202.2Z" fill="#382416"/>
    <path d="M463.226 505.178L417.109 202.2H466.852L493.179 438.582L531.668 279.075H575.381L614.572 438.854L640.197 202.2H664.315H686.925L643.212 505.178H588.947L552.029 346.953L515.087 505.178H463.226Z" fill="#382416"/>
    <path d="M201.593 200.999H192.753L157.834 178.835V171.213H170.07V175.724L192.182 189.697H192.597V158.2H201.593V200.999ZM210.925 175.517H198.896L194.982 175.309H157.834V164.784H210.925V175.517Z" fill="#382416"/>
    <path d="M210.926 248.686H202.838L185.34 229.788C183.784 228.181 182.385 226.833 181.14 225.744C179.896 224.638 178.678 223.8 177.485 223.23C176.275 222.659 174.971 222.374 173.571 222.374C172.015 222.374 170.676 222.729 169.553 223.437C168.412 224.146 167.539 225.114 166.934 226.341C166.312 227.568 166.001 228.959 166.001 230.514C166.001 232.139 166.329 233.556 166.986 234.766C167.643 235.975 168.585 236.909 169.812 237.565C171.039 238.222 172.499 238.55 174.193 238.55V249.205C170.719 249.205 167.703 248.419 165.146 246.846C162.588 245.273 160.609 243.07 159.209 240.235C157.809 237.401 157.109 234.135 157.109 230.436C157.109 226.634 157.783 223.325 159.131 220.508C160.462 217.674 162.311 215.47 164.679 213.897C167.047 212.325 169.76 211.538 172.819 211.538C174.824 211.538 176.802 211.936 178.755 212.731C180.708 213.509 182.877 214.9 185.262 216.905C187.63 218.909 190.473 221.735 193.791 225.381L201.386 233.133H201.749V210.838H210.926V248.686Z" fill="#382416"/>
    <path d="M212.093 281.779C212.075 286.238 210.978 290.074 208.8 293.289C206.623 296.486 203.469 298.949 199.338 300.677C195.208 302.388 190.239 303.235 184.433 303.217C178.643 303.217 173.709 302.362 169.63 300.651C165.552 298.923 162.45 296.46 160.324 293.263C158.181 290.048 157.109 286.22 157.109 281.779C157.109 277.337 158.181 273.518 160.324 270.321C162.467 267.106 165.578 264.635 169.656 262.907C173.718 261.178 178.643 260.323 184.433 260.34C190.257 260.34 195.234 261.204 199.364 262.933C203.495 264.644 206.649 267.098 208.826 270.295C211.004 273.492 212.093 277.32 212.093 281.779ZM202.786 281.779C202.786 278.737 201.257 276.309 198.198 274.494C195.139 272.68 190.55 271.781 184.433 271.798C180.406 271.798 177.053 272.213 174.374 273.043C171.696 273.855 169.682 275.013 168.334 276.516C166.986 278.003 166.312 279.757 166.312 281.779C166.312 284.803 167.824 287.223 170.849 289.037C173.873 290.852 178.401 291.768 184.433 291.785C188.511 291.785 191.916 291.379 194.646 290.567C197.36 289.737 199.399 288.571 200.764 287.067C202.112 285.564 202.786 283.801 202.786 281.779Z" fill="#382416"/>
    <path d="M210.926 352.227H202.838L185.34 333.329C183.784 331.721 182.385 330.373 181.14 329.285C179.896 328.178 178.678 327.34 177.485 326.77C176.275 326.2 174.971 325.915 173.571 325.915C172.015 325.915 170.676 326.269 169.553 326.977C168.412 327.686 167.539 328.654 166.934 329.881C166.312 331.108 166.001 332.499 166.001 334.054C166.001 335.679 166.329 337.096 166.986 338.306C167.643 339.516 168.585 340.449 169.812 341.106C171.039 341.762 172.499 342.091 174.193 342.091V352.745C170.719 352.745 167.703 351.959 165.146 350.386C162.588 348.813 160.609 346.61 159.209 343.776C157.809 340.941 157.109 337.675 157.109 333.977C157.109 330.175 157.783 326.865 159.131 324.048C160.462 321.214 162.311 319.01 164.679 317.438C167.047 315.865 169.76 315.079 172.819 315.079C174.824 315.079 176.802 315.476 178.755 316.271C180.708 317.049 182.877 318.44 185.262 320.445C187.63 322.449 190.473 325.275 193.791 328.922L201.386 336.673H201.749V314.379H210.926V352.227Z" fill="#382416"/>
    <path d="M157.834 368.495H210.925V379.72H168.488V380.031L176.11 392.189H166.155L157.834 379.046V368.495Z" fill="#382416"/>
    <path d="M210.926 441.224H202.838L185.34 422.326C183.784 420.719 182.385 419.371 181.14 418.282C179.896 417.176 178.678 416.338 177.485 415.767C176.275 415.197 174.971 414.912 173.571 414.912C172.015 414.912 170.676 415.266 169.553 415.975C168.412 416.683 167.539 417.651 166.934 418.878C166.312 420.105 166.001 421.496 166.001 423.052C166.001 424.676 166.329 426.093 166.986 427.303C167.643 428.513 168.585 429.446 169.812 430.103C171.039 430.76 172.499 431.088 174.193 431.088V441.742C170.719 441.742 167.703 440.956 165.146 439.383C162.588 437.811 160.609 435.607 159.209 432.773C157.809 429.939 157.109 426.672 157.109 422.974C157.109 419.172 157.783 415.862 159.131 413.045C160.462 410.211 162.311 408.008 164.679 406.435C167.047 404.862 169.76 404.076 172.819 404.076C174.824 404.076 176.802 404.473 178.755 405.268C180.708 406.046 182.877 407.437 185.262 409.442C187.63 411.447 190.473 414.272 193.791 417.919L201.386 425.67H201.749V403.376H210.926V441.224Z" fill="#382416"/>
    <path d="M211.652 472.69C211.635 475.42 211.177 478.056 210.278 480.596C209.379 483.119 207.919 485.383 205.897 487.388C203.875 489.393 201.196 490.983 197.861 492.158C194.525 493.316 190.429 493.895 185.573 493.895C181.114 493.878 177.131 493.368 173.623 492.365C170.097 491.346 167.107 489.894 164.653 488.01C162.199 486.109 160.333 483.837 159.054 481.192C157.757 478.548 157.109 475.584 157.109 472.301C157.109 468.758 157.801 465.63 159.183 462.917C160.549 460.203 162.406 458.026 164.757 456.384C167.107 454.725 169.743 453.722 172.663 453.377V464.446C170.814 464.878 169.362 465.785 168.308 467.168C167.254 468.551 166.727 470.261 166.727 472.301C166.727 475.757 168.23 478.384 171.238 480.181C174.245 481.962 178.332 482.869 183.499 482.903V482.54C181.927 481.746 180.587 480.674 179.481 479.326C178.358 477.961 177.502 476.414 176.915 474.686C176.31 472.94 176.007 471.1 176.007 469.164C176.007 466.019 176.751 463.219 178.237 460.765C179.706 458.311 181.728 456.375 184.303 454.958C186.878 453.541 189.825 452.832 193.143 452.832C196.737 452.832 199.935 453.671 202.734 455.347C205.534 457.006 207.729 459.331 209.319 462.32C210.892 465.293 211.669 468.749 211.652 472.69ZM202.838 472.741C202.838 471.013 202.423 469.467 201.594 468.101C200.764 466.736 199.641 465.664 198.224 464.887C196.807 464.109 195.217 463.72 193.454 463.72C191.691 463.72 190.11 464.109 188.71 464.887C187.31 465.647 186.195 466.701 185.366 468.049C184.536 469.397 184.121 470.935 184.121 472.664C184.121 473.96 184.363 475.161 184.847 476.267C185.331 477.356 186.005 478.315 186.869 479.145C187.733 479.957 188.736 480.596 189.876 481.063C191 481.529 192.201 481.763 193.48 481.763C195.191 481.763 196.755 481.374 198.172 480.596C199.589 479.801 200.721 478.73 201.568 477.382C202.415 476.016 202.838 474.47 202.838 472.741Z" fill="#382416"/>
    <path d="M212.093 526.158C212.075 530.617 210.978 534.453 208.8 537.668C206.623 540.865 203.469 543.328 199.338 545.056C195.208 546.767 190.239 547.614 184.433 547.596C178.643 547.596 173.709 546.741 169.63 545.03C165.552 543.302 162.45 540.839 160.324 537.642C158.181 534.427 157.109 530.599 157.109 526.158C157.109 521.716 158.181 517.897 160.324 514.7C162.467 511.485 165.578 509.014 169.656 507.286C173.718 505.557 178.643 504.702 184.433 504.719C190.257 504.719 195.234 505.583 199.364 507.311C203.495 509.022 206.649 511.477 208.826 514.674C211.004 517.871 212.093 521.699 212.093 526.158ZM202.786 526.158C202.786 523.116 201.257 520.688 198.198 518.873C195.139 517.059 190.55 516.16 184.433 516.177C180.406 516.177 177.053 516.592 174.374 517.422C171.696 518.234 169.682 519.392 168.334 520.895C166.986 522.382 166.312 524.136 166.312 526.158C166.312 529.182 167.824 531.602 170.849 533.416C173.873 535.231 178.401 536.147 184.433 536.164C188.511 536.164 191.916 535.758 194.646 534.946C197.36 534.116 199.399 532.95 200.764 531.446C202.112 529.943 202.786 528.18 202.786 526.158Z" fill="#382416"/>
    </g>
    <path d="M199.32 665.058L242.073 515.849L210.381 348.314L253.088 200.414L221.442 31.57L1242.72 67.2339L1198.39 233.424L1231.66 383.978L1168.13 548.188L1220.6 700.722L199.32 665.058Z" fill="#BCF3FF" fill-opacity="0.65"/>
    </svg>
    