<svg width="19" height="19" viewBox="0 0 19 19" fill="none" xmlns="http://www.w3.org/2000/svg">
    <path d="M17 0.128335H16V18.1283H17V17.1283H18V16.1283H19V2.12834H18V1.12834H17V0.128335Z" fill="#E2A93F"/>
    <path d="M16 0.128326H2V1.12833H1V2.12833H0V16.1283H1V17.1283H2V18.1283H16V17.1283H17V16.1283H18V2.12833H17V1.12833H16V0.128326Z" fill="#CE7C35"/>
    <path d="M16 1.12833H2V2.12833H1V16.1283H2V17.1283H16V16.1283H17V2.12833H16V1.12833Z" fill="#F7D046"/>
    <rect x="12" y="12.1283" width="4" height="4" fill="#CE7C35"/>
    <rect x="13" y="13.1283" width="2" height="2" fill="#E2A93F"/>
    <rect x="14" y="14.1284" width="1" height="1" fill="#F7D046"/>
    <rect x="7.00002" y="12.1283" width="4" height="4" fill="#CE7C35"/>
    <rect x="8.00002" y="13.1283" width="2" height="2" fill="#E2A93F"/>
    <rect x="9.00002" y="14.1284" width="1" height="1" fill="#F7D046"/>
    <rect x="2" y="12.1283" width="4" height="4" fill="#CE7C35"/>
    <rect x="3" y="13.1283" width="2" height="2" fill="#E2A93F"/>
    <rect x="4.00003" y="14.1284" width="1" height="1" fill="#F7D046"/>
    <rect x="12" y="7.12836" width="4" height="4" fill="#CE7C35"/>
    <rect x="13" y="8.12836" width="2" height="2" fill="#E2A93F"/>
    <rect x="14" y="9.12836" width="1" height="1" fill="#F7D046"/>
    <rect x="7.00002" y="7.12836" width="4" height="4" fill="#CE7C35"/>
    <rect x="8.00002" y="8.12836" width="2" height="2" fill="#E2A93F"/>
    <rect x="9.00002" y="9.12836" width="1" height="1" fill="#F7D046"/>
    <rect x="2" y="7.12836" width="4" height="4" fill="#CE7C35"/>
    <rect x="3" y="8.12836" width="2" height="2" fill="#E2A93F"/>
    <rect x="4.00003" y="9.12836" width="1" height="1" fill="#F7D046"/>
    <rect x="12" y="2.12833" width="4" height="4" fill="#CE7C35"/>
    <rect x="13" y="3.12833" width="2" height="2" fill="#E2A93F"/>
    <rect x="14" y="4.12836" width="1" height="1" fill="#F7D046"/>
    <rect x="7.00002" y="2.12833" width="4" height="4" fill="#CE7C35"/>
    <rect x="8.00002" y="3.12833" width="2" height="2" fill="#E2A93F"/>
    <rect x="9.00002" y="4.12836" width="1" height="1" fill="#F7D046"/>
    <rect x="2" y="2.12833" width="4" height="4" fill="#CE7C35"/>
    <rect x="3" y="3.12833" width="2" height="2" fill="#E2A93F"/>
    <rect x="4.00003" y="4.12836" width="1" height="1" fill="#F7D046"/>
    <path d="M7 6.12833H5V7.12833H4V9.12833H7V6.12833Z" fill="#763E30"/>
    <path d="M14 6.12833H12V7.12833H11V9.12833H14V6.12833Z" fill="#763E30"/>
    <path d="M13 10.1283H5V13.1283H6V14.1283H7V15.1283H11V14.1283H12V13.1283H13V10.1283Z" fill="#763E30"/>
    <path d="M6 11.1283V13.1283H7V14.1283H11V13.1283H12V11.1283H6Z" fill="#DF809E"/>
    </svg>
    