<svg width="116" height="51" viewBox="0 0 116 51" fill="none" xmlns="http://www.w3.org/2000/svg">
    <path d="M29.2596 39.8396V39.5299C29.2596 36.3001 31.8779 33.6819 35.1076 33.6819H38.3112C39.7717 33.6819 40.9556 32.498 40.9556 31.0375C40.9556 29.577 39.7717 28.3931 38.3112 28.3931H6.33643C4.1703 28.3931 2.26597 29.8274 1.66803 31.9094C1.0211 34.162 2.0749 36.5553 4.17327 37.599L9.05754 40.0285L20.4771 45.4098C24.5614 47.3345 29.2596 44.3547 29.2596 39.8396Z" fill="#C68443" stroke="#9D6832" stroke-width="1.1281"/>
    <path d="M59.5304 12.5266C59.5304 18.6384 54.5492 23.598 48.3985 23.598C42.2477 23.598 37.2666 18.6384 37.2666 12.5266C37.2666 6.41476 42.2477 1.45516 48.3985 1.45516C54.5492 1.45516 59.5304 6.41476 59.5304 12.5266Z" fill="#C68443" stroke="#9D6832" stroke-width="1.1281"/>
    <path d="M112.959 43.5958L77.8805 49.2932C70.2285 50.5361 63.2842 44.6287 63.2842 36.8764L112.553 37.8567C114.126 37.888 115.384 39.1717 115.384 40.7446C115.384 42.1612 114.357 43.3687 112.959 43.5958Z" fill="#C68443"/>
    <path d="M63.2842 36.8764V36.8764C63.2842 44.6287 70.2285 50.5361 77.8805 49.2932L112.959 43.5958C114.357 43.3687 115.384 42.1612 115.384 40.7446V40.7446C115.384 39.1717 114.126 37.888 112.553 37.8567L62.2209 36.8552" stroke="#9D6832" stroke-width="1.1281"/>
    </svg>
    