<svg width="38" height="84" viewBox="0 0 38 84" fill="none" xmlns="http://www.w3.org/2000/svg">
    <path d="M34.2477 1.23008L3.43452 4.87742C2.21961 5.02123 1.34022 6.10327 1.45075 7.31834L8.18284 81.3276C8.30339 82.653 9.54342 83.5859 10.8544 83.3376L12.2723 83.0691C13.3556 82.8639 14.1322 81.9088 14.1096 80.8094L12.8742 20.681C12.8482 19.4189 13.8671 18.3818 15.133 18.3818H24.8731C26.0916 18.3818 27.0906 19.3454 27.1312 20.5598L28.5676 63.534C28.6079 64.7393 29.5927 65.6993 30.8019 65.7119L32.195 65.7265C33.4184 65.7393 34.4298 64.7786 34.4764 63.5594L36.7717 3.55334C36.8246 2.17017 35.6261 1.06693 34.2477 1.23008Z" fill="#C68443" stroke="#9D6832" stroke-width="1.1281"/>
    </svg>
    