<svg width="82" height="131" viewBox="0 0 82 131" fill="none" xmlns="http://www.w3.org/2000/svg">
    <path d="M19.0862 50.7831V50.5772C19.0862 48.4299 20.8269 46.6892 22.9741 46.6892H25.104C26.0749 46.6892 26.8621 45.9021 26.8621 44.9311C26.8621 43.9602 26.0749 43.173 25.104 43.173H3.84609C2.40597 43.173 1.13991 44.1267 0.74238 45.5108C0.312275 47.0084 1.01288 48.5995 2.40794 49.2935L5.65517 50.9087L13.2473 54.4863C15.9627 55.7659 19.0862 53.7849 19.0862 50.7831Z" fill="#C68443" stroke="#9D6832"/>
    <path d="M39.0862 32.6244C39.0862 36.6181 35.8311 39.8601 31.8103 39.8601C27.7896 39.8601 24.5345 36.6181 24.5345 32.6244C24.5345 28.6307 27.7896 25.3888 31.8103 25.3888C35.8311 25.3888 39.0862 28.6307 39.0862 32.6244Z" fill="#C68443" stroke="#9D6832"/>
    <path d="M50.8966 86.7739C54.2398 86.7993 57.5589 85.7152 60.6642 83.5835C63.7695 81.4517 66.6004 78.3141 68.995 74.3497C71.3897 70.3852 73.3013 65.6717 74.6208 60.4782C75.9402 55.2846 76.6416 49.7128 76.685 44.0808C76.7283 38.4488 76.1127 32.867 74.8734 27.6539C73.634 22.4409 71.7951 17.6988 69.4617 13.6984C67.1283 9.69795 64.3461 6.51755 61.2739 4.33875C58.2018 2.15996 54.8998 1.02545 51.5565 0.999991" stroke="#3C2415" stroke-width="2"/>
    <line x1="82" y1="45.0795" x2="26.8621" y2="45.0795" stroke="#3C2415"/>
    <path d="M74.7323 53.2803L51.411 57.0682C46.3237 57.8945 41.7069 53.967 41.7069 48.813L74.4626 49.4647C75.5081 49.4855 76.3448 50.339 76.3448 51.3847C76.3448 52.3265 75.6619 53.1293 74.7323 53.2803Z" fill="#C68443"/>
    <path d="M41.7069 48.813V48.813C41.7069 53.967 46.3237 57.8945 51.411 57.0682L74.7323 53.2803C75.6619 53.1293 76.3448 52.3265 76.3448 51.3847V51.3847C76.3448 50.339 75.5081 49.4855 74.4626 49.4647L41 48.799" stroke="#9D6832"/>
    <path d="M43.0955 70.3916L23.6752 72.6904C22.5982 72.8179 21.8187 73.7771 21.9166 74.8542L26.2993 123.035C26.4058 124.205 27.5006 125.029 28.658 124.81C29.6145 124.628 30.3001 123.785 30.2802 122.815L29.4778 83.764C29.4548 82.6451 30.358 81.7258 31.4801 81.7258L36.9603 81.7258C38.0405 81.7258 38.926 82.58 38.962 83.6565L39.8855 111.287C39.9209 112.344 40.7848 113.186 41.8456 113.197C42.9189 113.209 43.8061 112.366 43.847 111.296L45.3329 72.4511C45.3798 71.225 44.3173 70.247 43.0955 70.3916Z" fill="#C68443" stroke="#9D6832"/>
    </svg>
    