<svg width="81" height="136" viewBox="0 0 81 136" fill="none" xmlns="http://www.w3.org/2000/svg">
    <path d="M22.8642 76.1579L21.3995 69.525C21.0307 67.855 22.7661 66.5054 24.2939 67.2741L25.862 68.0631C27.3207 68.7971 28.502 69.9844 29.2286 71.4468L29.7071 72.4097C29.9109 72.8199 30.0169 73.2717 30.0169 73.7298C30.0169 74.5133 29.7069 75.2651 29.1546 75.8209L28.3053 76.6756C28.1749 76.8068 28.0578 76.9506 27.9556 77.1048C26.5844 79.1746 23.3996 78.5823 22.8642 76.1579Z" fill="#C68443" stroke="#9D6832" stroke-width="1.1281"/>
    <path d="M2.03721 53.7493L29.4974 132.966C29.8084 133.864 30.6538 134.465 31.6034 134.465C32.8344 134.465 33.8324 133.467 33.8324 132.236V127.401C33.8324 126.992 33.7968 126.584 33.7262 126.181L30.6925 108.881C29.0535 99.535 31.5959 89.9403 37.6477 82.6321L42.9115 75.5694C43.2171 75.1593 43.4853 74.7227 43.7128 74.2648C44.7158 72.2461 44.8777 69.9036 44.1689 67.7639C43.6494 66.1954 42.6862 64.8032 41.3992 63.7671L14.7555 42.3173L13.7036 41.6116C10.9076 39.7358 7.23012 39.8381 4.54276 41.8664C2.56465 43.3593 1.40173 45.694 1.40173 48.1723V49.9758C1.40173 51.2603 1.61652 52.5357 2.03721 53.7493Z" fill="#C68443" stroke="#9D6832" stroke-width="1.1281"/>
    <path d="M79.6168 115.268L65.7607 87.3804C64.8315 85.5102 64.2495 83.4869 64.043 81.4089L63.3532 74.4675C62.8435 69.3385 66.3963 64.6921 71.4796 63.8395L72.3586 63.692C73.3665 63.523 74.4006 63.6046 75.3695 63.9296L75.5 63.9734C77.9594 64.7984 79.6168 67.1024 79.6168 69.6966V69.9358C79.6168 70.7105 79.4374 71.4746 79.0927 72.1683V72.1683C78.2451 73.8743 76.5045 74.9531 74.5995 74.9531H73.8937H70.0784" stroke="#3C2415" stroke-width="1.1281"/>
    <path d="M34.299 24.842L39.5553 44.2371C41.9752 51.5427 47.4878 57.4129 54.627 60.2866L60.5399 62.6668L61.5232 64.0521C62.0805 64.8372 63.0626 65.1997 63.9963 64.9648L66.0839 64.4396C67.4612 64.0931 67.6676 62.2217 66.3989 61.5833C66.3085 61.5378 66.2228 61.4835 66.143 61.4211L60.7415 57.1933C53.3155 51.381 48.6513 42.7338 47.8731 33.3358L47.3531 27.0571C47.2428 25.7242 46.8804 24.4244 46.2853 23.2267L44.9388 20.5167C43.9782 18.5832 42.0055 17.3606 39.8465 17.3606C37.395 17.3606 35.2195 18.9317 34.4487 21.2589L34.3933 21.4261C34.0274 22.5308 33.9946 23.7188 34.299 24.842Z" fill="#C68443"/>
    <path d="M62.4475 63.4347L60.5399 62.6668M60.5399 62.6668L54.627 60.2866C47.4878 57.4129 41.9752 51.5427 39.5553 44.2371V44.2371L34.299 24.842C33.9946 23.7188 34.0274 22.5308 34.3933 21.4261L34.4487 21.2589C35.2195 18.9317 37.395 17.3606 39.8465 17.3606V17.3606C42.0055 17.3606 43.9782 18.5832 44.9388 20.5167L46.2853 23.2267C46.8804 24.4244 47.2428 25.7242 47.3531 27.0571L47.8731 33.3358C48.6513 42.7338 53.3155 51.381 60.7415 57.1933L66.143 61.4211C66.2228 61.4835 66.3085 61.5378 66.3989 61.5833V61.5833C67.6676 62.2217 67.4612 64.0931 66.0838 64.4396L63.9963 64.9648C63.0626 65.1997 62.0805 64.8372 61.5232 64.0521L60.5399 62.6668Z" stroke="#9D6832" stroke-width="1.1281"/>
    <path d="M73.3296 11.6013C73.3296 17.6546 68.4542 22.5557 62.4476 22.5557C56.4409 22.5557 51.5655 17.6546 51.5655 11.6013C51.5655 5.54794 56.4409 0.646815 62.4476 0.646815C68.4542 0.646815 73.3296 5.54794 73.3296 11.6013Z" fill="#C68443" stroke="#9D6832" stroke-width="1.1281"/>
    </svg>
    