<svg width="131" height="128" viewBox="0 0 131 128" fill="none" xmlns="http://www.w3.org/2000/svg">
    <path d="M32.4566 74.5443L63.7678 62.706C65.1125 62.1976 66.5381 61.9371 67.9757 61.9371C71.2966 61.9371 74.4665 63.3251 76.7189 65.7655L129.094 122.511C129.545 122.999 129.796 123.64 129.796 124.305C129.796 125.766 128.611 126.951 127.15 126.951H126.101C125.304 126.951 124.528 126.693 123.889 126.215L76.9973 91.1603C69.8272 85.8001 60.8254 83.4992 51.9626 84.7612L39.9577 86.4706C38.5085 86.4706 37.2427 87.4505 36.8795 88.8534L27.8386 123.773C27.7159 124.247 27.4682 124.68 27.1214 125.026L26.8511 125.295C25.9327 126.21 24.4469 126.21 23.5285 125.295C23.0228 124.791 22.7733 124.084 22.8503 123.375L27.444 81.0205C27.5801 79.7659 28.0176 78.5627 28.7192 77.5136C29.6254 76.1588 30.932 75.1207 32.4566 74.5443Z" fill="#C68443" stroke="#9D6832" stroke-width="1.1281"/>
    <path d="M65.2376 12.8703C65.2376 19.3318 59.982 24.5729 53.495 24.5729C47.0081 24.5729 41.7525 19.3318 41.7525 12.8703C41.7525 6.40876 47.0081 1.16757 53.495 1.16757C59.982 1.16757 65.2376 6.40876 65.2376 12.8703Z" fill="#C68443" stroke="#9D6832" stroke-width="1.1281"/>
    <path d="M77.5097 32.4924L120.613 60.7579C121.735 61.4939 122.411 62.7459 122.411 64.0882V64.2898C122.411 66.3779 120.719 68.0707 118.63 68.0707C117.886 68.0707 117.158 67.8509 116.538 67.4388L98.4031 55.3882C96.365 54.0338 94.186 52.9045 91.9043 52.02L74.7503 45.3706C73.7091 44.967 72.7081 44.4667 71.7602 43.8763L66.5179 40.6104C64.5413 39.379 63.3398 37.215 63.3398 34.8863V33.6539C63.3398 32.1652 64.085 30.7753 65.3249 29.9514C66.4081 29.2316 67.7521 29.0223 69.0028 29.3785L73.5035 30.6602C74.9239 31.0647 76.2747 31.6825 77.5097 32.4924Z" fill="#C68443" stroke="#9D6832" stroke-width="1.1281"/>
    <path d="M2.29736 40.0589L42.419 44.7638C44.4063 44.7638 45.9689 43.065 45.8034 41.0847L44.9754 31.1811L20.6156 35.8729C19.5653 36.0752 18.4981 36.1771 17.4284 36.1771H2.52419C1.4486 36.1771 0.57666 37.049 0.57666 38.1246C0.57666 39.1124 1.31624 39.9438 2.29736 40.0589Z" fill="#C68443"/>
    <path d="M44.8803 30.0437L44.9754 31.1811M44.9754 31.1811L45.8034 41.0847C45.9689 43.065 44.4063 44.7638 42.419 44.7638V44.7638L2.29736 40.0589C1.31624 39.9438 0.57666 39.1124 0.57666 38.1246V38.1246C0.57666 37.049 1.4486 36.1771 2.52419 36.1771H17.4284C18.4981 36.1771 19.5653 36.0752 20.6156 35.8729L44.9754 31.1811Z" stroke="#9D6832" stroke-width="1.1281"/>
    </svg>
    