<svg width="128" height="85" viewBox="0 0 128 85" fill="none" xmlns="http://www.w3.org/2000/svg">
    <path d="M1 24.7816C0.723858 24.7816 0.5 25.0054 0.5 25.2816C0.5 25.5577 0.723858 25.7816 1 25.7816V24.7816ZM39.4545 24.7816H1V25.7816H39.4545V24.7816Z" fill="#3C2415"/>
    <path d="M62.2857 49.1584L83.1025 41.2879C83.9965 40.9499 84.9443 40.7767 85.9 40.7767C88.1079 40.7767 90.2153 41.6995 91.7128 43.3219L126.534 81.0481C126.833 81.373 127 81.7989 127 82.2411C127 83.2125 126.212 84 125.241 84H124.544C124.014 84 123.498 83.8285 123.073 83.5111L94.379 62.06C88.0231 57.3085 80.0435 55.2689 72.1872 56.3876L67.2727 57.0874C66.3093 57.0874 65.4677 57.7388 65.2262 58.6715L59.2155 81.8876C59.1339 82.2027 58.9693 82.4902 58.7387 82.72L58.559 82.8991C57.9485 83.5077 56.9606 83.5077 56.3501 82.8991C56.0138 82.564 55.848 82.0943 55.8992 81.6223L58.9532 53.464C59.0437 52.6298 59.3345 51.8299 59.801 51.1325C60.4034 50.2317 61.2721 49.5416 62.2857 49.1584Z" fill="#C68443" stroke="#9D6832"/>
    <path d="M83.9546 8.15534C83.9546 12.3817 80.5168 15.8107 76.2727 15.8107C72.0287 15.8107 68.5909 12.3817 68.5909 8.15534C68.5909 3.92894 72.0287 0.5 76.2727 0.5C80.5168 0.5 83.9546 3.92894 83.9546 8.15534Z" fill="#C68443" stroke="#9D6832"/>
    <path d="M92.2388 21.2007L120.895 39.9926C121.641 40.4819 122.091 41.3143 122.091 42.2067V42.3407C122.091 43.729 120.965 44.8544 119.577 44.8544C119.082 44.8544 118.598 44.7082 118.186 44.4343L106.809 36.8741C105.002 35.6736 103.071 34.6725 101.048 33.8885L90.4043 29.7626C89.712 29.4943 89.0465 29.1617 88.4163 28.7691L84.931 26.5978C83.6169 25.7792 82.8182 24.3405 82.8182 22.7922V21.9729C82.8182 20.9832 83.3136 20.0592 84.1379 19.5114C84.858 19.0329 85.7516 18.8937 86.5831 19.1305L89.5753 19.9826C90.5196 20.2516 91.4177 20.6623 92.2388 21.2007Z" fill="#C68443" stroke="#9D6832"/>
    <path d="M42.2349 26.2312L68.9091 29.3592C70.2303 29.3592 71.2692 28.2298 71.1591 26.9132L70.6087 20.329L54.4135 23.4483C53.7152 23.5828 53.0057 23.6505 52.2945 23.6505H42.3857C41.6706 23.6505 41.0909 24.2302 41.0909 24.9453C41.0909 25.602 41.5826 26.1547 42.2349 26.2312Z" fill="#C68443"/>
    <path d="M70.5455 19.5728L70.6087 20.329M70.6087 20.329L71.1591 26.9132C71.2692 28.2298 70.2303 29.3592 68.9091 29.3592V29.3592L42.2349 26.2312C41.5826 26.1547 41.0909 25.602 41.0909 24.9453V24.9453C41.0909 24.2302 41.6706 23.6505 42.3857 23.6505H52.2945C53.0057 23.6505 53.7152 23.5828 54.4135 23.4483L70.6087 20.329Z" stroke="#9D6832"/>
    <path d="M40.2727 22.0194V28.1346C40.2727 28.3605 40.4559 28.5437 40.6818 28.5437V28.5437C40.9078 28.5437 41.0909 28.3605 41.0909 28.1346V22.0194" stroke="#3C2415"/>
    </svg>
    