<svg width="63" height="97" viewBox="0 0 63 97" fill="none" xmlns="http://www.w3.org/2000/svg">
    <path d="M24.2381 32.1746V31.9837C24.2381 29.6857 26.101 27.8228 28.399 27.8228C29.458 27.8228 30.4772 28.2267 31.2489 28.952L41.6213 38.7022L58.6562 39.381C59.3071 39.407 59.8214 39.9422 59.8214 40.5936C59.8214 41.1787 59.4039 41.6806 58.8286 41.787L46.5054 44.0662C42.4619 44.8141 38.2852 44.0037 34.8147 41.798L26.6866 36.6319C25.1617 35.6628 24.2381 33.9814 24.2381 32.1746Z" fill="#C68443"/>
    <path d="M42.3929 39.4275L41.6213 38.7022M41.6213 38.7022L31.2489 28.952C30.4772 28.2267 29.458 27.8228 28.399 27.8228V27.8228C26.101 27.8228 24.2381 29.6857 24.2381 31.9837V32.1746V32.1746C24.2381 33.9814 25.1617 35.6628 26.6866 36.6319L34.8147 41.798C38.2852 44.0037 42.4619 44.8141 46.5054 44.0662L58.8286 41.787C59.4039 41.6806 59.8214 41.1787 59.8214 40.5936V40.5936C59.8214 39.9422 59.3071 39.407 58.6562 39.381L41.6213 38.7022Z" stroke="#9D6832" stroke-width="1.5"/>
    <path d="M59.8554 39.7162C60.0149 40.0985 60.4541 40.2791 60.8364 40.1196C61.2187 39.9602 61.3993 39.521 61.2398 39.1387L59.8554 39.7162ZM52.5935 22.3093L59.8554 39.7162L61.2398 39.1387L53.9779 21.7318L52.5935 22.3093Z" fill="#3C2415"/>
    <path d="M57.6194 11.8972C58.6005 15.0657 58.6691 18.1624 58.0118 20.5988C57.3525 23.0425 55.9903 24.749 54.1612 25.3134C52.3321 25.8778 50.2427 25.2363 48.3171 23.5902C46.3972 21.949 44.7033 19.3538 43.7221 16.1853C42.741 13.0169 42.6724 9.92014 43.3298 7.48372C43.989 5.04004 45.3513 3.33348 47.1804 2.7691C49.0095 2.20472 51.0988 2.84626 53.0245 4.49235C54.9444 6.13354 56.6383 8.72876 57.6194 11.8972Z" fill="#9D6832" stroke="#C68443"/>
    <line y1="-0.5" x2="21.9643" y2="-0.5" transform="matrix(0.298333 0.954464 -0.954671 0.297657 46.9802 3.70911)" stroke="#C68443"/>
    <line y1="-0.5" x2="22.0062" y2="-0.5" transform="matrix(0.29565 0.955296 -0.955503 0.29498 49.3727 2.92654)" stroke="#C68443"/>
    <line y1="-0.5" x2="15.9581" y2="-0.5" transform="matrix(0.29565 0.955296 -0.955503 0.29498 52.0008 5.19574)" stroke="#C68443"/>
    <line y1="-0.5" x2="22.0062" y2="-0.5" transform="matrix(0.29565 0.955296 -0.955503 0.29498 44.6808 4.37497)" stroke="#C68443"/>
    <line y1="-0.5" x2="16.8283" y2="-0.5" transform="matrix(0.29565 0.955296 -0.955503 0.294981 43.1002 7.57242)" stroke="#C68443"/>
    <line y1="-0.5" x2="14.7313" y2="-0.5" transform="matrix(0.955503 -0.29498 0.29565 0.955296 43.4364 16.9633)" stroke="#C68443"/>
    <line y1="-0.5" x2="13.9129" y2="-0.5" transform="matrix(0.955503 -0.29498 0.29565 0.955296 43.0228 13.0146)" stroke="#C68443"/>
    <line y1="-0.5" x2="10.6393" y2="-0.5" transform="matrix(0.955503 -0.29498 0.29565 0.955296 43.395 8.83624)" stroke="#C68443"/>
    <line y1="-0.5" x2="13.9129" y2="-0.5" transform="matrix(0.955503 -0.29498 0.29565 0.955296 45.4066 20.4059)" stroke="#C68443"/>
    <line y1="-0.5" x2="10.6393" y2="-0.5" transform="matrix(0.955503 -0.294981 0.29565 0.955296 48.1625 23.6187)" stroke="#C68443"/>
    <rect width="5.78136" height="5.02164" rx="1" transform="matrix(0.662502 0.749411 -0.41217 0.910725 49.7757 9.5755)" fill="#F1AF49"/>
    <path d="M38.2619 18.3941C38.2619 21.7225 35.5602 24.4217 32.2262 24.4217C28.8922 24.4217 26.1905 21.7225 26.1905 18.3941C26.1905 15.0657 28.8922 12.3665 32.2262 12.3665C35.5602 12.3665 38.2619 15.0657 38.2619 18.3941Z" fill="#C68443" stroke="#9D6832"/>
    <path d="M19.881 61.1861L20.88 56.8623C21.6039 53.7294 24.0233 51.267 27.1429 50.4881C30.4151 50.3714 33.6145 51.4716 36.123 53.576L46.8414 62.5683C49.1704 64.5223 51.0234 66.9815 52.2594 69.7591L61.2662 89.9992C61.7308 91.0433 61.7036 92.2404 61.192 93.2622L60.6921 94.2607C60.1833 95.2771 59.0371 95.8042 57.9343 95.5288C57.2849 95.3667 56.7313 94.9435 56.4045 94.3593L45.7666 75.3468C44.0329 72.2481 41.5054 69.6669 38.444 67.8682L31.1139 63.5618C30.8912 63.431 30.6376 63.362 30.3794 63.362C29.7491 63.362 29.1909 63.7692 28.9986 64.3695L25.4425 75.4685C24.1953 79.3613 21.6191 82.6915 18.1645 84.8767L2.29737 94.9134C1.96339 95.1247 1.52761 95.0764 1.24799 94.7971C1.08922 94.6385 1 94.4233 1 94.1989V93.1465C1 92.1923 1.40281 91.2825 2.10922 90.6411L16.9762 77.1425C17.9154 76.2045 18.5008 74.9702 18.6331 73.6494L19.881 61.1861Z" fill="#C68443"/>
    <path d="M27.869 50.3068L27.1429 50.4881M27.1429 50.4881V50.4881C24.0233 51.267 21.6039 53.7294 20.88 56.8623L19.881 61.1861L18.6331 73.6494C18.5008 74.9702 17.9154 76.2045 16.9762 77.1425V77.1425L2.10922 90.6411C1.40281 91.2825 1 92.1923 1 93.1465V94.1989C1 94.4233 1.08922 94.6385 1.24799 94.7971V94.7971C1.52761 95.0764 1.96339 95.1247 2.29737 94.9134L18.1645 84.8767C21.6191 82.6915 24.1953 79.3613 25.4425 75.4686L28.9986 64.3695C29.1909 63.7692 29.7491 63.362 30.3794 63.362V63.362C30.6376 63.362 30.8912 63.431 31.1139 63.5618L38.444 67.8682C41.5054 69.6669 44.0329 72.2481 45.7666 75.3468L56.4045 94.3593C56.7313 94.9435 57.2849 95.3667 57.9343 95.5288V95.5288C59.0371 95.8042 60.1833 95.2771 60.6921 94.2607L61.192 93.2622C61.7036 92.2404 61.7308 91.0432 61.2662 89.9992L52.2594 69.7591C51.0234 66.9815 49.1704 64.5223 46.8414 62.5683L36.123 53.576C33.6145 51.4716 30.4151 50.3714 27.1429 50.4881V50.4881Z" stroke="#9D6832" stroke-width="1.5"/>
    </svg>
    