<svg width="53" height="83" viewBox="0 0 53 83" fill="none" xmlns="http://www.w3.org/2000/svg">
    <rect width="1" height="6" transform="matrix(-1 0 0 1 25.9559 33)" fill="black"/>
    <rect width="1" height="4" transform="matrix(-1 0 0 1 24.9559 29)" fill="black"/>
    <rect width="1" height="3" transform="matrix(-1 0 0 1 23.9559 26)" fill="black"/>
    <rect width="1" height="1" transform="matrix(-1 0 0 1 22.9559 25)" fill="black"/>
    <rect width="1" height="1" transform="matrix(-1 0 0 1 21.9559 24)" fill="black"/>
    <rect width="2" height="1" transform="matrix(-1 0 0 1 19.9559 22)" fill="black"/>
    <rect width="2" height="1" transform="matrix(-1 0 0 1 17.9559 21)" fill="black"/>
    <rect width="1" height="1" transform="matrix(-1 0 0 1 20.9559 23)" fill="black"/>
    <rect width="1" height="1" transform="matrix(-1 0 0 1 23.9559 23)" fill="black"/>
    <rect width="1" height="1" transform="matrix(-1 0 0 1 22.9559 22)" fill="black"/>
    <rect width="1" height="1" transform="matrix(-1 0 0 1 22.9559 22)" fill="black"/>
    <rect width="1" height="1" transform="matrix(-1 0 0 1 24.9559 24)" fill="black"/>
    <rect width="1" height="1" transform="matrix(-1 0 0 1 21.9559 21)" fill="black"/>
    <rect width="3" height="1" transform="matrix(-1 0 0 1 20.9559 20)" fill="black"/>
    <rect width="3" height="1" transform="matrix(-1 0 0 1 17.9559 19)" fill="black"/>
    <rect width="7" height="1" transform="matrix(-1 0 0 1 14.9559 18)" fill="black"/>
    <rect width="1" height="4" transform="matrix(-1 0 0 1 26.9559 28)" fill="black"/>
    <rect width="1" height="3" transform="matrix(-1 0 0 1 25.9559 25)" fill="black"/>
    <rect width="1" height="1" transform="matrix(-1 0 0 1 17.9559 20)" fill="#AC280B"/>
    <rect width="1" height="1" transform="matrix(-1 0 0 1 14.9559 19)" fill="#AC280B"/>
    <rect width="3" height="1" transform="matrix(-1 0 0 1 16.9559 20)" fill="black"/>
    <rect width="2" height="1" transform="matrix(-1 0 0 1 13.9559 19)" fill="black"/>
    <path d="M25.9559 39H26.9559V32H25.9559V28H24.9559V25H23.9559V24H22.9559V23H21.9559V22H20.9559V21H17.9559V22H19.9559V23H20.9559V24H21.9559V25H22.9559V26H23.9559V29H24.9559V33H25.9559V39Z" fill="#AC280B"/>
    <rect width="1" height="59" transform="matrix(-1 0 0 1 8.9559 19)" fill="#D9D9D9"/>
    <rect width="1" height="9" transform="matrix(-1 0 0 1 8.9559 73)" fill="#444444"/>
    <rect width="1" height="2" transform="matrix(-1 0 0 1 7.9559 81)" fill="#444444"/>
    <rect width="6" height="1" transform="matrix(-1 0 0 1 7.9559 82)" fill="#444444"/>
    <rect width="1" height="3" transform="matrix(-1 0 0 1 1.9559 79)" fill="#444444"/>
    <rect width="2" height="19" transform="matrix(-1 0 0 1 34.9559 0)" fill="#178C1C"/>
    <rect width="8" height="13" transform="matrix(-1 0 0 1 36.9559 5)" fill="#178C1C"/>
    <rect width="4" height="5" transform="matrix(-1 0 0 1 35.9559 1)" fill="#178C1C"/>
    <rect width="2" height="2" transform="matrix(-1 0 0 1 32.9559 2)" fill="#178C1C"/>
    <rect width="2" height="1" transform="matrix(-1 0 0 1 36.9559 3)" fill="#178C1C"/>
    <rect width="4" height="3" transform="matrix(-1 0 0 1 33.9559 3)" fill="#178C1C"/>
    <rect width="2" height="11" transform="matrix(-1 0 0 1 37.9559 8)" fill="#178C1C"/>
    <rect width="3" height="8" transform="matrix(-1 0 0 1 43.9559 8)" fill="#178C1C"/>
    <rect width="3" height="8" transform="matrix(-1 0 0 1 40.9559 11)" fill="#178C1C"/>
    <rect width="3" height="8" transform="matrix(-1 0 0 1 41.9559 10)" fill="#178C1C"/>
    <rect width="3" height="8" transform="matrix(-1 0 0 1 42.9559 9)" fill="#178C1C"/>
    <rect width="3" height="5" transform="matrix(-1 0 0 1 44.9559 9)" fill="#178C1C"/>
    <rect width="3" height="2" transform="matrix(-1 0 0 1 45.9559 11)" fill="#178C1C"/>
    <rect width="1" height="2" transform="matrix(-1 0 0 1 45.9559 9)" fill="#48DA4E"/>
    <rect width="1" height="4" transform="matrix(-1 0 0 1 37.9559 4)" fill="#48DA4E"/>
    <rect width="1" height="2" transform="matrix(-1 0 0 1 36.9559 1)" fill="#48DA4E"/>
    <rect width="1" height="1" transform="matrix(-1 0 0 1 35.9559 0)" fill="#48DA4E"/>
    <rect width="2" height="1" transform="matrix(-1 0 0 1 37.9559 4)" fill="#48DA4E"/>
    <rect width="1" height="1" transform="matrix(-1 0 0 1 44.9559 8)" fill="#48DA4E"/>
    <rect width="4" height="2" transform="matrix(-1 0 0 1 35.9559 17)" fill="#0E7F13"/>
    <rect width="1" height="4" transform="matrix(-1 0 0 1 38.9559 15)" fill="#0E7F13"/>
    <rect width="1" height="2" transform="matrix(-1 0 0 1 38.9559 12)" fill="#0E7F13"/>
    <rect width="1" height="1" transform="matrix(-1 0 0 1 39.9559 18)" fill="#0E7F13"/>
    <rect width="1" height="1" transform="matrix(-1 0 0 1 36.9559 18)" fill="#0E7F13"/>
    <rect width="3" height="1" transform="matrix(-1 0 0 1 33.9559 16)" fill="#0E7F13"/>
    <rect width="3" height="1" transform="matrix(-1 0 0 1 32.9559 14)" fill="#0E7F13"/>
    <rect width="2" height="1" transform="matrix(-1 0 0 1 30.9559 12)" fill="#0E7F13"/>
    <rect width="1" height="1" transform="matrix(-1 0 0 1 31.9559 13)" fill="#0E7F13"/>
    <rect width="1" height="4" transform="matrix(-1 0 0 1 29.9559 14)" fill="#0D5010"/>
    <rect x="31.9559" y="19" width="1" height="1" transform="rotate(180 31.9559 19)" fill="#0D5010"/>
    <rect width="1" height="9" transform="matrix(-1 0 0 1 28.9559 8)" fill="#0D5010"/>
    <rect width="1" height="4" transform="matrix(-1 0 0 1 27.9559 10)" fill="#0D5010"/>
    <rect width="1" height="2" transform="matrix(-1 0 0 1 33.9559 15)" fill="#0E7F13"/>
    <path d="M44.9559 25V28H43.9559V39V40V42H42.9559V43H41.9559V44V51H39.9559H37.9559V52H36.9559V54H34.9559V55H31.9559V54H30.9559V51H29.9559V49H28.9559V45H27.9559V42H26.9559V40V38V32H27.9559V27H28.9559V25H29.9559V22H30.9559V21H31.9559V20H30.9559V19H40.9559V20H42.9559V22H43.9559V25H44.9559Z" fill="#E77823"/>
    <path d="M43.9559 28H44.9559V42H43.9559V41H42.9559V40H43.9559V28Z" fill="#B75C17"/>
    <path d="M42.9559 42H43.9559V45H42.9559V49H41.9559V48H40.9559V44H41.9559V43H42.9559V42Z" fill="#B75C17"/>
    <path d="M39.9559 48H40.9559V49H41.9559V51H40.9559V50H39.9559V48Z" fill="#B75C17"/>
    <path d="M37.9559 50H39.9559V51H40.9559V52H39.9559V53H38.9559V54H37.9559V56H36.9559V57H33.9559V56H32.9559V55H34.9559V54H36.9559V52H37.9559V50Z" fill="#B75C17"/>
    <rect width="1" height="1" transform="matrix(-1 0 0 1 42.9559 41)" fill="#B75C17"/>
    <rect width="1" height="1" transform="matrix(-1 0 0 1 41.9559 42)" fill="#B75C17"/>
    <rect width="1" height="2" transform="matrix(-1 0 0 1 37.9559 30)" fill="black"/>
    <rect width="1" height="2" transform="matrix(-1 0 0 1 32.9559 30)" fill="black"/>
    <rect width="1" height="1" transform="matrix(-1 0 0 1 32.9559 29)" fill="white"/>
    <rect width="1" height="1" transform="matrix(-1 0 0 1 37.9559 29)" fill="white"/>
    <rect width="1" height="1" transform="matrix(-1 0 0 1 37.9559 35)" fill="black"/>
    <rect width="1" height="1" transform="matrix(-1 0 0 1 32.9559 35)" fill="black"/>
    <rect width="4" height="1" transform="matrix(-1 0 0 1 36.9559 36)" fill="black"/>
    <path d="M26.9559 25H28.9559V27H27.9559V32H26.9559V25Z" fill="#F68D3D"/>
    <path d="M28.9559 22H29.9559V25H28.9559V24H27.9559V23H28.9559V22Z" fill="#F68D3D"/>
    <rect width="1" height="1" transform="matrix(-1 0 0 1 28.9559 24)" fill="#E77823"/>
    <rect width="1" height="1" transform="matrix(-1 0 0 1 30.9559 20)" fill="#E77823"/>
    <rect width="1" height="1" transform="matrix(-1 0 0 1 31.9559 20)" fill="#F68D3D"/>
    <rect width="1" height="1" transform="matrix(-1 0 0 1 30.9559 21)" fill="#F68D3D"/>
    <rect width="1" height="2" transform="matrix(-1 0 0 1 29.9559 20)" fill="#FFBB87"/>
    <rect width="1" height="1" transform="matrix(-1 0 0 1 28.9559 22)" fill="#FFBB87"/>
    <path d="M45.9559 39V41H44.9559V40H43.9559V41H42.9559V39H45.9559Z" fill="black"/>
    <path d="M28.9559 38V41H27.9559V40H26.9559V38H28.9559Z" fill="black"/>
    <rect width="1" height="1" transform="matrix(-1 0 0 1 38.9559 54)" fill="#632E06"/>
    <rect width="1" height="1" transform="matrix(-1 0 0 1 39.9559 53)" fill="#632E06"/>
    <path d="M37.9559 55H38.9559V62H40.9559V63H37.9559V55Z" fill="black"/>
    <path d="M31.9559 55H32.9559V63H29.9559V62H31.9559V55Z" fill="black"/>
    <path d="M35.9559 65H38.9559V66H41.9559V64H43.9559V66H48.9559V64H49.9559V63H51.9559V61H52.9559V57H51.9559V54H50.9559V52H49.9559V50H50.9559V49H51.9559V48H52.9559V43H51.9559V41H50.9559V39H47.9559V40H43.9559V41H42.9559V43H40.9559V44H38.9559V43H35.9559V44H34.9559V45H32.9559V42H30.9559V41H27.9559V40H26.9559V39H22.9559V41H20.9559V42H19.9559V44H17.9559V48H18.9559V50H17.9559V54H20.9559V55H19.9559V58H18.9559V63H20.9559V64H22.9559V66H25.9559V67H35.9559V65Z" fill="#737373"/>
    <path d="M26.9559 66H34.9559V65H35.9559V64H39.9559V65H40.9559V63H43.9559V64H44.9559V65H47.9559V63H48.9559V62H50.9559V60H51.9559V58H50.9559V55H49.9559V53H48.9559V50H49.9559V48H50.9559V47H51.9559V44H50.9559V42H49.9559V40H48.9559V41H44.9559V42H43.9559V44H41.9559V45H40.9559H37.9559V44H35.9559V46H31.9559V43H29.9559V42H26.9559V41H25.9559V40H23.9559V42H20.9559V45H18.9559V47H19.9559V51H18.9559V53H20.9559V54H21.9559V56H20.9559V59H19.9559V62H21.9559V63H23.9559V65H26.9559V66Z" fill="#C6CEC6"/>
    <path d="M49.9559 42H44.9559V43H43.9559V44H41.9559V45H37.9559V44H35.9559V46H31.9559V43H29.9559V42H26.9559V41H25.9559V40H23.9559V42H20.9559V45H18.9559V47H19.9559V51H18.9559V52H20.9559V53H21.9559V54H22.9559V56H21.9559V59H20.9559V61H21.9559V62H24.9559V64H34.9559V63H39.9559V62H46.9559V59H47.9559V56H48.9559V54H47.9559V47H49.9559V46H50.9559V45H49.9559V42Z" fill="#F7FFF7"/>
    <rect width="1" height="3" transform="matrix(-1 0 0 1 37.9559 50)" fill="black"/>
    <rect width="1" height="3" transform="matrix(-1 0 0 1 33.9559 50)" fill="black"/>
    <rect width="5" height="1" transform="matrix(-1 0 0 1 37.9559 57)" fill="#F70000"/>
    <rect width="1" height="1" transform="matrix(-1 0 0 1 32.9559 56)" fill="#F70000"/>
    <rect width="1" height="1" transform="matrix(-1 0 0 1 38.9559 56)" fill="#F70000"/>
    </svg>
    