<svg width="839" height="226" viewBox="0 0 839 226" fill="none" xmlns="http://www.w3.org/2000/svg">
    <line x1="833" y1="0.960004" x2="836" y2="225.96" stroke="black" stroke-width="6"/>
    <path d="M3.67063 207.5L13.3373 4.5H832.329L822.663 207.5H3.67063Z" fill="#F4C9FF" stroke="black" stroke-width="7"/>
    <path d="M87.82 79.29C94.84 79.29 100.15 82.08 103.75 87.66C107.35 93.24 109.15 100.26 109.15 108.72C109.15 117.18 107.05 124.89 102.85 131.85C98.71 138.75 93.91 142.2 88.45 142.2C84.61 142.2 81.79 140.04 79.99 135.72C78.19 131.4 77.02 125.25 76.48 117.27C73.96 120.81 71.08 124.83 67.84 129.33C61.6 137.97 57.22 142.29 54.7 142.29C53.74 142.29 52.63 141.51 51.37 139.95C50.11 138.39 49.48 136.44 49.48 134.1C49.48 131.7 50.29 124.29 51.91 111.87C53.53 99.39 54.34 89.67 54.34 82.71C54.34 80.49 55 79.38 56.32 79.38C57.64 79.38 59.17 80.16 60.91 81.72C62.71 83.28 63.61 84.72 63.61 86.04C63.61 87.3 62.59 93.63 60.55 105.03C58.57 116.43 57.34 125.37 56.86 131.85C60.52 125.67 64.63 119.97 69.19 114.75C73.81 109.47 77.11 106.83 79.09 106.83C81.13 106.83 82.54 111.33 83.32 120.33C83.62 123.69 84.19 126.78 85.03 129.6C85.93 132.42 87.13 133.83 88.63 133.83C91.99 133.83 94.9 131.13 97.36 125.73C99.88 120.27 101.14 114.24 101.14 107.64C101.14 100.32 99.52 94.68 96.28 90.72C94.6 88.62 92.74 87.57 90.7 87.57C88.72 87.57 87.01 86.88 85.57 85.5C84.19 84.12 83.5 82.92 83.5 81.9C83.5 80.16 84.94 79.29 87.82 79.29ZM121.59 108.99L121.32 102.24C121.32 99.42 121.98 98.01 123.3 98.01C124.44 98.01 125.52 98.76 126.54 100.26C127.62 101.7 128.16 103.44 128.16 105.48C128.16 107.46 128.1 108.96 127.98 109.98C133.2 102.06 138.15 98.1 142.83 98.1C145.77 98.1 147.24 98.82 147.24 100.26C147.24 100.98 146.91 101.64 146.25 102.24C145.59 102.84 144.54 103.53 143.1 104.31C139.92 105.69 137.22 107.82 135 110.7C132.84 113.52 131.07 116.73 129.69 120.33C128.31 123.93 127.2 126.96 126.36 129.42C125.58 131.88 124.98 133.8 124.56 135.18C124.14 136.56 123.66 137.91 123.12 139.23C122.16 141.63 121.05 142.83 119.79 142.83C118.77 142.83 117.93 142.26 117.27 141.12C116.67 139.92 116.37 138.78 116.37 137.7C116.37 136.56 116.88 134.34 117.9 131.04C120.36 123.48 121.59 116.13 121.59 108.99ZM181.895 112.95C181.895 116.13 180.155 118.74 176.675 120.78C173.255 122.76 169.355 123.75 164.975 123.75C160.655 123.75 156.725 123.27 153.185 122.31C152.345 124.95 151.925 127.32 151.925 129.42C151.925 131.46 152.555 133.05 153.815 134.19C155.135 135.33 157.265 135.9 160.205 135.9C163.205 135.9 166.265 135.39 169.385 134.37C172.565 133.29 174.305 132.75 174.605 132.75C176.165 132.75 176.945 133.35 176.945 134.55C176.945 136.17 175.115 137.94 171.455 139.86C167.795 141.72 164.225 142.65 160.745 142.65C156.065 142.65 152.255 141.27 149.315 138.51C146.375 135.69 144.905 132.15 144.905 127.89C144.905 123.63 146.045 119.19 148.325 114.57C150.605 109.89 153.545 105.96 157.145 102.78C160.745 99.6 164.315 98.01 167.855 98.01C171.395 98.01 174.605 99.69 177.485 103.05C180.425 106.41 181.895 109.71 181.895 112.95ZM168.305 105.12C166.085 105.12 163.775 106.29 161.375 108.63C158.975 110.91 156.935 113.76 155.255 117.18C157.655 117.72 160.385 117.99 163.445 117.99C166.505 117.99 169.175 117.51 171.455 116.55C173.735 115.53 174.875 114.21 174.875 112.59C174.875 110.97 174.125 109.32 172.625 107.64C171.185 105.96 169.745 105.12 168.305 105.12ZM195.323 126.99C201.083 117.21 205.763 109.95 209.363 105.21C213.023 100.41 215.993 98.01 218.273 98.01C220.613 98.01 222.803 99.24 224.843 101.7C226.943 104.16 227.993 106.77 227.993 109.53C227.993 113.85 227.003 119.13 225.023 125.37C221.423 136.89 218.183 142.65 215.303 142.65C213.983 142.65 213.323 141.75 213.323 139.95C213.323 138.69 213.953 136.14 215.213 132.3C216.533 128.4 217.733 124.59 218.813 120.87C219.953 117.09 220.523 114.27 220.523 112.41C220.523 110.49 220.223 109.08 219.623 108.18C219.083 107.28 218.513 106.83 217.913 106.83C217.373 106.83 216.803 107.01 216.203 107.37C215.603 107.73 214.913 108.33 214.133 109.17C213.413 110.01 212.723 110.85 212.063 111.69C211.403 112.47 210.563 113.61 209.543 115.11C208.583 116.61 207.773 117.9 207.113 118.98C206.453 120 205.493 121.5 204.233 123.48C202.973 125.46 202.013 126.96 201.353 127.98C200.693 129 199.823 130.38 198.743 132.12C197.663 133.86 196.793 135.21 196.133 136.17C195.533 137.13 194.843 138.18 194.063 139.32C192.563 141.54 191.363 142.65 190.463 142.65C189.623 142.65 188.633 141.99 187.493 140.67C186.353 139.29 185.783 138.09 185.783 137.07C185.783 136.77 185.993 135.96 186.413 134.64C187.553 131.16 188.813 126.87 190.193 121.77C191.573 116.61 192.323 110.76 192.443 104.22C192.623 99.84 193.253 97.65 194.333 97.65C195.653 97.65 196.973 98.34 198.293 99.72C199.613 101.1 200.273 102.63 200.273 104.31C200.273 105.93 199.763 109.11 198.743 113.85C197.783 118.53 196.643 122.91 195.323 126.99ZM252.491 77.04C252.491 80.82 250.751 84.63 247.271 88.47C243.791 92.31 240.941 94.23 238.721 94.23C237.101 94.23 236.291 93.57 236.291 92.25C236.291 91.53 236.951 90.51 238.271 89.19C239.651 87.87 241.031 86.34 242.411 84.6C243.791 82.86 244.481 81.24 244.481 79.74C244.481 78.24 244.211 77.13 243.671 76.41C243.131 75.69 242.561 75.18 241.961 74.88C240.221 74.16 239.351 73.23 239.351 72.09C239.351 70.95 239.801 69.99 240.701 69.21C241.661 68.37 242.771 67.95 244.031 67.95C246.371 67.95 248.351 68.79 249.971 70.47C251.651 72.09 252.491 74.28 252.491 77.04ZM285.983 98.01C288.023 98.01 289.943 99.15 291.743 101.43C293.543 103.65 294.443 105.6 294.443 107.28C294.443 108.3 293.963 108.81 293.003 108.81C292.343 108.81 291.323 108.3 289.943 107.28C288.563 106.2 287.153 105.66 285.713 105.66C284.273 105.66 281.993 106.5 278.873 108.18C275.813 109.86 274.283 111.63 274.283 113.49C274.283 114.87 277.043 117.24 282.563 120.6C284.663 121.92 286.553 123.63 288.233 125.73C289.973 127.77 290.843 129.99 290.843 132.39C290.843 134.73 289.193 137.04 285.893 139.32C282.653 141.54 278.843 142.65 274.463 142.65C270.143 142.65 266.303 141.6 262.943 139.5C259.643 137.4 257.993 135.42 257.993 133.56C257.993 132.78 258.173 132.18 258.533 131.76C258.953 131.28 259.463 131.04 260.063 131.04C260.663 131.04 261.503 131.43 262.583 132.21C265.823 134.55 269.183 135.72 272.663 135.72C276.203 135.72 278.753 135.33 280.313 134.55C281.873 133.71 282.653 132.63 282.653 131.31C282.653 129.93 281.783 128.49 280.043 126.99C278.303 125.43 276.383 124.05 274.283 122.85C272.243 121.65 270.353 120.18 268.613 118.44C266.873 116.7 266.003 114.93 266.003 113.13C266.003 109.95 268.493 106.65 273.473 103.23C278.513 99.75 282.683 98.01 285.983 98.01ZM376.716 79.29C383.736 79.29 389.046 82.08 392.646 87.66C396.246 93.24 398.046 100.26 398.046 108.72C398.046 117.18 395.946 124.89 391.746 131.85C387.606 138.75 382.806 142.2 377.346 142.2C373.506 142.2 370.686 140.04 368.886 135.72C367.086 131.4 365.916 125.25 365.376 117.27C362.856 120.81 359.976 124.83 356.736 129.33C350.496 137.97 346.116 142.29 343.596 142.29C342.636 142.29 341.526 141.51 340.266 139.95C339.006 138.39 338.376 136.44 338.376 134.1C338.376 131.7 339.186 124.29 340.806 111.87C342.426 99.39 343.236 89.67 343.236 82.71C343.236 80.49 343.896 79.38 345.216 79.38C346.536 79.38 348.066 80.16 349.806 81.72C351.606 83.28 352.506 84.72 352.506 86.04C352.506 87.3 351.486 93.63 349.446 105.03C347.466 116.43 346.236 125.37 345.756 131.85C349.416 125.67 353.526 119.97 358.086 114.75C362.706 109.47 366.006 106.83 367.986 106.83C370.026 106.83 371.436 111.33 372.216 120.33C372.516 123.69 373.086 126.78 373.926 129.6C374.826 132.42 376.026 133.83 377.526 133.83C380.886 133.83 383.796 131.13 386.256 125.73C388.776 120.27 390.036 114.24 390.036 107.64C390.036 100.32 388.416 94.68 385.176 90.72C383.496 88.62 381.636 87.57 379.596 87.57C377.616 87.57 375.906 86.88 374.466 85.5C373.086 84.12 372.396 82.92 372.396 81.9C372.396 80.16 373.836 79.29 376.716 79.29ZM429.027 98.01C431.727 98.01 434.217 99.39 436.497 102.15C438.777 104.85 439.917 107.31 439.917 109.53C439.917 111.69 439.167 113.91 437.667 116.19C438.387 117.09 438.747 117.87 438.747 118.53C438.747 120.21 438.357 123.09 437.577 127.17C436.857 131.25 436.407 133.92 436.227 135.18C436.107 136.44 435.987 137.46 435.867 138.24C435.747 138.96 435.597 139.68 435.417 140.4C435.177 141.9 434.637 142.65 433.797 142.65C432.717 142.65 431.817 141.72 431.097 139.86C430.437 137.94 430.047 135.48 429.927 132.48C424.587 139.26 419.637 142.65 415.077 142.65C412.317 142.65 409.587 141.48 406.887 139.14C404.247 136.74 402.927 134.28 402.927 131.76C402.927 128.16 404.247 123.72 406.887 118.44C409.527 113.1 412.947 108.36 417.147 104.22C421.347 100.08 425.307 98.01 429.027 98.01ZM433.167 113.85C433.167 108.27 432.057 105.48 429.837 105.48C427.497 105.48 424.767 107.16 421.647 110.52C418.527 113.82 415.887 117.57 413.727 121.77C411.567 125.97 410.487 129.3 410.487 131.76C410.487 132.78 410.907 133.62 411.747 134.28C412.587 134.88 413.577 135.18 414.717 135.18C417.537 135.18 420.717 133.29 424.257 129.51C427.797 125.67 430.257 121.02 431.637 115.56C431.817 114.66 432.327 114.12 433.167 113.94V113.85ZM453.754 142.83C452.974 142.83 452.134 142.26 451.234 141.12C450.334 139.98 449.884 139.05 449.884 138.33C449.884 137.61 450.184 136.2 450.784 134.1C453.784 123.3 455.824 115.59 456.904 110.97C454.324 111.57 452.554 111.87 451.594 111.87C450.634 111.87 449.674 111.45 448.714 110.61C447.754 109.77 447.274 108.84 447.274 107.82C447.274 106.8 448.624 105.9 451.324 105.12C454.804 104.28 457.204 103.74 458.524 103.5C459.124 100.62 459.574 98.4 459.874 96.84C461.314 88.56 463.264 82.59 465.724 78.93C468.184 75.27 471.514 73.44 475.714 73.44C478.714 73.44 481.174 74.64 483.094 77.04C485.014 79.38 485.974 82.17 485.974 85.41C485.974 88.59 485.134 90.18 483.454 90.18C482.014 90.18 480.844 88.56 479.944 85.32C479.644 84.12 479.134 83.01 478.414 81.99C477.694 80.97 476.824 80.46 475.804 80.46C474.784 80.46 473.854 80.94 473.014 81.9C472.174 82.8 471.424 84.12 470.764 85.86C469.024 90.72 467.824 95.16 467.164 99.18L466.444 102.33C468.664 102.03 470.854 101.88 473.014 101.88C475.234 101.88 476.824 102.12 477.784 102.6C478.804 103.08 479.314 103.68 479.314 104.4C479.314 105.54 478.324 106.41 476.344 107.01C474.364 107.61 470.494 108.39 464.734 109.35C460.474 126.63 457.564 136.92 456.004 140.22C455.164 141.96 454.414 142.83 453.754 142.83ZM494.252 87.39C494.852 82.65 496.202 79.14 498.302 76.86C500.462 74.58 502.922 73.44 505.682 73.44C508.502 73.44 510.602 74.19 511.982 75.69C513.422 77.13 514.142 78.93 514.142 81.09C514.142 83.25 513.422 84.33 511.982 84.33C511.322 84.33 510.572 83.7 509.732 82.44C508.952 81.12 507.932 80.46 506.672 80.46C505.412 80.46 504.362 81.42 503.522 83.34C502.742 85.26 502.052 88.23 501.452 92.25C500.852 96.21 500.402 99 500.102 100.62C503.342 100.08 505.982 99.48 508.022 98.82C510.122 98.1 512.042 97.08 513.782 95.76C517.202 93.24 518.912 88.89 518.912 82.71C518.912 76.53 519.662 73.44 521.162 73.44C522.422 73.44 523.682 74.07 524.942 75.33C526.202 76.59 526.832 78.15 526.832 80.01C526.832 84.69 525.962 92.04 524.222 102.06C522.542 112.08 520.502 121.35 518.102 129.87C515.702 138.39 513.692 142.65 512.072 142.65C511.112 142.65 510.212 142.14 509.372 141.12C508.592 140.1 508.202 139.05 508.202 137.97C508.202 136.89 508.742 134.58 509.822 131.04C513.422 118.8 515.762 108.9 516.842 101.34C513.242 104.46 507.182 106.71 498.662 108.09C494.522 129.15 490.622 140.16 486.962 141.12C486.122 141.3 485.552 141 485.252 140.22C484.832 140.04 484.442 139.68 484.082 139.14C483.722 138.6 483.602 138 483.722 137.34C483.842 136.62 484.682 133.02 486.242 126.54C487.862 120.06 489.242 114.27 490.382 109.17C489.542 109.23 488.492 109.26 487.232 109.26C486.032 109.26 484.952 108.78 483.992 107.82C483.032 106.8 482.552 105.9 482.552 105.12C482.552 103.68 484.652 102.75 488.852 102.33L491.912 101.88C492.872 96.9 493.652 92.07 494.252 87.39ZM565.889 112.95C565.889 116.13 564.149 118.74 560.669 120.78C557.249 122.76 553.349 123.75 548.969 123.75C544.649 123.75 540.719 123.27 537.179 122.31C536.339 124.95 535.919 127.32 535.919 129.42C535.919 131.46 536.549 133.05 537.809 134.19C539.129 135.33 541.259 135.9 544.199 135.9C547.199 135.9 550.259 135.39 553.379 134.37C556.559 133.29 558.299 132.75 558.599 132.75C560.159 132.75 560.939 133.35 560.939 134.55C560.939 136.17 559.109 137.94 555.449 139.86C551.789 141.72 548.219 142.65 544.739 142.65C540.059 142.65 536.249 141.27 533.309 138.51C530.369 135.69 528.899 132.15 528.899 127.89C528.899 123.63 530.039 119.19 532.319 114.57C534.599 109.89 537.539 105.96 541.139 102.78C544.739 99.6 548.309 98.01 551.849 98.01C555.389 98.01 558.599 99.69 561.479 103.05C564.419 106.41 565.889 109.71 565.889 112.95ZM552.299 105.12C550.079 105.12 547.769 106.29 545.369 108.63C542.969 110.91 540.929 113.76 539.249 117.18C541.649 117.72 544.379 117.99 547.439 117.99C550.499 117.99 553.169 117.51 555.449 116.55C557.729 115.53 558.869 114.21 558.869 112.59C558.869 110.97 558.119 109.32 556.619 107.64C555.179 105.96 553.739 105.12 552.299 105.12ZM645.95 124.74C645.95 129.66 643.73 133.8 639.29 137.16C634.85 140.46 629.75 142.11 623.99 142.11C618.29 142.11 613.58 140.64 609.86 137.7C606.14 134.7 604.28 131.88 604.28 129.24C604.28 127.44 604.82 126.54 605.9 126.54C606.86 126.54 608.75 127.98 611.57 130.86C612.65 131.88 614.09 132.84 615.89 133.74C617.75 134.64 619.7 135.09 621.74 135.09C625.94 135.09 629.66 134.01 632.9 131.85C636.2 129.69 637.85 127.35 637.85 124.83C637.85 123.21 636.77 121.14 634.61 118.62C632.45 116.1 630.05 113.73 627.41 111.51C624.83 109.23 622.46 106.8 620.3 104.22C618.14 101.64 617.06 99.6 617.06 98.1C617.06 96.6 617.36 95.01 617.96 93.33C618.56 91.65 619.22 90.42 619.94 89.64C622.28 87.06 625.91 84.69 630.83 82.53C635.81 80.37 639.98 79.29 643.34 79.29C645.08 79.29 646.55 79.86 647.75 81C648.95 82.14 649.55 83.34 649.55 84.6C649.55 85.2 648.92 85.68 647.66 86.04C646.4 86.4 644.48 86.88 641.9 87.48C639.38 88.02 637.13 88.68 635.15 89.46C628.25 92.1 624.8 94.65 624.8 97.11C624.8 98.43 628.31 102.12 635.33 108.18C638.03 110.52 640.46 113.25 642.62 116.37C644.84 119.43 645.95 122.22 645.95 124.74ZM665.053 76.32C665.053 73.98 665.773 72.81 667.213 72.81C668.353 72.81 669.553 73.71 670.813 75.51C672.133 77.31 672.793 79.05 672.793 80.73C672.793 84.63 671.803 91.29 669.823 100.71C667.903 110.07 665.383 119.43 662.263 128.79C668.263 117.93 673.273 110.1 677.293 105.3C681.373 100.44 684.853 98.01 687.733 98.01C689.293 98.01 691.093 99.36 693.133 102.06C695.233 104.76 696.283 107.46 696.283 110.16C696.283 112.86 695.533 116.91 694.033 122.31C690.313 135.87 686.803 142.65 683.503 142.65C682.183 142.65 681.523 141.75 681.523 139.95C681.523 138.15 682.243 135.12 683.683 130.86C686.863 121.56 688.453 115.29 688.453 112.05C688.453 110.97 688.183 110.07 687.643 109.35C687.103 108.63 686.443 108.27 685.663 108.27C684.883 108.27 683.923 108.69 682.783 109.53C681.643 110.37 680.263 111.84 678.643 113.94C676.603 116.64 674.473 119.67 672.253 123.03C670.093 126.39 668.773 128.43 668.293 129.15C667.873 129.81 667.093 131.04 665.953 132.84C664.873 134.64 664.063 135.99 663.523 136.89C662.983 137.73 662.323 138.66 661.543 139.68C660.163 141.66 659.113 142.65 658.393 142.65C657.673 142.65 656.713 141.99 655.513 140.67C654.313 139.29 653.713 138.15 653.713 137.25C653.713 136.29 654.043 134.52 654.703 131.94C657.703 120.42 659.593 112.53 660.373 108.27C663.493 92.67 665.053 82.02 665.053 76.32ZM729.865 113.31C729.865 111.27 729.535 109.35 728.875 107.55C728.215 105.69 727.255 104.34 725.995 103.5C721.855 104.64 718.285 107.85 715.285 113.13C712.345 118.35 710.875 123.27 710.875 127.89C710.875 132.51 712.015 135.39 714.295 136.53C718.615 135.69 722.275 132.75 725.275 127.71C728.335 122.61 729.865 117.81 729.865 113.31ZM706.195 114.12C708.295 109.44 711.025 105.6 714.385 102.6C717.805 99.54 721.285 98.01 724.825 98.01C728.425 98.01 731.425 99.54 733.825 102.6C736.225 105.6 737.425 109.29 737.425 113.67C737.425 117.99 736.375 122.43 734.275 126.99C732.175 131.49 729.265 135.24 725.545 138.24C721.885 141.18 717.985 142.65 713.845 142.65C710.785 142.65 708.235 141.24 706.195 138.42C704.155 135.6 703.135 132.03 703.135 127.71C703.135 123.33 704.155 118.8 706.195 114.12ZM772.896 97.74C775.476 97.74 777.696 99.39 779.556 102.69C781.476 105.99 782.436 109.41 782.436 112.95C782.436 116.43 781.416 119.94 779.376 123.48C777.336 126.96 774.816 130.08 771.816 132.84C768.816 135.6 765.486 137.91 761.826 139.77C758.226 141.57 754.896 142.47 751.836 142.47C750.636 142.47 749.496 142.32 748.416 142.02C748.176 143.04 747.756 144.87 747.156 147.51C746.556 150.15 746.046 152.34 745.626 154.08C745.206 155.82 744.726 157.68 744.186 159.66C743.106 163.74 742.146 165.78 741.306 165.78C740.466 165.78 739.596 165.12 738.696 163.8C737.736 162.54 737.256 161.4 737.256 160.38C737.256 159.36 738.216 154.98 740.136 147.24C745.896 123.9 748.776 108.18 748.776 100.08C748.776 98.28 749.436 97.38 750.756 97.38C751.836 97.38 753.126 98.19 754.626 99.81C756.186 101.37 756.966 103.11 756.966 105.03C756.966 105.99 756.846 107.04 756.606 108.18C761.946 101.22 767.376 97.74 772.896 97.74ZM750.936 135.45C754.116 135.45 757.536 134.37 761.196 132.21C764.916 130.05 768.066 127.2 770.646 123.66C773.286 120.06 774.606 116.49 774.606 112.95C774.606 107.97 773.436 105.48 771.096 105.48C768.756 105.48 765.576 107.49 761.556 111.51C757.596 115.53 754.446 120.75 752.106 127.17L750.036 135.45H750.936Z" fill="#583B1D"/>
    </svg>
    