<svg width="945" height="945" viewBox="0 0 945 945" fill="none" xmlns="http://www.w3.org/2000/svg">
    <mask id="mask0_462_622" style="mask-type:alpha" maskUnits="userSpaceOnUse" x="0" y="0" width="945" height="945">
    <path fill-rule="evenodd" clip-rule="evenodd" d="M65 0C29.1015 0 0 29.1015 0 65V880C0 915.898 29.1015 945 65 945H880C915.898 945 945 915.899 945 880V65C945 29.1015 915.899 0 880 0H65ZM171.246 398.402C130.241 439.407 130.241 505.889 171.246 546.894L397.451 773.099C438.456 814.104 504.938 814.104 545.943 773.099L772.099 546.943C813.104 505.938 813.104 439.456 772.099 398.451L545.894 172.246C504.889 131.241 438.407 131.241 397.402 172.246L171.246 398.402Z" fill="#D9D9D9"/>
    </mask>
    <g mask="url(#mask0_462_622)">
    <rect width="945" height="945" rx="65" fill="#C68443"/>
    <rect x="60" y="60" width="227" height="227" rx="44" fill="#9D6832"/>
    <rect x="658" y="60" width="227" height="227" rx="44" fill="#9D6832"/>
    <rect x="658" y="658" width="227" height="227" rx="44" fill="#9D6832"/>
    <rect x="359" y="658" width="227" height="227" rx="44" fill="#9D6832"/>
    <rect x="658" y="359" width="227" height="227" rx="44" fill="#9D6832"/>
    <rect x="60" y="658" width="227" height="227" rx="44" fill="#9D6832"/>
    <rect x="60" y="359" width="227" height="227" rx="44" fill="#9D6832"/>
    <rect x="359" y="60" width="227" height="227" rx="44" fill="#9D6832"/>
    </g>
    </svg>
    