<svg width="676" height="651" viewBox="0 0 676 651" fill="none" xmlns="http://www.w3.org/2000/svg">
<path d="M524.95 328.062C537.368 317.082 609.08 269.502 648.348 229.422C679.002 198.102 690.86 116.322 643.705 76.5421C582.398 24.8821 523.551 79.1221 523.551 79.1221C523.551 79.1221 518.405 48.4621 482.605 30.4621C437.52 7.78206 380.407 -0.677946 327.882 0.0420538C276.979 0.702054 230.103 7.30205 188.486 29.2021C151.231 48.8221 148.994 76.7821 148.994 76.7821C148.994 76.7821 100.105 26.6821 40.1956 67.3621C-19.6576 108.102 -2.48475 189.702 26.3231 223.962C63.8571 268.602 108.943 291.342 129.416 307.782C149.833 324.222 169.411 339.882 169.411 353.982C169.411 368.082 163.594 371.202 161.356 370.422C159.175 369.642 155.315 355.902 145.302 361.782C131.653 369.882 135.793 402.522 164.265 405.642C191.842 408.702 197.1 377.442 197.1 377.442L201.463 346.902L246.717 380.562L296.333 424.422L294.879 461.982C294.879 461.982 292.697 490.962 279.552 516.042C266.407 541.122 245.262 566.142 245.262 566.142L244.591 588.822L428.57 584.142L422.752 562.242C422.752 562.242 399.035 534.282 384.771 504.282C374.59 482.802 372.968 461.142 372.968 461.142L372.52 407.262L468.006 344.502C468.006 344.502 478.242 353.142 476.788 356.262C475.333 359.382 474.998 391.362 497.932 403.242C520.587 415.002 538.822 400.122 536.641 379.722C534.459 359.382 522.768 366.402 519.132 369.522C515.496 372.642 507.441 373.422 505.26 361.662C503.022 350.022 512.532 339.042 524.95 328.062ZM54.9071 217.302L33.0356 145.902L59.494 108.762L89.1409 99.4621C89.1409 99.4621 127.011 129.762 128.353 132.222C129.696 134.682 152.518 185.022 152.518 185.022L182.612 301.902L54.9071 217.302ZM484.843 311.202C485.29 308.742 513.091 185.982 513.091 185.982C513.091 184.542 532.669 174.762 532.669 172.782C532.669 170.802 568.246 108.702 568.246 108.702L627.539 111.162L639.846 174.222L610.199 226.542C610.255 226.602 484.395 313.602 484.843 311.202Z" fill="#FEC417"/>
<path d="M652.488 155.802C648.124 99.8821 596.55 86.5021 575.35 94.6021C554.149 102.702 540.389 117.882 535.69 139.482C531.886 156.942 528.083 168.582 523.719 170.382C518.909 172.302 514.49 171.522 514.49 171.522C514.49 171.522 513.707 133.722 513.93 118.482C514.49 87.0421 523.44 79.0021 523.44 79.0021C523.44 79.0021 521.538 68.3821 517.734 62.5021C513.93 56.6821 506.882 49.1221 506.882 49.1221C506.882 49.1221 508.504 64.2421 501.456 67.7821C494.408 71.3221 486.801 66.0421 486.801 66.0421L493.849 97.4821C493.849 97.4821 482.438 254.202 481.375 257.682C480.312 261.162 437.408 340.962 437.408 340.962C437.408 340.962 412.404 366.042 400.489 371.862C388.518 377.682 378.226 392.862 332.078 393.402C285.929 394.002 246.269 354.942 246.269 354.942L206.61 314.142L177.298 221.502L172.935 127.122L174.781 92.8021L176.068 78.4621L173.998 71.2021C173.998 71.2021 170.194 75.2821 163.146 73.5421C156.098 71.8021 153.357 61.9021 153.357 61.9021C153.357 61.9021 150.616 66.5821 150.113 68.9221C149.553 71.2621 148.994 76.6621 148.994 76.6621C148.994 76.6621 156.602 85.2421 158.224 97.4821C159.846 109.722 157.664 160.422 149.553 159.222C141.387 158.082 144.072 115.542 113.138 99.2221C86.3441 85.0621 46.3488 89.3221 30.0151 124.842C13.7372 160.362 25.6519 202.302 76.7229 241.362C127.794 280.422 182.165 313.242 190.779 344.562C201.072 381.822 177.746 403.962 177.746 403.962C177.746 403.962 194.695 401.442 203.03 381.942C205.715 375.642 206.722 366.462 207.113 361.002C226.412 388.002 252.087 410.862 286.097 421.902C298.963 426.642 313.45 429.042 333.588 429.042C336.497 429.042 339.349 428.922 342.202 428.802C365.752 427.902 385.889 423.162 405.412 412.782C431.758 399.702 452.175 379.722 467.95 357.042C467.502 362.442 470.579 375.882 476.452 386.502C486.745 405.162 504.141 406.302 504.141 406.302C504.141 406.302 480.256 391.182 485.123 355.062C489.989 318.942 512.252 306.102 545.927 282.822C579.713 259.482 656.795 211.722 652.488 155.802ZM100.664 235.062C85.5051 223.602 58.9347 208.302 47.971 184.962C33.3713 153.822 45.23 116.202 72.975 111.582C130.591 101.862 131.653 178.602 135.457 187.902C139.261 197.202 150.113 197.802 150.113 197.802C150.113 197.802 150.504 202.962 152.071 212.922C152.127 213.222 152.183 213.462 152.183 213.762L152.35 214.662C153.413 221.442 154.923 229.902 157.049 239.562L157.217 240.282C158.392 245.742 159.622 250.902 160.909 255.642C163.482 265.602 166.614 276.342 170.474 287.382C164.88 283.302 132.828 259.482 100.664 235.062ZM622.617 191.922C610.59 212.802 586.258 228.342 568.302 241.422C545.144 258.282 510.686 283.602 500.953 290.682C503.19 284.322 505.148 278.022 506.938 271.842C509.847 263.682 512.923 253.722 515.049 242.982C520.643 214.782 521.594 190.122 521.594 190.122C521.594 190.122 533.005 193.602 540.053 185.442C547.101 177.282 549.73 151.962 556.331 140.022C566.623 121.362 587.264 102.162 618.254 125.442C636.154 138.942 636.825 167.202 622.617 191.922ZM320.219 447.822L351.823 447.402C351.823 447.402 352.663 484.422 357.641 512.022C362.619 539.682 369.276 570.402 369.276 570.402C369.276 570.402 304.892 593.562 305.283 568.602C305.675 543.642 315.24 495.042 315.24 495.042C315.24 495.042 321.058 437.142 320.219 447.822Z" fill="#FFA828"/>
<path d="M267.19 63.1018C267.19 63.1018 302.375 58.8418 335.098 59.3818C367.821 59.9218 401.496 66.8218 401.496 66.8218C401.496 66.8218 399.538 184.302 393.553 250.242C387.623 316.182 364.353 365.562 358.144 379.542C352.159 393.102 347.796 400.362 347.796 400.362L316.247 396.402L261.708 278.922L267.19 63.1018Z" fill="#FFA828"/>
<path d="M225.069 80.6821C225.069 80.6821 234.97 75.3421 249.345 69.5221C262.379 64.2421 274.126 62.6221 274.126 62.6221C274.126 62.6221 274.461 140.502 275.636 196.062C276.643 243.402 292.977 320.982 300.92 341.742C308.863 362.502 323.183 394.182 323.183 394.182C323.183 394.182 294.375 389.742 276.643 365.622C267.301 352.902 223.614 254.502 222.104 189.642C220.594 124.782 226.523 79.0621 225.069 80.6821Z" fill="#FFEFAB"/>
<path d="M208.679 89.6818C207.672 92.8618 199.785 159.882 212.147 222.042C224.51 284.202 242.801 326.742 254.884 343.602C265.624 358.542 272.616 365.622 276.587 365.622C280.559 365.622 260.254 314.082 250.8 273.642C241.403 233.262 236.424 184.842 235.417 160.962C234.411 137.022 233.46 75.3418 233.46 75.3418C233.46 75.3418 222.552 80.6818 220.091 82.2418C217.629 83.8618 208.679 89.6818 208.679 89.6818Z" fill="#FFFCFD"/>
<path d="M280.056 566.022C280.056 566.022 301.368 528.822 305.843 500.622C310.318 472.422 312.779 447.462 312.779 447.462L325.98 448.062C325.98 448.062 324.694 488.922 323.183 516.582C321.673 544.242 317.254 571.362 317.254 571.362L280.056 566.022Z" fill="#FFEFAB"/>
<path d="M296.444 424.422C296.444 424.422 306.345 414.042 333.587 414.042C360.828 414.042 372.519 425.262 372.519 425.262L373.247 461.322C373.247 461.322 355.123 455.262 333.083 454.962C314.736 454.722 294.99 462.042 294.99 462.042L296.444 424.422ZM177.465 66.282C182.052 61.722 226.019 26.322 330.119 25.362C442.106 24.282 484.115 59.082 486.744 61.002C489.708 63.102 493.177 72.702 491.722 76.962C490.212 81.222 487.247 82.782 478.857 79.062C470.41 75.342 428.793 42.762 328.664 46.122C232.508 49.302 191.729 80.682 187.422 83.322C183.954 85.422 177.521 85.962 174.557 81.702C171.536 77.502 174.501 69.282 177.465 66.282ZM491.722 91.302C478.857 92.382 487.751 203.502 460.509 273.102C431.31 347.562 394.055 368.802 395.566 373.062C397.076 377.322 433.547 365.502 456.538 330.522C477.85 298.122 490.715 269.382 496.701 231.102C502.574 192.822 506.042 90.102 491.722 91.302ZM174.724 104.022C171.48 103.842 174.78 159.282 169.522 183.642C167.508 193.002 162.586 194.922 162.083 197.022C161.579 199.122 172.878 270.462 191.841 301.782C210.189 332.082 246.38 369.822 252.31 363.462C258.239 357.102 226.019 335.802 204.259 289.542C191.729 263.022 178.976 223.062 178.472 177.342C178.137 147.102 181.661 104.442 174.724 104.022Z" fill="#D1701C"/>
<path d="M466.998 618.7L466.997 562.482H210.412C211.195 562.482 210.525 602.68 210.413 619H173.942L173.942 651H499.778L499.778 619L466.998 618.7Z" fill="#865C50"/>
<g filter="url(#filter0_d_808_95)">
<mask id="path-9-outside-1_808_95" maskUnits="userSpaceOnUse" x="198" y="70" width="281" height="281" fill="black">
<rect fill="white" x="198" y="70" width="281" height="281"/>
<path d="M328.423 75.1388L203.139 200.423C197.62 205.941 197.62 214.889 203.139 220.407L328.423 345.691C333.941 351.21 342.889 351.21 348.407 345.691L473.691 220.407C479.21 214.889 479.21 205.941 473.691 200.423L348.407 75.1388C342.889 69.6204 333.941 69.6204 328.423 75.1388Z"/>
<path d="M239.725 182.284L218.357 203.651C214.622 207.387 214.622 213.443 218.357 217.179L239.725 238.546C243.46 242.282 249.517 242.282 253.252 238.546L274.62 217.179C278.356 213.443 278.356 207.387 274.62 203.651L253.252 182.284C249.517 178.548 243.46 178.548 239.725 182.284Z"/>
<path d="M331.651 90.3574L310.284 111.725C306.548 115.46 306.548 121.517 310.284 125.252L331.651 146.62C335.387 150.355 341.443 150.355 345.179 146.62L366.546 125.252C370.282 121.517 370.282 115.46 366.546 111.725L345.179 90.3574C341.443 86.6218 335.387 86.6218 331.651 90.3574Z"/>
<path d="M423.577 182.284L402.21 203.651C398.474 207.387 398.474 213.443 402.21 217.179L423.577 238.546C427.313 242.282 433.369 242.282 437.105 238.546L458.472 217.179C462.208 213.443 462.208 207.387 458.472 203.651L437.105 182.284C433.369 178.548 427.313 178.548 423.577 182.284Z"/>
<path d="M377.614 228.247L356.247 249.614C352.511 253.35 352.511 259.406 356.247 263.142L377.614 284.509C381.35 288.245 387.406 288.245 391.142 284.509L412.51 263.142C416.245 259.406 416.245 253.35 412.51 249.614L391.142 228.247C387.406 224.511 381.35 224.511 377.614 228.247Z"/>
<path d="M377.614 136.321L356.247 157.688C352.511 161.424 352.511 167.48 356.247 171.216L377.614 192.583C381.35 196.319 387.406 196.319 391.142 192.583L412.51 171.216C416.245 167.48 416.245 161.424 412.51 157.688L391.142 136.321C387.406 132.585 381.35 132.585 377.614 136.321Z"/>
<path d="M331.651 274.21L310.284 295.578C306.548 299.313 306.548 305.37 310.284 309.105L331.651 330.473C335.387 334.208 341.443 334.208 345.179 330.473L366.546 309.105C370.282 305.37 370.282 299.313 366.546 295.578L345.179 274.21C341.443 270.474 335.387 270.474 331.651 274.21Z"/>
<path d="M285.688 228.247L264.321 249.614C260.585 253.35 260.585 259.406 264.321 263.142L275.004 273.826L285.688 284.509C289.424 288.245 295.48 288.245 299.216 284.509L320.583 263.142C324.319 259.406 324.319 253.35 320.583 249.614L299.216 228.247C295.48 224.511 289.424 224.511 285.688 228.247Z"/>
<path d="M285.688 136.321L264.321 157.688C260.585 161.424 260.585 167.48 264.321 171.216L285.688 192.583C289.424 196.319 295.48 196.319 299.216 192.583L320.583 171.216C324.319 167.48 324.319 161.424 320.583 157.688L299.216 136.321C295.48 132.585 289.424 132.585 285.688 136.321Z"/>
<path d="M280.868 175.649V245.18C280.868 257.787 291.088 268.007 303.695 268.007H373.241C385.848 268.007 396.068 257.787 396.068 245.18V175.649C396.068 163.043 385.848 152.823 373.241 152.823H303.695C291.088 152.823 280.868 163.043 280.868 175.649Z"/>
<path d="M352.363 188.3H345.725V232.77H352.363V212.415H369.398V232.77H376.036V188.3H369.398V206.442H352.363V188.3Z"/>
<path d="M307.802 232.77L301.034 188.3H308.335L312.199 222.995L317.848 199.583H324.264L330.017 223.035L333.778 188.3H340.637L334.22 232.77H326.256L320.837 209.546L315.415 232.77H307.802Z"/>
</mask>
<path d="M328.423 75.1388L203.139 200.423C197.62 205.941 197.62 214.889 203.139 220.407L328.423 345.691C333.941 351.21 342.889 351.21 348.407 345.691L473.691 220.407C479.21 214.889 479.21 205.941 473.691 200.423L348.407 75.1388C342.889 69.6204 333.941 69.6204 328.423 75.1388Z" fill="#C68443"/>
<path d="M239.725 182.284L218.357 203.651C214.622 207.387 214.622 213.443 218.357 217.179L239.725 238.546C243.46 242.282 249.517 242.282 253.252 238.546L274.62 217.179C278.356 213.443 278.356 207.387 274.62 203.651L253.252 182.284C249.517 178.548 243.46 178.548 239.725 182.284Z" fill="#9D6832"/>
<path d="M331.651 90.3574L310.284 111.725C306.548 115.46 306.548 121.517 310.284 125.252L331.651 146.62C335.387 150.355 341.443 150.355 345.179 146.62L366.546 125.252C370.282 121.517 370.282 115.46 366.546 111.725L345.179 90.3574C341.443 86.6218 335.387 86.6218 331.651 90.3574Z" fill="#9D6832"/>
<path d="M423.577 182.284L402.21 203.651C398.474 207.387 398.474 213.443 402.21 217.179L423.577 238.546C427.313 242.282 433.369 242.282 437.105 238.546L458.472 217.179C462.208 213.443 462.208 207.387 458.472 203.651L437.105 182.284C433.369 178.548 427.313 178.548 423.577 182.284Z" fill="#9D6832"/>
<path d="M377.614 228.247L356.247 249.614C352.511 253.35 352.511 259.406 356.247 263.142L377.614 284.509C381.35 288.245 387.406 288.245 391.142 284.509L412.51 263.142C416.245 259.406 416.245 253.35 412.51 249.614L391.142 228.247C387.406 224.511 381.35 224.511 377.614 228.247Z" fill="#9D6832"/>
<path d="M377.614 136.321L356.247 157.688C352.511 161.424 352.511 167.48 356.247 171.216L377.614 192.583C381.35 196.319 387.406 196.319 391.142 192.583L412.51 171.216C416.245 167.48 416.245 161.424 412.51 157.688L391.142 136.321C387.406 132.585 381.35 132.585 377.614 136.321Z" fill="#9D6832"/>
<path d="M331.651 274.21L310.284 295.578C306.548 299.313 306.548 305.37 310.284 309.105L331.651 330.473C335.387 334.208 341.443 334.208 345.179 330.473L366.546 309.105C370.282 305.37 370.282 299.313 366.546 295.578L345.179 274.21C341.443 270.474 335.387 270.474 331.651 274.21Z" fill="#9D6832"/>
<path d="M285.688 228.247L264.321 249.614C260.585 253.35 260.585 259.406 264.321 263.142L275.004 273.826L285.688 284.509C289.424 288.245 295.48 288.245 299.216 284.509L320.583 263.142C324.319 259.406 324.319 253.35 320.583 249.614L299.216 228.247C295.48 224.511 289.424 224.511 285.688 228.247Z" fill="#9D6832"/>
<path d="M285.688 136.321L264.321 157.688C260.585 161.424 260.585 167.48 264.321 171.216L285.688 192.583C289.424 196.319 295.48 196.319 299.216 192.583L320.583 171.216C324.319 167.48 324.319 161.424 320.583 157.688L299.216 136.321C295.48 132.585 289.424 132.585 285.688 136.321Z" fill="#9D6832"/>
<path d="M280.868 175.649V245.18C280.868 257.787 291.088 268.007 303.695 268.007H373.241C385.848 268.007 396.068 257.787 396.068 245.18V175.649C396.068 163.043 385.848 152.823 373.241 152.823H303.695C291.088 152.823 280.868 163.043 280.868 175.649Z" fill="#F1AF49"/>
<path d="M352.363 188.3H345.725V232.77H352.363V212.415H369.398V232.77H376.036V188.3H369.398V206.442H352.363V188.3Z" fill="#382416"/>
<path d="M307.802 232.77L301.034 188.3H308.335L312.199 222.995L317.848 199.583H324.264L330.017 223.035L333.778 188.3H340.637L334.22 232.77H326.256L320.837 209.546L315.415 232.77H307.802Z" fill="#382416"/>
<path d="M328.423 75.1388L203.139 200.423C197.62 205.941 197.62 214.889 203.139 220.407L328.423 345.691C333.941 351.21 342.889 351.21 348.407 345.691L473.691 220.407C479.21 214.889 479.21 205.941 473.691 200.423L348.407 75.1388C342.889 69.6204 333.941 69.6204 328.423 75.1388Z" stroke="#C68443" stroke-width="2" mask="url(#path-9-outside-1_808_95)"/>
<path d="M239.725 182.284L218.357 203.651C214.622 207.387 214.622 213.443 218.357 217.179L239.725 238.546C243.46 242.282 249.517 242.282 253.252 238.546L274.62 217.179C278.356 213.443 278.356 207.387 274.62 203.651L253.252 182.284C249.517 178.548 243.46 178.548 239.725 182.284Z" stroke="#C68443" stroke-width="2" mask="url(#path-9-outside-1_808_95)"/>
<path d="M331.651 90.3574L310.284 111.725C306.548 115.46 306.548 121.517 310.284 125.252L331.651 146.62C335.387 150.355 341.443 150.355 345.179 146.62L366.546 125.252C370.282 121.517 370.282 115.46 366.546 111.725L345.179 90.3574C341.443 86.6218 335.387 86.6218 331.651 90.3574Z" stroke="#C68443" stroke-width="2" mask="url(#path-9-outside-1_808_95)"/>
<path d="M423.577 182.284L402.21 203.651C398.474 207.387 398.474 213.443 402.21 217.179L423.577 238.546C427.313 242.282 433.369 242.282 437.105 238.546L458.472 217.179C462.208 213.443 462.208 207.387 458.472 203.651L437.105 182.284C433.369 178.548 427.313 178.548 423.577 182.284Z" stroke="#C68443" stroke-width="2" mask="url(#path-9-outside-1_808_95)"/>
<path d="M377.614 228.247L356.247 249.614C352.511 253.35 352.511 259.406 356.247 263.142L377.614 284.509C381.35 288.245 387.406 288.245 391.142 284.509L412.51 263.142C416.245 259.406 416.245 253.35 412.51 249.614L391.142 228.247C387.406 224.511 381.35 224.511 377.614 228.247Z" stroke="#C68443" stroke-width="2" mask="url(#path-9-outside-1_808_95)"/>
<path d="M377.614 136.321L356.247 157.688C352.511 161.424 352.511 167.48 356.247 171.216L377.614 192.583C381.35 196.319 387.406 196.319 391.142 192.583L412.51 171.216C416.245 167.48 416.245 161.424 412.51 157.688L391.142 136.321C387.406 132.585 381.35 132.585 377.614 136.321Z" stroke="#C68443" stroke-width="2" mask="url(#path-9-outside-1_808_95)"/>
<path d="M331.651 274.21L310.284 295.578C306.548 299.313 306.548 305.37 310.284 309.105L331.651 330.473C335.387 334.208 341.443 334.208 345.179 330.473L366.546 309.105C370.282 305.37 370.282 299.313 366.546 295.578L345.179 274.21C341.443 270.474 335.387 270.474 331.651 274.21Z" stroke="#C68443" stroke-width="2" mask="url(#path-9-outside-1_808_95)"/>
<path d="M285.688 228.247L264.321 249.614C260.585 253.35 260.585 259.406 264.321 263.142L275.004 273.826L285.688 284.509C289.424 288.245 295.48 288.245 299.216 284.509L320.583 263.142C324.319 259.406 324.319 253.35 320.583 249.614L299.216 228.247C295.48 224.511 289.424 224.511 285.688 228.247Z" stroke="#C68443" stroke-width="2" mask="url(#path-9-outside-1_808_95)"/>
<path d="M285.688 136.321L264.321 157.688C260.585 161.424 260.585 167.48 264.321 171.216L285.688 192.583C289.424 196.319 295.48 196.319 299.216 192.583L320.583 171.216C324.319 167.48 324.319 161.424 320.583 157.688L299.216 136.321C295.48 132.585 289.424 132.585 285.688 136.321Z" stroke="#C68443" stroke-width="2" mask="url(#path-9-outside-1_808_95)"/>
<path d="M280.868 175.649V245.18C280.868 257.787 291.088 268.007 303.695 268.007H373.241C385.848 268.007 396.068 257.787 396.068 245.18V175.649C396.068 163.043 385.848 152.823 373.241 152.823H303.695C291.088 152.823 280.868 163.043 280.868 175.649Z" stroke="#C68443" stroke-width="2" mask="url(#path-9-outside-1_808_95)"/>
<path d="M352.363 188.3H345.725V232.77H352.363V212.415H369.398V232.77H376.036V188.3H369.398V206.442H352.363V188.3Z" stroke="#C68443" stroke-width="2" mask="url(#path-9-outside-1_808_95)"/>
<path d="M307.802 232.77L301.034 188.3H308.335L312.199 222.995L317.848 199.583H324.264L330.017 223.035L333.778 188.3H340.637L334.22 232.77H326.256L320.837 209.546L315.415 232.77H307.802Z" stroke="#C68443" stroke-width="2" mask="url(#path-9-outside-1_808_95)"/>
</g>
<g filter="url(#filter1_d_808_95)">
<path d="M431.261 453.343C408.199 447.888 398.17 424.165 388.728 420.16L379.272 423.756C386.1 433.401 410.917 464.234 434.764 467.564C463.8 471.622 475.455 466.888 481.133 455.789C496.194 431.15 474.76 398.856 438.048 362.655C414.474 341.536 379.783 315.557 341.659 291.262C309.56 268.965 256.853 239.969 234.875 225.656C211.051 212.091 161.762 179.178 146.519 163.589C131.056 148.8 104.682 121.926 113.854 89.2143C118.519 72.5768 121.086 58.2472 158.951 55.025L160.174 53.7826L160.389 53.564L173.735 40C118.944 48.4173 118.579 49.1955 101.323 81.4424C89.4382 103.651 103.35 143.866 127.298 167.07C157.871 196.695 172.149 205.611 229.689 242.29C257.527 258.907 328.254 301.479 338.358 309.523C370.186 329.637 379.616 337.346 405.716 357.794C432.492 381.593 482.08 420.219 471.046 450.335C466.213 463.526 440.465 454.274 431.261 453.343Z" fill="#2258A1"/>
<path d="M431.146 453.829L431.178 453.837L431.211 453.84C433.123 454.034 435.769 454.594 438.835 455.242C439.402 455.363 439.984 455.486 440.578 455.61C444.363 456.403 448.619 457.239 452.745 457.632C456.864 458.025 460.899 457.98 464.229 456.98C467.579 455.973 470.241 453.986 471.516 450.507C474.332 442.82 473.265 434.622 469.719 426.321C466.173 418.023 460.134 409.582 452.936 401.366C441.472 388.281 427.001 375.696 414.833 365.113C411.725 362.41 408.767 359.837 406.048 357.421L406.037 357.41L406.025 357.401C404.443 356.161 402.922 354.969 401.453 353.817C378.699 335.972 368.55 328.012 338.648 309.115C333.53 305.05 313.31 292.39 290.935 278.695C268.511 264.97 243.872 250.174 229.951 241.864C228.929 241.212 227.92 240.569 226.924 239.934C171.904 204.865 157.634 195.77 127.646 166.711L127.324 167.043L127.646 166.711C115.735 155.17 106.312 139.389 101.35 123.732C96.3822 108.059 95.9133 92.6111 101.764 81.6783C110.414 65.5142 114.756 57.4092 123.705 52.2176C128.187 49.6171 133.85 47.7364 141.84 45.9801C149.538 44.2879 159.361 42.7181 172.322 40.7231L160.032 53.2133L159.817 53.4319L158.724 54.5426C139.862 56.1706 129.657 60.5685 123.596 66.7385C117.98 72.4556 115.989 79.64 113.884 87.2414C113.715 87.8515 113.545 88.4643 113.373 89.0793C108.738 105.607 113.094 120.645 120.517 133.374C127.933 146.093 138.435 156.549 146.167 163.945C153.83 171.779 169.997 183.926 187.195 195.793C204.402 207.667 222.686 219.29 234.615 226.083C243.139 231.633 256.272 239.386 271.019 248.092C275.307 250.622 279.73 253.234 284.217 255.895C304.154 267.721 325.341 280.536 341.373 291.673L341.381 291.678L341.39 291.684C379.493 315.965 414.156 341.924 437.706 363.019C456.048 381.107 470.535 398.183 478.561 413.786C486.585 429.386 488.109 443.418 480.706 455.528L480.696 455.544L480.688 455.561C477.911 460.99 473.687 464.854 466.571 466.879C459.418 468.914 449.328 469.095 434.833 467.069L434.764 467.564L434.833 467.069C423.07 465.426 411 456.978 400.976 447.662C391.321 438.688 383.637 428.978 380.055 423.993L388.715 420.7C390.908 421.691 393.186 423.807 395.745 426.605C396.933 427.903 398.168 429.332 399.476 430.844L399.876 431.308C401.33 432.99 402.871 434.762 404.52 436.547C411.112 443.684 419.469 451.068 431.146 453.829Z" stroke="#2258A1"/>
</g>
<g filter="url(#filter2_d_808_95)">
<path d="M140.917 35.216C148.919 31.8863 174.176 24.8328 199.432 24L172.582 40.4459C152.023 45.1135 139.165 53.3631 134.731 57.2325C132.491 59.1874 127.066 61.9606 124.698 75.7086C117.5 117.5 157 153.31 181.5 173C217.434 201.879 358.864 271.788 388.883 299.139C415.279 317.612 426.927 326.168 448.309 344.956C469.694 363.745 473.809 368.745 486.84 387.153C495.759 402.151 505.652 416.59 498.607 435.559C488.582 462.564 459.197 458.491 442.039 456.609C411.26 452.472 389.237 420.153 389.237 420.153L401.057 415.001C423.152 427.738 462.349 448.835 481.339 435.559C498.072 420.248 469.816 392.764 451.404 371.7C431.443 348.866 410.708 338.747 383.789 315.876C351.418 292.987 198.28 199.342 163.5 174.5C146 162 101.24 121.177 108.864 75.7086C112.383 48.6027 137.686 36.5606 140.917 35.216Z" fill="#FFC100"/>
<path d="M388.547 299.509L388.57 299.53L388.597 299.549C414.985 318.016 426.616 326.56 447.979 345.332C458.67 354.725 465.027 360.656 470.337 366.533C475.642 372.404 479.912 378.231 486.421 387.426C486.969 388.348 487.521 389.268 488.071 390.185C496.499 404.236 504.656 417.834 498.138 435.385L498.607 435.559L498.138 435.385C493.2 448.689 483.516 454.33 472.901 456.426C462.838 458.414 451.973 457.208 443.551 456.273C443.059 456.219 442.575 456.165 442.1 456.113C426.861 454.063 413.755 445.028 404.434 436.461C399.779 432.182 396.08 428.031 393.545 424.95C392.278 423.409 391.303 422.137 390.645 421.251C390.376 420.889 390.16 420.591 389.999 420.366L401.026 415.56C412.058 421.915 427.313 430.317 442.198 435.507C449.689 438.119 457.111 439.925 463.867 440.238C470.624 440.551 476.757 439.373 481.626 435.969L481.653 435.951L481.677 435.928C485.989 431.982 487.407 427.23 486.807 422.027C486.21 416.856 483.625 411.251 479.973 405.518C474.235 396.512 465.773 387.057 457.957 378.325C455.828 375.945 453.746 373.619 451.78 371.371C441.766 359.915 431.559 351.652 420.505 343.401C417.899 341.456 415.247 339.513 412.54 337.529C403.757 331.091 394.388 324.225 384.112 315.495L384.095 315.48L384.077 315.467C368.529 304.473 325.164 277.183 280.439 249.037C278.566 247.858 276.69 246.678 274.814 245.497C228.127 216.114 181.165 186.503 163.791 174.093C155.074 167.867 139.553 154.574 127.168 137.177C114.779 119.776 105.576 98.3381 109.357 75.7913L109.358 75.7822L109.36 75.773C111.099 62.3712 118.224 52.6846 125.336 46.1705C132.452 39.6532 139.531 36.3344 141.11 35.6776C148.855 32.4544 172.99 25.6843 197.536 24.5745L172.391 39.9766C151.806 44.6639 138.898 52.9318 134.402 56.8558C134.17 57.0584 133.893 57.2766 133.581 57.5224C132.465 58.401 130.903 59.6308 129.358 61.754C127.371 64.485 125.399 68.6913 124.205 75.6238C120.574 96.7058 128.729 116.243 140.807 132.935C152.886 149.629 168.929 163.538 181.187 173.39C190.203 180.635 205.81 190.436 224.588 201.477C241.613 211.487 261.268 222.529 281.028 233.63C283.073 234.779 285.12 235.929 287.165 237.078C308.966 249.332 330.576 261.534 348.611 272.381C366.659 283.236 381.084 292.709 388.547 299.509Z" stroke="#FFC100"/>
</g>
<g filter="url(#filter3_d_808_95)">
<path d="M194.968 456.707C215.642 484.024 276.634 444.365 292.57 424.369L282.079 420.687C253.683 438.275 208.33 463.16 203.461 444.397C198.142 423.895 226.612 396.977 251.448 373.495L251.671 373.284C274.533 351.67 340.389 305.087 377.922 283.534C404.107 268.498 448.638 241.817 478.503 222.105C508.269 203.551 540.971 179.477 557.872 155.815C565.938 146.41 584.857 114.539 575.425 85.852C566.839 59.7341 539.077 44.4728 521.686 39.6496C501.001 33.9135 490.833 28 476.092 28L498.474 42.4809C512.023 47.7284 515.86 50.7206 531.491 60.7443C541.397 67.0973 564.339 81.7994 564.339 90.7812C561.282 119.754 564.33 121.072 546.605 144.598C533.138 164.432 489.734 195.409 468.036 208.898C451.203 219.363 395.242 252.746 366.805 270.664C331.503 290.132 281.166 327.311 245.418 356.616C203.477 390.996 176.368 432.132 194.968 456.707Z" fill="#920813"/>
<path d="M291.735 424.605C283.571 434.521 264.748 449.014 245.339 457.825C235.457 462.311 225.468 465.304 216.688 465.491C207.922 465.677 200.41 463.07 195.366 456.405C186.248 444.357 188.266 428.173 197.928 410.579C207.581 393.002 224.792 374.17 245.735 357.003C281.475 327.704 331.785 290.547 367.047 271.102L367.059 271.095L367.072 271.087C384.539 260.081 412.363 243.257 435.143 229.482C449.464 220.823 461.792 213.369 468.3 209.323C479.164 202.569 495.454 191.443 510.715 179.521C525.955 167.617 540.226 154.877 547.011 144.89C555.872 133.128 559.593 126.852 561.455 119.861C562.385 116.372 562.847 112.721 563.269 108.151C563.409 106.627 563.545 105.003 563.692 103.246C563.987 99.7217 564.326 95.6667 564.836 90.8337L564.839 90.8075V90.7812C564.839 88.347 563.3 85.6253 560.982 82.8702C558.646 80.0936 555.441 77.1918 551.943 74.3868C544.964 68.7908 536.756 63.527 531.801 60.3496L531.76 60.3234C529.766 59.0446 527.964 57.8798 526.307 56.8098C515.006 49.5076 510.535 46.6189 498.702 42.0332L477.828 28.5279C484.385 28.7394 490.119 30.1378 496.51 32.1507C498.819 32.878 501.22 33.6877 503.777 34.5503C508.899 36.2778 514.65 38.2173 521.552 40.1314C530.191 42.5274 541.422 47.5218 551.556 55.1645C561.69 62.807 570.698 73.0745 574.95 86.0081C579.618 100.206 577.279 115.223 572.74 127.896C568.201 140.568 561.485 150.833 557.492 155.489L557.478 155.506L557.465 155.524C540.627 179.099 508 203.129 478.238 221.681L478.227 221.688C448.375 241.392 403.853 268.068 377.673 283.101C340.12 304.665 274.228 351.27 251.328 372.921C251.328 372.921 251.328 372.921 251.328 372.921L251.105 373.132L251.104 373.132L251.088 373.147C238.683 384.876 225.333 397.498 215.752 409.756C210.959 415.888 207.092 421.951 204.758 427.786C202.424 433.622 201.612 439.261 202.977 444.523C203.616 446.983 204.931 448.759 206.811 449.913C208.677 451.058 211.059 451.565 213.803 451.581C219.282 451.612 226.368 449.682 234.13 446.639C249.597 440.576 267.964 430.009 282.139 421.238L291.735 424.605Z" stroke="#920813"/>
</g>
<g filter="url(#filter4_d_808_95)">
<path d="M193.566 434.97C209.088 450.434 250.998 427.305 268.806 414.981L282.165 420.644C271.818 432.873 205.674 477.09 180.346 441.286C160.035 410.574 202.657 369.664 223.734 348.7C238.331 334.178 246.446 328.696 272.024 309.482C301.473 287.362 322.745 273.739 346.081 259.595C372.798 243.398 426.091 211.008 454.117 194.669C473.575 181.509 519.232 149.91 529.77 135.381C542.985 117.161 553.295 108.051 552.003 80.8838C549.455 51.2728 501.676 27.8112 475.848 27.8112L446.331 16C492.045 16.1528 561.862 34.8599 566.617 78.8533C569.126 102.091 559.188 124.683 540.661 147.094C524.67 166.437 481.997 197.125 459.198 211.008C436.11 224.023 400.97 247.591 368.444 265.668C340.709 283.308 309.633 302.396 283.931 322.063C263.893 336.233 244.435 351.127 222.653 372.818C190.511 406.148 183.128 424.571 193.566 434.97Z" fill="#3A7C13"/>
<path d="M224.087 349.054L223.747 348.713L224.087 349.054C236.627 336.579 244.36 330.798 262.596 317.167C265.543 314.964 268.764 312.556 272.325 309.882C301.756 287.774 323.014 274.161 346.34 260.023C348.841 258.506 351.575 256.848 354.499 255.075C382.814 237.902 428.97 209.908 454.369 195.101L454.383 195.092L454.397 195.083C464.128 188.502 480.415 177.307 495.588 165.939C503.175 160.255 510.488 154.524 516.566 149.303C522.635 144.089 527.504 139.358 530.175 135.675C531.957 133.218 533.691 130.921 535.355 128.718C539.829 122.791 543.789 117.545 546.772 111.715C550.884 103.678 553.152 94.5199 552.502 80.86L552.502 80.8505L552.501 80.8409C551.206 65.79 538.446 52.4068 522.918 42.818C507.411 33.2413 488.971 27.3404 475.944 27.3113L449 16.5296C471.352 16.9483 498.862 21.6749 521.636 31.4459C545.351 41.6203 563.772 57.1886 566.119 78.907C568.608 101.956 558.76 124.416 540.276 146.775C532.32 156.399 517.694 168.877 502.18 180.701C486.678 192.515 470.327 203.645 458.944 210.577C448.741 216.329 436.19 224.138 422.564 232.615C420.759 233.738 418.936 234.872 417.096 236.015C401.359 245.794 384.452 256.199 368.201 265.231L368.188 265.238L368.176 265.246C364.202 267.773 360.159 270.331 356.073 272.916C331.65 288.365 305.67 304.799 283.635 321.66C263.586 335.838 244.106 350.749 222.3 372.464L222.293 372.471C206.215 389.144 196.282 402.133 191.686 412.287C189.386 417.368 188.407 421.774 188.689 425.596C188.971 429.432 190.523 432.644 193.213 435.325C197.228 439.324 202.915 440.792 209.381 440.604C215.847 440.415 223.155 438.569 230.502 435.865C245.074 430.502 259.914 421.718 268.864 415.548L281.333 420.835C278.575 423.876 272.776 428.639 265.177 433.646C257.148 438.937 247.151 444.473 236.693 448.511C226.23 452.551 215.343 455.078 205.521 454.386C195.72 453.697 186.989 449.806 180.759 441.003C170.785 425.916 176.211 408.26 186.94 391.608C197.081 375.868 211.849 361.206 222.345 350.784C222.94 350.193 223.521 349.617 224.087 349.054Z" stroke="#3A7C13"/>
</g>
<path d="M307.505 575.025C303.26 574.823 298.376 575.75 298.188 581.392C298 587.034 298 603.354 298 606.457C298 609.56 300.367 612.26 306.303 612.461C312.239 612.663 367.954 612.461 371.861 612.461C375.768 612.461 377.797 608.835 377.947 605.208C378.135 601.581 377.76 586.308 377.76 582.158C377.76 575.267 372.011 575.267 368.104 575.267C363.897 575.186 307.505 575.025 307.505 575.025Z" fill="url(#paint0_linear_808_95)"/>
<path d="M316.058 605.703L309.629 583.234H314.818L318.537 598.846H318.724L322.827 583.234H327.271L331.363 598.879H331.56L335.28 583.234H340.469L334.04 605.703H329.41L325.131 591.013H324.956L320.688 605.703H316.058ZM343.012 605.703V583.234H347.762V592.505H357.406V583.234H362.145V605.703H357.406V596.421H347.762V605.703H343.012Z" fill="#382416" fill-opacity="0.79"/>
<g filter="url(#filter5_d_808_95)">
<path d="M239.162 609V606.315L249.244 595.278C250.428 593.986 251.402 592.862 252.168 591.908C252.933 590.943 253.5 590.038 253.868 589.193C254.246 588.338 254.435 587.443 254.435 586.509C254.435 585.435 254.176 584.505 253.659 583.719C253.152 582.934 252.456 582.327 251.571 581.9C250.686 581.472 249.692 581.259 248.588 581.259C247.415 581.259 246.391 581.502 245.516 581.989C244.651 582.467 243.979 583.138 243.502 584.003C243.035 584.868 242.801 585.882 242.801 587.045H239.281C239.281 585.256 239.694 583.685 240.519 582.332C241.344 580.98 242.468 579.926 243.89 579.17C245.322 578.415 246.928 578.037 248.707 578.037C250.497 578.037 252.083 578.415 253.465 579.17C254.847 579.926 255.931 580.945 256.717 582.228C257.502 583.511 257.895 584.938 257.895 586.509C257.895 587.632 257.691 588.731 257.283 589.805C256.886 590.869 256.19 592.057 255.195 593.369C254.211 594.672 252.844 596.263 251.094 598.142L244.233 605.48V605.719H258.432V609H239.162ZM274.555 609.418C272.308 609.418 270.393 608.806 268.812 607.583C267.232 606.35 266.023 604.565 265.188 602.229C264.353 599.882 263.935 597.048 263.935 593.727C263.935 590.426 264.353 587.607 265.188 585.271C266.033 582.924 267.246 581.134 268.827 579.901C270.418 578.658 272.327 578.037 274.555 578.037C276.782 578.037 278.686 578.658 280.267 579.901C281.858 581.134 283.071 582.924 283.906 585.271C284.751 587.607 285.174 590.426 285.174 593.727C285.174 597.048 284.756 599.882 283.921 602.229C283.086 604.565 281.878 606.35 280.297 607.583C278.716 608.806 276.802 609.418 274.555 609.418ZM274.555 606.136C276.782 606.136 278.512 605.062 279.745 602.915C280.978 600.767 281.594 597.705 281.594 593.727C281.594 591.082 281.311 588.83 280.744 586.971C280.188 585.112 279.382 583.695 278.328 582.72C277.284 581.746 276.026 581.259 274.555 581.259C272.347 581.259 270.622 582.347 269.379 584.525C268.136 586.692 267.515 589.76 267.515 593.727C267.515 596.372 267.793 598.619 268.35 600.469C268.907 602.318 269.707 603.725 270.751 604.69C271.805 605.654 273.073 606.136 274.555 606.136Z" fill="url(#paint1_linear_808_95)"/>
</g>
<g filter="url(#filter6_d_808_95)">
<path d="M390.162 609V606.315L400.244 595.278C401.428 593.986 402.402 592.862 403.168 591.908C403.933 590.943 404.5 590.038 404.868 589.193C405.246 588.338 405.435 587.443 405.435 586.509C405.435 585.435 405.176 584.505 404.659 583.719C404.152 582.934 403.456 582.327 402.571 581.9C401.686 581.472 400.692 581.259 399.588 581.259C398.415 581.259 397.391 581.502 396.516 581.989C395.651 582.467 394.979 583.138 394.502 584.003C394.035 584.868 393.801 585.882 393.801 587.045H390.281C390.281 585.256 390.694 583.685 391.519 582.332C392.344 580.98 393.468 579.926 394.89 579.17C396.322 578.415 397.928 578.037 399.707 578.037C401.497 578.037 403.083 578.415 404.465 579.17C405.847 579.926 406.931 580.945 407.717 582.228C408.502 583.511 408.895 584.938 408.895 586.509C408.895 587.632 408.691 588.731 408.283 589.805C407.886 590.869 407.19 592.057 406.195 593.369C405.211 594.672 403.844 596.263 402.094 598.142L395.233 605.48V605.719H409.432V609H390.162ZM414.219 602.736V599.693L427.643 578.455H429.85V583.168H428.359L418.217 599.216V599.455H436.293V602.736H414.219ZM428.597 609V601.811V600.394V578.455H432.117V609H428.597Z" fill="url(#paint2_linear_808_95)"/>
</g>
<defs>
<filter id="filter0_d_808_95" x="193.9" y="69.9" width="289.03" height="289.03" filterUnits="userSpaceOnUse" color-interpolation-filters="sRGB">
<feFlood flood-opacity="0" result="BackgroundImageFix"/>
<feColorMatrix in="SourceAlpha" type="matrix" values="0 0 0 0 0 0 0 0 0 0 0 0 0 0 0 0 0 0 127 0" result="hardAlpha"/>
<feOffset dy="4"/>
<feGaussianBlur stdDeviation="2.05"/>
<feComposite in2="hardAlpha" operator="out"/>
<feColorMatrix type="matrix" values="0 0 0 0 0 0 0 0 0 0 0 0 0 0 0 0 0 0 0.4 0"/>
<feBlend mode="normal" in2="BackgroundImageFix" result="effect1_dropShadow_808_95"/>
<feBlend mode="normal" in="SourceGraphic" in2="effect1_dropShadow_808_95" result="shape"/>
</filter>
<filter id="filter1_d_808_95" x="92.5" y="33.5" width="398" height="438" filterUnits="userSpaceOnUse" color-interpolation-filters="sRGB">
<feFlood flood-opacity="0" result="BackgroundImageFix"/>
<feColorMatrix in="SourceAlpha" type="matrix" values="0 0 0 0 0 0 0 0 0 0 0 0 0 0 0 0 0 0 127 0" result="hardAlpha"/>
<feOffset dy="-2"/>
<feGaussianBlur stdDeviation="2.25"/>
<feComposite in2="hardAlpha" operator="out"/>
<feColorMatrix type="matrix" values="0 0 0 0 0 0 0 0 0 0 0 0 0 0 0 0 0 0 0.3 0"/>
<feBlend mode="normal" in2="BackgroundImageFix" result="effect1_dropShadow_808_95"/>
<feBlend mode="normal" in="SourceGraphic" in2="effect1_dropShadow_808_95" result="shape"/>
</filter>
<filter id="filter2_d_808_95" x="103.498" y="17.5" width="402.002" height="443" filterUnits="userSpaceOnUse" color-interpolation-filters="sRGB">
<feFlood flood-opacity="0" result="BackgroundImageFix"/>
<feColorMatrix in="SourceAlpha" type="matrix" values="0 0 0 0 0 0 0 0 0 0 0 0 0 0 0 0 0 0 127 0" result="hardAlpha"/>
<feOffset dy="-2"/>
<feGaussianBlur stdDeviation="2.25"/>
<feComposite in2="hardAlpha" operator="out"/>
<feColorMatrix type="matrix" values="0 0 0 0 0 0 0 0 0 0 0 0 0 0 0 0 0 0 0.3 0"/>
<feBlend mode="normal" in2="BackgroundImageFix" result="effect1_dropShadow_808_95"/>
<feBlend mode="normal" in="SourceGraphic" in2="effect1_dropShadow_808_95" result="shape"/>
</filter>
<filter id="filter3_d_808_95" x="184.5" y="21.5" width="398" height="447" filterUnits="userSpaceOnUse" color-interpolation-filters="sRGB">
<feFlood flood-opacity="0" result="BackgroundImageFix"/>
<feColorMatrix in="SourceAlpha" type="matrix" values="0 0 0 0 0 0 0 0 0 0 0 0 0 0 0 0 0 0 127 0" result="hardAlpha"/>
<feOffset dy="-2"/>
<feGaussianBlur stdDeviation="2.25"/>
<feComposite in2="hardAlpha" operator="out"/>
<feColorMatrix type="matrix" values="0 0 0 0 0 0 0 0 0 0 0 0 0 0 0 0 0 0 0.3 0"/>
<feBlend mode="normal" in2="BackgroundImageFix" result="effect1_dropShadow_808_95"/>
<feBlend mode="normal" in="SourceGraphic" in2="effect1_dropShadow_808_95" result="shape"/>
</filter>
<filter id="filter4_d_808_95" x="170.5" y="9.5" width="401" height="448" filterUnits="userSpaceOnUse" color-interpolation-filters="sRGB">
<feFlood flood-opacity="0" result="BackgroundImageFix"/>
<feColorMatrix in="SourceAlpha" type="matrix" values="0 0 0 0 0 0 0 0 0 0 0 0 0 0 0 0 0 0 127 0" result="hardAlpha"/>
<feOffset dy="-2"/>
<feGaussianBlur stdDeviation="2.25"/>
<feComposite in2="hardAlpha" operator="out"/>
<feColorMatrix type="matrix" values="0 0 0 0 0 0 0 0 0 0 0 0 0 0 0 0 0 0 0.3 0"/>
<feBlend mode="normal" in2="BackgroundImageFix" result="effect1_dropShadow_808_95"/>
<feBlend mode="normal" in="SourceGraphic" in2="effect1_dropShadow_808_95" result="shape"/>
</filter>
<filter id="filter5_d_808_95" x="237.162" y="576.037" width="50.0117" height="35.3809" filterUnits="userSpaceOnUse" color-interpolation-filters="sRGB">
<feFlood flood-opacity="0" result="BackgroundImageFix"/>
<feColorMatrix in="SourceAlpha" type="matrix" values="0 0 0 0 0 0 0 0 0 0 0 0 0 0 0 0 0 0 127 0" result="hardAlpha"/>
<feOffset/>
<feGaussianBlur stdDeviation="1"/>
<feComposite in2="hardAlpha" operator="out"/>
<feColorMatrix type="matrix" values="0 0 0 0 0.996078 0 0 0 0 0.768627 0 0 0 0 0.0901961 0 0 0 1 0"/>
<feBlend mode="normal" in2="BackgroundImageFix" result="effect1_dropShadow_808_95"/>
<feBlend mode="normal" in="SourceGraphic" in2="effect1_dropShadow_808_95" result="shape"/>
</filter>
<filter id="filter6_d_808_95" x="388.162" y="576.037" width="50.1313" height="34.9631" filterUnits="userSpaceOnUse" color-interpolation-filters="sRGB">
<feFlood flood-opacity="0" result="BackgroundImageFix"/>
<feColorMatrix in="SourceAlpha" type="matrix" values="0 0 0 0 0 0 0 0 0 0 0 0 0 0 0 0 0 0 127 0" result="hardAlpha"/>
<feOffset/>
<feGaussianBlur stdDeviation="1"/>
<feComposite in2="hardAlpha" operator="out"/>
<feColorMatrix type="matrix" values="0 0 0 0 0.996078 0 0 0 0 0.768627 0 0 0 0 0.0901961 0 0 0 1 0"/>
<feBlend mode="normal" in2="BackgroundImageFix" result="effect1_dropShadow_808_95"/>
<feBlend mode="normal" in="SourceGraphic" in2="effect1_dropShadow_808_95" result="shape"/>
</filter>
<linearGradient id="paint0_linear_808_95" x1="298" y1="570.468" x2="399.087" y2="612.272" gradientUnits="userSpaceOnUse">
<stop stop-color="#FEC417"/>
<stop offset="0.275" stop-color="#FFEFAB"/>
<stop offset="1" stop-color="#FFA828"/>
</linearGradient>
<linearGradient id="paint1_linear_808_95" x1="243.426" y1="555.211" x2="292.532" y2="578.361" gradientUnits="userSpaceOnUse">
<stop stop-color="white"/>
<stop offset="1" stop-color="#FCD357"/>
</linearGradient>
<linearGradient id="paint2_linear_808_95" x1="394.426" y1="555.211" x2="443.532" y2="578.361" gradientUnits="userSpaceOnUse">
<stop stop-color="white"/>
<stop offset="1" stop-color="#FCD357"/>
</linearGradient>
</defs>
</svg>
